SplineFontDB: 3.2
FontName: TimesNewGiworlic
FullName: Times New Giworlic
FamilyName: Times New Giworlic
Weight: Regular
Copyright: Copyright (URW)++,Copyright 2014 by (URW)++ Design & Development
Version: 1.00
ItalicAngle: 0
UnderlinePosition: -100
UnderlineWidth: 50
Ascent: 683
Descent: 317
InvalidEm: 0
sfntRevision: 0x00010000
LayerCount: 2
Layer: 0 0 "Back" 1
Layer: 1 0 "Fore" 0
XUID: [1021 405 751470093 4374]
StyleMap: 0x0040
FSType: 0
OS2Version: 3
OS2_WeightWidthSlopeOnly: 0
OS2_UseTypoMetrics: 0
CreationTime: 1439302086
ModificationTime: 1754174648
PfmFamily: 81
TTFWeight: 400
TTFWidth: 5
LineGap: 200
VLineGap: 0
Panose: 0 0 5 0 0 0 0 0 0 0
OS2TypoAscent: 683
OS2TypoAOffset: 0
OS2TypoDescent: -317
OS2TypoDOffset: 0
OS2TypoLinegap: 200
OS2WinAscent: 1053
OS2WinAOffset: 0
OS2WinDescent: 309
OS2WinDOffset: 0
HheadAscent: 683
HheadAOffset: 0
HheadDescent: -317
HheadDOffset: 0
OS2SubXSize: 650
OS2SubYSize: 600
OS2SubXOff: 0
OS2SubYOff: 75
OS2SupXSize: 650
OS2SupYSize: 600
OS2SupXOff: 0
OS2SupYOff: 350
OS2StrikeYSize: 50
OS2StrikeYPos: 270
OS2CapHeight: 662
OS2XHeight: 450
OS2Vendor: 'URW '
OS2CodePages: 6000009f.00000000
OS2UnicodeRanges: 00000287.00000000.00000000.00000000
Lookup: 4 0 1 "liga" { "Y3"  "glides-w"  "glides-j"  } ['gsub' ('DFLT' <'dflt' > 'cyrl' <'dflt' > 'grek' <'dflt' > 'latn' <'dflt' > ) ]
Lookup: 258 0 0 "'kern' Horizontal Kerning in Latin lookup 0" { "'kern' Horizontal Kerning in Latin lookup 0 subtable"  } ['kern' ('DFLT' <'dflt' > 'latn' <'AZE ' 'CRT ' 'DEU ' 'MOL ' 'ROM ' 'TRK ' 'dflt' > ) ]
MarkAttachClasses: 1
DEI: 91125
LangName: 1033 "Copyright 2014 by (URW)+-+- Design & Development GmbH" "NimbusRomNo9L" "" "" "NimbusRomNo9L-Reg" "Version 1.000;PS 1.00;hotconv 1.0.57;makeotf.lib2.0.21895" "" "" "(URW)+-+- Design & Development" "" "" "http://www.urwpp.de" "http://www.urwpp.com" "" "" "" "Nimbus Roman No9 L" "Regular" "NimbusRomNo9LReg"
Encoding: Custom
UnicodeInterp: none
NameList: AGL For New Fonts
DisplaySize: -72
AntiAlias: 1

StartChar: exclam
Encoding: 1 33 2
Width: 333
GlyphClass: 2
Flags: MW
HStem: -9 105<149 179 149 179.5> 656 20<147.5 181>
VStem: 111 108<27.5 57>
LayerCount: 2
Fore
SplineSet
170 176 m 1
 157 176 l 1
 148 284 l 2
 146 314 140 363 131 422 c 0
 119 497 111 573 111 599 c 0
 111 647 131 676 164 676 c 0
 198 676 217 648 217 596 c 0
 217 582 216 571 215 559 c 2
 170 176 l 1
164 96 m 0
 194 96 219 72 219 42 c 0
 219 12 196 -9 163 -9 c 0
 133 -9 111 13 111 42 c 0
 111 72 134 96 164 96 c 0
EndSplineSet
Validated: 1
EndChar

StartChar: quotedbl
Encoding: 2 34 3
Width: 408
GlyphClass: 2
Flags: MW
HStem: 656 20<108 131.5 277 300.5>
LayerCount: 2
Fore
SplineSet
299 431 m 1
 278 431 l 1
 260 528 246 618 246 635 c 0
 246 658 265 676 289 676 c 0
 312 676 331 658 331 636 c 0
 331 607 322 547 306 471 c 0
 304 462 302 448 299 431 c 1
130 431 m 1
 109 431 l 1
 91 528 77 618 77 635 c 0
 77 658 96 676 120 676 c 0
 143 676 162 658 162 636 c 0
 162 607 153 547 137 471 c 0
 135 462 133 448 130 431 c 1
EndSplineSet
Validated: 1
EndChar

StartChar: numbersign
Encoding: 3 35 4
Width: 500
GlyphClass: 2
Flags: MW
HStem: 0 20 216 55<5 112 5 121 179 304 5 170 371 471> 405 55<32 142 32 150 32 200 208 333 399 496> 642 20<181 239 239 239 371 429 429 429>
LayerCount: 2
Fore
SplineSet
471 271 m 1
 471 216 l 1
 362 216 l 1
 331 0 l 1
 273 0 l 1
 304 216 l 1
 170 216 l 1
 137 0 l 1
 79 0 l 1
 112 216 l 1
 5 216 l 1
 5 271 l 1
 121 271 l 1
 142 405 l 1
 32 405 l 1
 32 460 l 1
 150 460 l 1
 181 662 l 1
 239 662 l 1
 208 460 l 1
 341 460 l 1
 371 662 l 1
 429 662 l 1
 399 460 l 1
 496 460 l 1
 496 405 l 1
 391 405 l 1
 371 271 l 1
 471 271 l 1
333 405 m 1
 200 405 l 1
 179 271 l 1
 313 271 l 1
 333 405 l 1
EndSplineSet
Validated: 1
EndChar

StartChar: dollar
Encoding: 4 36 5
Width: 500
GlyphClass: 2
Flags: MW
HStem: 0 20
VStem: 52 74<510.5 533.5> 230 34<-87 0 -87 0 28 293 664 727> 378 79<146 177>
LayerCount: 2
Fore
SplineSet
425 500 m 1
 410 500 l 1
 393 585 348 627 264 637 c 1
 264 391 l 1
 385 322 411 301 437 260 c 0
 450 239 457 206 457 170 c 0
 457 122 438 81 405 53 c 0
 369 24 338 12 264 0 c 1
 264 -87 l 1
 230 -87 l 1
 230 0 l 1
 146 3 104 14 44 51 c 1
 44 181 l 1
 59 181 l 1
 83 76 136 29 230 28 c 1
 230 310 l 1
 159 350 137 365 108 393 c 0
 68 430 52 465 52 512 c 0
 52 555 72 595 106 622 c 0
 139 648 167 657 230 664 c 1
 230 727 l 1
 264 727 l 1
 264 664 l 1
 348 654 391 639 425 611 c 1
 425 500 l 1
229 407 m 1
 229 637 l 1
 160 623 126 589 126 534 c 0
 126 487 145 463 229 407 c 1
264 293 m 1
 264 28 l 1
 342 43 378 80 378 146 c 0
 378 208 357 235 264 293 c 1
EndSplineSet
Validated: 1
EndChar

StartChar: percent
Encoding: 5 37 6
Width: 833
GlyphClass: 2
Flags: MW
HStem: -24 27<625.5 666 625.5 689> 306 26<626.5 667.5> 317 24<162.5 204 162.5 226.5> 648 27<164.5 205.5> 656 20<593 636 636 636>
VStem: 44 78<446.5 547> 248 77<444.5 542.5> 506 78<105 204.5 105 204.5> 710 77<104.5 201>
LayerCount: 2
Fore
SplineSet
593 676 m 1xcf80
 636 676 l 1
 249 -13 l 1
 201 -13 l 1
 593 676 l 1xcf80
646 332 m 0
 727 332 787 255 787 152 c 0
 787 48 730 -24 648 -24 c 0
 567 -24 506 52 506 153 c 0
 506 256 566 332 646 332 c 0
647 306 m 0
 606 306 584 254 584 155 c 0
 584 55 605 3 646 3 c 0
 686 3 710 58 710 151 c 0
 710 251 688 306 647 306 c 0
188 675 m 0x3780
 269 675 325 599 325 491 c 0
 325 388 268 317 185 317 c 0
 103 317 44 392 44 495 c 0
 44 599 104 675 188 675 c 0x3780
186 648 m 0
 143 648 122 600 122 501 c 0
 122 392 142 341 183 341 c 0
 225 341 248 396 248 493 c 0
 248 592 225 648 186 648 c 0
EndSplineSet
Validated: 1
EndChar

StartChar: ampersand
Encoding: 6 38 7
Width: 778
GlyphClass: 2
Flags: MW
HStem: -13 52<227.5 253.5> -13 71<617 631> 644 32<335 381>
VStem: 42 92<141 181> 202 79<539.5 565> 438 53<531.5 583.5>
LayerCount: 2
Fore
SplineSet
711 426 m 1xbc
 711 405 l 1
 661 399 641 387 617 346 c 2
 591 300 l 2
 560 246 535 209 491 150 c 1
 538 89 589 58 645 58 c 0
 681 58 703 71 735 111 c 1
 750 100 l 1
 720 29 663 -13 599 -13 c 0x7c
 541 -13 492 13 429 78 c 1
 354 12 294 -13 213 -13 c 0
 106 -13 42 44 42 139 c 0
 42 223 93 294 199 355 c 2
 237 377 l 1
 210 452 202 484 202 522 c 0
 202 608 270 676 356 676 c 0
 435 676 491 626 491 555 c 0
 491 483 450 438 336 384 c 1
 380 298 412 247 468 178 c 1
 533 264 559 316 559 360 c 0
 559 390 545 400 495 405 c 1
 495 426 l 1
 711 426 l 1xbc
321 416 m 1
 401 458 438 504 438 559 c 0
 438 608 404 644 358 644 c 0
 312 644 281 611 281 562 c 0
 281 517 291 479 321 416 c 1
252 343 m 1x9c
 165 287 134 244 134 180 c 0
 134 102 192 39 263 39 c 0
 306 39 344 57 404 104 c 1
 347 174 312 229 252 343 c 1x9c
EndSplineSet
Validated: 1
EndChar

StartChar: quotesingle
Encoding: 7 39 8
Width: 180
GlyphClass: 2
Flags: MW
HStem: 656 20<79 102.5>
LayerCount: 2
Fore
SplineSet
101 431 m 1
 80 431 l 1
 62 528 48 618 48 635 c 0
 48 658 67 676 91 676 c 0
 114 676 133 658 133 636 c 0
 133 607 124 547 108 471 c 0
 106 462 104 448 101 431 c 1
EndSplineSet
Validated: 1
EndChar

StartChar: parenleft
Encoding: 8 40 9
Width: 333
GlyphClass: 2
Flags: MW
HStem: 656 20<295 295>
VStem: 48 86<204.5 307.5 204.5 310.5>
LayerCount: 2
Fore
SplineSet
295 676 m 1
 304 660 l 1
 232 602 202 566 174 504 c 0
 147 442 134 360 134 255 c 0
 134 154 145 79 169 12 c 0
 196 -62 224 -98 304 -161 c 1
 292 -177 l 1
 240 -145 214 -123 173 -75 c 0
 85 27 48 124 48 252 c 0
 48 369 83 469 154 556 c 0
 191 602 221 627 295 676 c 1
EndSplineSet
Validated: 1
EndChar

StartChar: parenright
Encoding: 9 41 10
Width: 333
GlyphClass: 2
Flags: MW
HStem: 656 20<41 41>
VStem: 199 86<191.5 294.5>
LayerCount: 2
Fore
SplineSet
38 -177 m 1
 29 -161 l 1
 101 -103 132 -67 159 -4 c 0
 186 56 199 139 199 244 c 0
 199 345 188 420 164 487 c 0
 136 562 109 597 29 660 c 1
 41 676 l 1
 93 644 119 622 160 574 c 0
 248 472 285 375 285 247 c 0
 285 130 250 30 179 -57 c 0
 142 -103 112 -128 38 -177 c 1
EndSplineSet
Validated: 1
EndChar

StartChar: asterisk
Encoding: 10 42 11
Width: 500
GlyphClass: 2
Flags: MW
HStem: 656 20<241 261>
LayerCount: 2
Fore
SplineSet
241 449 m 2
 240 456 l 1
 204 432 199 428 189 420 c 0
 181 412 176 407 147 375 c 0
 130 356 121 351 105 351 c 0
 82 351 69 364 69 385 c 0
 69 411 86 423 131 431 c 0
 177 440 193 446 234 471 c 1
 223 478 l 2
 204 491 174 501 137 508 c 0
 88 517 69 530 69 555 c 0
 69 576 83 591 103 591 c 0
 119 591 131 583 151 559 c 0
 183 523 203 507 241 486 c 1
 241 499 l 2
 241 524 236 555 226 590 c 0
 220 611 216 630 216 641 c 0
 216 661 231 676 251 676 c 0
 271 676 287 660 287 640 c 1
 260 510 l 1
 260 484 l 1
 267 488 l 2
 290 501 315 523 339 552 c 0
 363 580 380 593 395 593 c 0
 417 593 431 577 431 554 c 0
 431 528 419 518 380 512 c 0
 337 505 317 498 268 470 c 1
 276 465 l 2
 302 449 335 437 373 431 c 0
 417 424 432 413 432 387 c 0
 432 365 418 350 397 350 c 0
 379 350 362 362 337 393 c 0
 311 426 289 444 267 453 c 2
 260 456 l 1
 260 449 l 2
 260 410 267 372 280 337 c 0
 285 323 288 311 288 305 c 0
 288 284 270 265 249 265 c 0
 230 265 214 282 214 301 c 0
 214 312 218 329 225 348 c 0
 237 380 243 406 243 432 c 0
 243 434 242 440 241 449 c 2
EndSplineSet
Validated: 1
EndChar

StartChar: plus
Encoding: 11 43 12
Width: 564
GlyphClass: 2
Flags: MW
HStem: 280 53<37 256 37 256 309 528>
VStem: 256 53<60 280 60 280 333 553>
LayerCount: 2
Fore
SplineSet
256 333 m 1
 256 553 l 1
 309 553 l 1
 309 333 l 1
 528 333 l 1
 528 280 l 1
 309 280 l 1
 309 60 l 1
 256 60 l 1
 256 280 l 1
 37 280 l 1
 37 333 l 1
 256 333 l 1
EndSplineSet
Validated: 1
EndChar

StartChar: comma
Encoding: 12 44 13
Width: 250
GlyphClass: 2
Flags: MW
HStem: -6 20 -2 104<97.5 146>
VStem: 156 39<-17 -12>
LayerCount: 2
Fore
SplineSet
83 -141 m 1x60
 74 -122 l 1
 128 -85 156 -48 156 -16 c 0
 156 -8 150 -2 142 -2 c 0x60
 141 -2 140 -2 135 -4 c 0
 129 -5 122 -6 115 -6 c 0xa0
 78 -6 56 13 56 45 c 0
 56 79 80 102 115 102 c 0
 160 102 195 63 195 13 c 0
 195 -47 150 -108 83 -141 c 1x60
EndSplineSet
Validated: 1
EndChar

StartChar: hyphen
Encoding: 13 45 14
Width: 333
GlyphClass: 2
Flags: MW
HStem: 194 63<39 285 39 285>
VStem: 39 246<194 257 194 257>
LayerCount: 2
Fore
SplineSet
39 257 m 1
 285 257 l 1
 285 194 l 1
 39 194 l 1
 39 257 l 1
EndSplineSet
Validated: 1
EndChar

StartChar: period
Encoding: 14 46 15
Width: 250
GlyphClass: 2
Flags: MW
HStem: -11 111<110 139.5>
VStem: 70 111<28.5 58.5 28 59>
LayerCount: 2
Fore
SplineSet
125 100 m 0
 155 100 181 74 181 43 c 0
 181 13 155 -11 124 -11 c 0
 95 -11 70 14 70 43 c 0
 70 75 95 100 125 100 c 0
EndSplineSet
Validated: 1
EndChar

StartChar: slash
Encoding: 15 47 16
Width: 278
GlyphClass: 2
Flags: MW
HStem: -14 20 656 20<233 278 278 278>
LayerCount: 2
Fore
SplineSet
278 676 m 1
 50 -14 l 1
 4 -14 l 1
 233 676 l 1
 278 676 l 1
EndSplineSet
Validated: 1
EndChar

StartChar: zero
Encoding: 16 48 17
Width: 500
GlyphClass: 2
Flags: MW
HStem: -14 26<221 275.5> 650 26<226.5 293>
VStem: 24 96<281 394.5> 380 96<269.5 432.5 269.5 432.5>
LayerCount: 2
Fore
SplineSet
254 676 m 0
 385 676 476 535 476 330 c 0
 476 209 438 93 380 38 c 0
 344 3 301 -14 250 -14 c 0
 192 -14 141 10 104 54 c 0
 57 110 24 226 24 336 c 0
 24 453 62 568 120 624 c 0
 157 660 199 676 254 676 c 0
251 650 m 0
 165 650 120 540 120 327 c 0
 120 119 164 12 250 12 c 0
 336 12 380 119 380 328 c 0
 380 537 335 650 251 650 c 0
EndSplineSet
Validated: 1
EndChar

StartChar: one
Encoding: 17 49 18
Width: 500
GlyphClass: 2
Flags: MW
HStem: 0 20 656 20<291 291>
VStem: 213 86<93 546 546 562>
LayerCount: 2
Fore
SplineSet
118 0 m 1
 118 15 l 1
 194 16 211 30 213 93 c 2
 213 546 l 2
 213 578 204 593 183 593 c 0
 174 593 150 586 111 571 c 1
 111 585 l 1
 291 676 l 1
 299 674 l 1
 299 74 l 2
 300 26 317 15 394 15 c 1
 394 0 l 1
 118 0 l 1
EndSplineSet
Validated: 1
EndChar

StartChar: two
Encoding: 18 50 19
Width: 500
GlyphClass: 2
Flags: MW
HStem: 0 76<128 367 128 420> 602 74<211.5 239.5>
VStem: 338 86<460.5 503>
LayerCount: 2
Fore
SplineSet
475 137 m 1
 420 0 l 1
 30 0 l 1
 30 12 l 1
 208 201 l 2
 292 290 338 382 338 461 c 0
 338 545 282 602 197 602 c 0
 127 602 92 570 52 472 c 1
 31 477 l 1
 48 548 63 580 95 614 c 0
 132 654 184 676 239 676 c 0
 343 676 424 599 424 500 c 0
 424 421 385 345 296 252 c 2
 128 76 l 1
 367 76 l 2
 414 77 425 84 462 142 c 1
 475 137 l 1
EndSplineSet
Validated: 1
EndChar

StartChar: three
Encoding: 19 51 20
Width: 500
GlyphClass: 2
Flags: MW
HStem: -14 36<121 266> 616 60<216 241>
VStem: 318 79<512 541> 359 72<185.5 205.5>
LayerCount: 2
Fore
SplineSet
153 330 m 1xd0
 152 343 l 1
 220 367 248 382 278 412 c 0
 303 438 318 473 318 509 c 0
 318 573 274 616 208 616 c 0
 145 616 100 584 60 510 c 1
 45 514 l 1
 66 574 81 600 111 627 c 0
 147 659 191 676 241 676 c 0
 334 676 397 621 397 539 c 0xe0
 397 485 372 448 304 401 c 1
 347 382 366 370 387 348 c 0
 415 317 431 271 431 219 c 0
 431 152 406 94 359 53 c 0
 311 12 232 -14 156 -14 c 0
 86 -14 43 8 43 43 c 0
 43 64 58 78 81 78 c 0
 98 78 115 71 144 53 c 0
 181 29 201 22 229 22 c 0
 303 22 359 86 359 171 c 0
 359 240 321 296 258 319 c 0
 235 328 212 330 153 330 c 1xd0
EndSplineSet
Validated: 1
EndChar

StartChar: four
Encoding: 20 52 21
Width: 500
GlyphClass: 2
Flags: MW
HStem: 0 20 167 64<52 292 12 12 370 472> 656 20<326 370 370 370>
VStem: 292 78<231 574 574 574> 293 77<0 167 0 167>
LayerCount: 2
Fore
SplineSet
472 231 m 1xe8
 472 167 l 1
 370 167 l 1
 370 0 l 1xf0
 293 0 l 1
 293 167 l 1
 12 167 l 1
 12 231 l 1
 326 676 l 1
 370 676 l 1
 370 231 l 1
 472 231 l 1xe8
292 231 m 1
 292 574 l 1
 52 231 l 1
 292 231 l 1
EndSplineSet
Validated: 1
EndChar

StartChar: five
Encoding: 21 53 22
Width: 500
GlyphClass: 2
Flags: MW
HStem: -14 37<116 256.5> 583 79<181 181 181 377>
VStem: 356 70<204 244>
LayerCount: 2
Fore
SplineSet
181 583 m 1
 139 498 l 1
 257 477 314 454 358 410 c 0
 407 360 426 314 426 242 c 0
 426 166 405 109 360 64 c 0
 309 13 237 -14 154 -14 c 0
 78 -14 32 10 32 48 c 0
 32 73 46 85 74 85 c 0
 97 85 119 76 151 52 c 0
 181 30 197 23 217 23 c 0
 296 23 356 98 356 194 c 0
 356 294 304 355 189 392 c 0
 147 405 108 412 76 412 c 0
 68 412 64 414 64 420 c 0
 64 422 64 423 65 425 c 2
 174 662 l 1
 383 662 l 2
 405 662 414 668 429 688 c 1
 438 681 l 1
 400 592 l 2
 397 584 394 583 377 583 c 2
 181 583 l 1
EndSplineSet
Validated: 1
EndChar

StartChar: six
Encoding: 22 54 23
Width: 500
GlyphClass: 2
Flags: MW
HStem: -14 28<227 304 225 320> 382 46<257 285.5>
VStem: 34 93<235.5 288.5 185.5 346> 378 90<150 247.5>
LayerCount: 2
Fore
SplineSet
446 684 m 1
 448 668 l 1
 291 642 179 534 152 383 c 1
 215 421 235 428 279 428 c 0
 396 428 468 348 468 219 c 0
 468 81 382 -14 258 -14 c 0
 196 -14 142 10 104 54 c 0
 61 104 34 192 34 279 c 0
 34 413 93 527 201 604 c 0
 274 655 332 674 446 684 c 1
242 382 m 0
 207 382 176 373 155 357 c 0
 135 342 127 314 127 263 c 0
 127 108 181 14 269 14 c 0
 339 14 378 75 378 185 c 0
 378 310 329 382 242 382 c 0
EndSplineSet
Validated: 1
EndChar

StartChar: seven
Encoding: 23 55 24
Width: 500
GlyphClass: 2
Flags: MW
HStem: -8 20 588 74<159 376 159 159>
LayerCount: 2
Fore
SplineSet
455 662 m 1
 455 646 l 1
 243 -8 l 1
 178 -8 l 1
 376 588 l 1
 159 588 l 2
 103 587 84 574 43 507 c 1
 26 515 l 1
 85 662 l 1
 455 662 l 1
EndSplineSet
Validated: 1
EndChar

StartChar: eight
Encoding: 24 56 25
Width: 500
GlyphClass: 2
Flags: MW
HStem: -14 28<221 291.5 221 308> 648 28<212.5 278>
VStem: 56 76<115 185.5> 62 74<521 563.5> 355 69<504.5 569.5> 369 76<103.5 152>
LayerCount: 2
Fore
SplineSet
290 371 m 1xd8
 411 280 445 233 445 155 c 0
 445 52 368 -14 248 -14 c 0
 134 -14 56 53 56 151 c 0xe4
 56 220 77 249 186 332 c 1
 81 424 62 453 62 518 c 0
 62 609 143 676 252 676 c 0
 353 676 424 617 424 534 c 0
 424 466 389 424 290 371 c 1xd8
272 268 m 2
 212 312 l 1
 153 264 132 223 132 158 c 0
 132 72 183 14 259 14 c 0
 324 14 369 59 369 124 c 0
 369 180 345 216 272 268 c 2
261 389 m 1xd8
 329 433 355 474 355 535 c 0
 355 604 312 648 244 648 c 0
 181 648 136 607 136 549 c 0
 136 493 172 447 261 389 c 1xd8
EndSplineSet
Validated: 1
EndChar

StartChar: nine
Encoding: 25 57 26
Width: 500
GlyphClass: 2
Flags: MW
HStem: 237 43<208 237.5> 648 28<215.5 273.5>
VStem: 30 92<414.5 502.5 414.5 507.5>
LayerCount: 2
Fore
SplineSet
59 -22 m 1
 56 -2 l 1
 208 24 319 131 360 294 c 1
 307 253 265 237 210 237 c 0
 102 237 30 318 30 440 c 0
 30 575 119 676 238 676 c 0
 368 676 459 559 459 394 c 0
 459 259 398 135 294 59 c 0
 226 10 171 -9 59 -22 c 1
362 355 m 2
 362 394 l 2
 362 562 317 648 230 648 c 0
 201 648 176 637 159 617 c 0
 138 591 122 531 122 474 c 0
 122 355 170 280 246 280 c 0
 282 280 319 294 347 317 c 0
 358 326 362 335 362 355 c 2
EndSplineSet
Validated: 1
EndChar

StartChar: colon
Encoding: 26 58 27
Width: 278
GlyphClass: 2
Flags: MW
HStem: -11 111<121 150.5> 348 111<121 150.5>
VStem: 81 111<28.5 58.5 28 59 387.5 417.5>
LayerCount: 2
Fore
SplineSet
136 459 m 0
 166 459 192 433 192 402 c 0
 192 372 166 348 135 348 c 0
 106 348 81 373 81 402 c 0
 81 434 106 459 136 459 c 0
136 100 m 0
 166 100 192 74 192 43 c 0
 192 13 166 -11 135 -11 c 0
 106 -11 81 14 81 43 c 0
 81 75 106 100 136 100 c 0
EndSplineSet
Validated: 1
EndChar

StartChar: semicolon
Encoding: 27 59 28
Width: 278
GlyphClass: 2
Flags: MW
HStem: -6 20 -2 104<121 170> 348 111<121 150.5>
VStem: 81 111<387.5 417.5 387.5 418> 180 39<-17 -12>
LayerCount: 2
Fore
SplineSet
107 -141 m 1x48
 98 -122 l 1
 152 -85 180 -48 180 -16 c 0
 180 -8 174 -2 166 -2 c 0x68
 165 -2 164 -2 159 -4 c 0
 153 -5 146 -6 139 -6 c 0x88
 102 -6 80 13 80 46 c 0
 80 80 103 102 139 102 c 0
 184 102 219 64 219 13 c 0
 219 -47 176 -107 107 -141 c 1x48
136 459 m 0
 166 459 192 433 192 402 c 0
 192 373 166 348 135 348 c 0
 106 348 81 373 81 402 c 0x70
 81 434 106 459 136 459 c 0
EndSplineSet
Validated: 1
EndChar

StartChar: less
Encoding: 28 60 29
Width: 564
GlyphClass: 2
Flags: W
LayerCount: 2
Fore
SplineSet
530 54 m 1
 35 277 l 1
 35 335 l 1
 530 559 l 1
 530 501 l 1
 100 306 l 1
 530 111 l 1
 530 54 l 1
EndSplineSet
Validated: 1
EndChar

StartChar: equal
Encoding: 29 61 30
Width: 564
GlyphClass: 2
Flags: MW
HStem: 180 53<37 528 37 528> 380 53<37 528 37 528>
LayerCount: 2
Fore
SplineSet
528 433 m 1
 528 380 l 1
 37 380 l 1
 37 433 l 1
 528 433 l 1
528 233 m 1
 528 180 l 1
 37 180 l 1
 37 233 l 1
 528 233 l 1
EndSplineSet
Validated: 1
EndChar

StartChar: greater
Encoding: 30 62 31
Width: 564
GlyphClass: 2
Flags: W
LayerCount: 2
Fore
SplineSet
35 54 m 1
 35 111 l 1
 465 306 l 1
 35 501 l 1
 35 559 l 1
 530 335 l 1
 530 277 l 1
 35 54 l 1
EndSplineSet
Validated: 1
EndChar

StartChar: question
Encoding: 31 63 32
Width: 444
GlyphClass: 2
Flags: MW
HStem: -8 105<203 233 203 234> 449 20<81 109.5> 646 30<170 224.5>
VStem: 49 51<510.5 600> 165 108<28 57.5> 303 92<503 540 500.5 559.5>
LayerCount: 2
Fore
SplineSet
225 164 m 1
 208 164 l 1
 209 208 219 257 238 306 c 2
 266 370 l 2
 290 425 303 480 303 526 c 0
 303 593 255 646 194 646 c 0
 146 646 100 616 100 584 c 0
 100 575 104 567 117 553 c 0
 132 536 138 524 138 510 c 0
 138 485 122 469 97 469 c 0
 65 469 49 490 49 531 c 0
 49 614 119 676 211 676 c 0
 266 676 325 653 359 618 c 0
 382 595 395 559 395 521 c 0
 395 480 382 444 350 395 c 0
 336 374 336 374 290 318 c 0
 253 272 236 232 225 164 c 1
218 97 m 0
 248 97 273 73 273 43 c 0
 273 13 250 -8 218 -8 c 0
 187 -8 165 13 165 42 c 0
 165 73 188 97 218 97 c 0
EndSplineSet
Validated: 1
EndChar

StartChar: at
Encoding: 32 64 33
Width: 921
GlyphClass: 2
Flags: MW
HStem: -198 49<394.5 529.5> 1 42<649.5 680 649.5 703> 2 55<379 470> 408 55 637 39<386.5 573.5>
VStem: 79 64<116 343.5 116 355.5> 308 80<131 189.5> 809 45<258 388>
LayerCount: 2
Fore
SplineSet
718 -87 m 1xdf
 732 -125 l 1
 622 -182 568 -198 491 -198 c 0
 258 -198 79 -11 79 232 c 0
 79 479 260 676 487 676 c 0
 694 676 854 514 854 305 c 0
 854 141 759 1 647 1 c 0xdf
 594 1 553 38 546 94 c 1
 509 37 456 2 407 2 c 0x27
 351 2 308 64 308 143 c 0
 308 236 343 333 401 399 c 0
 439 443 478 463 528 463 c 0
 567 463 583 450 608 398 c 1
 619 446 l 1
 696 446 l 1
 623 124 l 2
 622 117 621 109 621 101 c 0
 621 62 635 43 664 43 c 0
 696 43 722 60 750 98 c 0
 787 149 809 223 809 293 c 0
 809 483 663 637 484 637 c 0
 289 637 143 461 143 226 c 0
 143 6 290 -149 499 -149 c 0
 574 -149 632 -133 718 -87 c 1xdf
544 408 m 0
 516 410 477 385 445 344 c 0
 409 297 388 231 388 164 c 0
 388 98 414 57 455 57 c 0x37
 485 57 518 86 539 130 c 0
 568 191 589 275 589 327 c 0
 589 380 575 405 544 408 c 0
EndSplineSet
Validated: 33
EndChar

StartChar: A
Encoding: 33 65 34
Width: 722
GlyphClass: 2
Flags: MW
HStem: 0 20 216 41<216 447 216 461 199 447> 654 20<347 367 367 367>
LayerCount: 2
Fore
SplineSet
706 19 m 1
 706 0 l 1
 451 0 l 1
 451 19 l 1
 504 20 521 28 521 53 c 0
 521 67 514 93 502 120 c 2
 461 216 l 1
 199 216 l 1
 153 99 l 2
 148 86 145 72 145 60 c 0
 145 31 165 19 213 19 c 1
 213 0 l 1
 15 0 l 1
 15 19 l 1
 63 21 75 37 139 183 c 2
 347 674 l 1
 367 674 l 1
 616 106 l 2
 651 32 661 22 706 19 c 1
216 257 m 1
 447 257 l 1
 331 532 l 1
 216 257 l 1
EndSplineSet
Validated: 1
EndChar

StartChar: B
Encoding: 34 66 35
Width: 667
GlyphClass: 2
Flags: MW
HStem: 0 37<253.5 311 253.5 351> 642 20<17 297 297 383>
VStem: 113 102<109 326 365 553 553 553> 457 102<471 532.5> 478 115<156 202 156 210>
LayerCount: 2
Fore
SplineSet
17 643 m 1xe8
 17 662 l 1
 297 662 l 2
 469 662 559 604 559 492 c 0xf0
 559 450 544 414 519 392 c 0
 495 371 474 361 422 348 c 1
 487 332 514 320 544 293 c 0
 576 264 593 224 593 180 c 0
 593 132 573 87 537 55 c 0
 500 21 428 0 351 0 c 2
 17 0 l 1
 17 19 l 1
 99 22 112 34 113 109 c 2
 113 553 l 2
 112 628 101 638 17 643 c 1xe8
215 326 m 1
 215 78 l 2
 215 46 229 37 278 37 c 0
 344 37 385 45 417 63 c 0
 457 86 478 125 478 179 c 0xe8
 478 241 451 282 394 305 c 0
 358 320 312 326 215 326 c 1
215 365 m 1
 310 366 l 2
 406 367 457 409 457 488 c 0xf0
 457 577 392 628 281 625 c 2
 237 624 l 2
 220 623 216 617 215 595 c 2
 215 365 l 1
EndSplineSet
Validated: 33
EndChar

StartChar: C
Encoding: 35 67 36
Width: 667
GlyphClass: 2
Flags: MW
HStem: -14 44<360.5 416.5> 636 40<322 386.5 322 410.5>
VStem: 28 116<282.5 381>
LayerCount: 2
Fore
SplineSet
620 451 m 1
 597 451 l 1
 578 516 563 544 531 576 c 0
 491 615 439 636 382 636 c 0
 237 636 144 520 144 338 c 4
 144 227 175 137 230 88 c 4
 273 50 329 30 392 30 c 4
 475 30 541 60 615 131 c 5
 633 113 l 5
 573 32 473 -14 360 -14 c 4
 161 -14 28 122 28 326 c 4
 28 436 66 528 136 590 c 0
 199 645 281 676 363 676 c 0
 410 676 460 668 509 651 c 0
 524 646 539 643 548 643 c 0
 568 643 584 655 590 676 c 1
 611 676 l 1
 620 451 l 1
EndSplineSet
Validated: 1
EndChar

StartChar: D
Encoding: 36 68 37
Width: 722
GlyphClass: 2
Flags: MW
HStem: 0 37<238 300> 625 37<237 286 286 301.5>
VStem: 104 102<109 553 553 553> 576 109<285.5 379 285.5 381>
LayerCount: 2
Fore
SplineSet
16 0 m 1
 16 19 l 1
 91 24 103 36 104 109 c 2
 104 553 l 2
 103 628 95 636 16 643 c 1
 16 662 l 1
 286 662 l 2
 423 662 532 626 600 557 c 0
 656 502 685 424 685 334 c 0
 685 237 648 148 583 89 c 0
 521 33 416 0 300 0 c 2
 16 0 l 1
206 586 m 2
 206 78 l 2
 206 46 218 37 258 37 c 0
 345 37 403 49 454 78 c 0
 535 125 576 209 576 327 c 0
 576 435 535 521 457 575 c 0
 409 609 345 625 258 625 c 0
 216 625 206 617 206 586 c 2
EndSplineSet
Validated: 1
EndChar

StartChar: E
Encoding: 37 69 38
Width: 611
GlyphClass: 2
Flags: MW
HStem: 0 20 327 41<201 355 201 355> 624 38<220 234 234 369>
VStem: 99 102<109 327 368 553 553 553>
LayerCount: 2
Fore
SplineSet
597 169 m 5
 552 0 l 5
 12 0 l 5
 12 19 l 5
 84 23 97 37 99 109 c 6
 99 553 l 6
 97 625 85 638 12 643 c 5
 12 662 l 5
 543 662 l 5
 546 519 l 5
 521 519 l 5
 505 608 485 622 369 624 c 6
 234 624 l 6
 206 624 202 620 201 590 c 6
 201 368 l 5
 355 368 l 6
 439 370 453 382 465 463 c 5
 488 463 l 5
 488 231 l 5
 465 231 l 5
 452 313 439 325 355 327 c 6
 201 327 l 5
 201 80 l 6
 201 41 202 40 306 37 c 6
 333 37 l 6
 476 38 521 63 569 169 c 5
 597 169 l 5
EndSplineSet
Validated: 1
EndChar

StartChar: F
Encoding: 38 70 39
Width: 556
GlyphClass: 2
Flags: MW
HStem: 0 20 327 41<201 346 201 346> 624 38<233 369 233 233>
VStem: 99 102<120 327 109 368 368 553 553 553>
LayerCount: 2
Fore
SplineSet
479 231 m 1
 456 231 l 1
 444 312 428 326 346 327 c 2
 201 327 l 1
 201 109 l 2
 202 36 216 22 292 19 c 1
 292 0 l 1
 12 0 l 1
 12 19 l 1
 88 24 98 35 99 120 c 2
 99 553 l 2
 97 625 85 638 12 643 c 1
 12 662 l 1
 543 662 l 1
 546 519 l 1
 521 519 l 1
 505 608 485 622 369 624 c 2
 233 624 l 2
 205 623 202 620 201 590 c 2
 201 368 l 1
 346 368 l 2
 428 370 445 384 456 463 c 1
 479 463 l 1
 479 231 l 1
EndSplineSet
Validated: 1
EndChar

StartChar: G
Encoding: 39 71 40
Width: 722
GlyphClass: 2
Flags: MW
HStem: -14 40<333 431.5> 636 40<358 397.5 275 420>
VStem: 32 114<276 373 233 427> 542 97<85 247 247 247>
LayerCount: 2
Fore
SplineSet
709 354 m 1
 709 336 l 1
 652 332 641 320 639 259 c 2
 639 56 l 1
 599 21 475 -14 388 -14 c 0
 278 -14 181 24 115 93 c 0
 59 152 32 227 32 325 c 0
 32 529 175 676 375 676 c 4
 420 676 466 668 511 653 c 4
 529 647 545 643 555 643 c 4
 576 643 594 656 600 676 c 5
 622 676 l 5
 630 465 l 5
 607 465 l 5
 582 526 566 552 536 581 c 4
 498 617 448 636 392 636 c 4
 324 636 262 609 218 560 c 0
 174 511 146 420 146 326 c 0
 146 140 246 26 409 26 c 0
 482 26 542 53 542 85 c 2
 542 247 l 2
 540 323 532 331 454 336 c 1
 454 354 l 1
 709 354 l 1
EndSplineSet
Validated: 1
EndChar

StartChar: H
Encoding: 40 72 41
Width: 722
GlyphClass: 2
Flags: MW
HStem: 0 20 315 44<209 512 209 512> 642 20<19 297 297 297 424 702 702 702>
VStem: 107 102<120 315 359 553> 512 102<120 315 315 315 359 553 109 553>
LayerCount: 2
Fore
SplineSet
19 0 m 1
 19 19 l 1
 97 24 106 35 107 120 c 2
 107 553 l 2
 106 627 96 637 19 643 c 1
 19 662 l 1
 297 662 l 1
 297 643 l 1
 220 636 210 626 209 553 c 2
 209 359 l 1
 512 359 l 1
 512 553 l 2
 511 627 501 637 424 643 c 1
 424 662 l 1
 702 662 l 1
 702 643 l 1
 625 636 615 626 614 553 c 2
 614 109 l 2
 615 37 627 25 702 19 c 1
 702 0 l 1
 424 0 l 1
 424 19 l 1
 502 24 511 35 512 120 c 2
 512 315 l 1
 209 315 l 1
 209 109 l 2
 210 37 222 25 297 19 c 1
 297 0 l 1
 19 0 l 1
EndSplineSet
Validated: 1
EndChar

StartChar: I
Encoding: 41 73 42
Width: 333
GlyphClass: 2
Flags: MW
HStem: 0 20 642 20<18 315 315 315>
VStem: 115 102<109 553 109 553>
LayerCount: 2
Fore
SplineSet
18 0 m 5
 18 19 l 5
 102 22 114 33 115 109 c 6
 115 553 l 6
 114 628 103 638 18 643 c 5
 18 662 l 5
 315 662 l 5
 315 643 l 5
 232 640 219 628 217 553 c 6
 217 109 l 6
 219 35 233 21 315 19 c 5
 315 0 l 5
 18 0 l 5
EndSplineSet
Validated: 1
EndChar

StartChar: j
Encoding: 42 74 43
Width: 389
GlyphClass: 2
Flags: MW
HStem: -14 38<137 157 137 169> 642 20<89 376 376 376>
VStem: 182 102<120.5 183 183 553>
LayerCount: 2
Fore
SplineSet
376 662 m 1
 376 643 l 1
 295 637 286 628 284 553 c 2
 284 183 l 2
 284 58 223 -14 115 -14 c 0
 57 -14 16 16 16 58 c 0
 16 85 38 108 65 108 c 0
 91 108 107 92 117 57 c 0
 124 32 130 24 144 24 c 0
 170 24 182 45 182 90 c 2
 182 553 l 2
 181 627 170 637 89 643 c 1
 89 662 l 1
 376 662 l 1
EndSplineSet
Validated: 1
EndChar

StartChar: K
Encoding: 43 75 44
Width: 722
GlyphClass: 2
Flags: MW
HStem: 0 20<436.5 439 436.5 716> 642 20<27 311 311 311 406 668 668 668>
VStem: 117 102<120 296 109 348 348 553>
LayerCount: 2
Fore
SplineSet
406 643 m 1
 406 662 l 1
 668 662 l 1
 668 643 l 1
 600 638 584 630 516 565 c 2
 326 377 l 1
 559 127 l 2
 650 30 664 20 716 19 c 1
 716 0 l 1
 411 0 l 1
 411 19 l 1
 423 20 434 20 439 20 c 0
 468 21 481 28 481 42 c 0
 481 66 427 136 351 212 c 2
 245 317 l 1
 219 296 l 1
 219 109 l 2
 220 35 232 24 309 19 c 1
 309 0 l 1
 27 0 l 1
 27 19 l 1
 105 24 116 35 117 120 c 2
 117 553 l 2
 115 626 104 638 27 643 c 1
 27 662 l 1
 311 662 l 1
 311 643 l 1
 230 637 220 628 219 553 c 2
 219 348 l 1
 396 509 l 2
 451 560 474 590 474 612 c 0
 474 636 466 640 406 643 c 1
EndSplineSet
Validated: 1
EndChar

StartChar: L
Encoding: 44 76 45
Width: 611
GlyphClass: 2
Flags: MW
HStem: 0 39<287 354 287 550> 642 20<12 294 294 294>
VStem: 99 102<109 553 80 553>
LayerCount: 2
Fore
SplineSet
294 662 m 1
 294 643 l 1
 216 639 203 626 201 553 c 2
 201 80 l 2
 202 44 210 41 287 39 c 2
 354 39 l 1
 483 43 526 69 573 174 c 1
 598 174 l 1
 550 0 l 1
 12 0 l 1
 12 19 l 1
 84 23 97 37 99 109 c 2
 99 553 l 2
 97 625 85 638 12 643 c 1
 12 662 l 1
 294 662 l 1
EndSplineSet
Validated: 1
EndChar

StartChar: M
Encoding: 45 77 46
Width: 889
GlyphClass: 2
Flags: MW
HStem: 0 20 642 20<14 212 212 212 664 863 863 863>
VStem: 109 44<147 550 147 553 147 553> 674 102<120 553 109 573 109 573>
LayerCount: 2
Fore
SplineSet
863 662 m 1
 863 643 l 1
 790 638 778 625 776 553 c 2
 776 109 l 2
 778 37 791 23 863 19 c 1
 863 0 l 1
 583 0 l 1
 583 19 l 1
 662 24 673 35 674 120 c 2
 674 573 l 1
 418 0 l 1
 404 0 l 1
 153 550 l 1
 153 147 l 2
 155 44 170 23 247 19 c 1
 247 0 l 1
 12 0 l 1
 12 19 l 1
 94 24 107 41 109 147 c 2
 109 553 l 2
 107 628 96 639 14 643 c 1
 14 662 l 1
 212 662 l 1
 443 157 l 1
 664 662 l 1
 863 662 l 1
EndSplineSet
Validated: 1
EndChar

StartChar: N
Encoding: 46 78 47
Width: 722
GlyphClass: 2
Flags: MW
HStem: -11 20 0 20 642 20<12 183 183 183 472 707 707 707>
VStem: 109 44<147 539 147 588> 568 44<178 515 -11 515>
LayerCount: 2
Fore
SplineSet
707 662 m 1x78
 707 643 l 1
 628 636 615 619 612 515 c 2
 612 -11 l 1
 595 -11 l 1xb8
 153 539 l 1
 153 147 l 2
 155 44 170 23 247 19 c 1
 247 0 l 1
 12 0 l 1
 12 19 l 1
 94 24 107 41 109 147 c 2
 109 588 l 1
 69 635 55 643 12 643 c 1
 12 662 l 1
 183 662 l 1
 568 178 l 1
 568 515 l 2
 565 621 552 638 472 643 c 1
 472 662 l 1
 707 662 l 1x78
EndSplineSet
Validated: 1
EndChar

StartChar: O
Encoding: 47 79 48
Width: 722
GlyphClass: 2
Flags: MW
HStem: -14 36<336 385.5 336 453.5> 640 36<333.5 384>
VStem: 34 114<284 380 273.5 432> 574 114<298.5 376.5 226 387.5>
LayerCount: 2
Fore
SplineSet
361 676 m 4
 457 676 541 640 604 571 c 4
 659 512 688 426 688 327 c 4
 688 125 552 -14 355 -14 c 4
 267 -14 178 25 120 88 c 4
 66 145 34 237 34 331 c 4
 34 533 170 676 361 676 c 4
361 640 m 4
 306 640 257 618 218 575 c 4
 176 528 148 431 148 329 c 4
 148 218 181 117 232 71 c 4
 268 40 313 22 359 22 c 4
 412 22 457 40 492 75 c 4
 515 98 532 123 541 148 c 4
 561 200 574 269 574 328 c 4
 574 447 543 541 489 590 c 4
 453 622 407 640 361 640 c 4
EndSplineSet
Validated: 1
EndChar

StartChar: P
Encoding: 48 80 49
Width: 556
GlyphClass: 2
Flags: MW
HStem: 0 20 288 40<258 310.5> 625 37<222.5 280 280 303.5>
VStem: 100 102<120 291 109 331 331 553 553 553> 433 109<448 502 448 526.5>
LayerCount: 2
Fore
SplineSet
16 643 m 1
 16 662 l 1
 280 662 l 2
 374 662 461 634 501 590 c 0
 528 561 542 523 542 481 c 0
 542 415 506 354 446 322 c 0
 403 298 350 288 271 288 c 0
 245 288 228 289 202 291 c 1
 202 109 l 2
 203 35 217 21 296 19 c 1
 296 0 l 1
 16 0 l 1
 16 19 l 1
 92 26 99 35 100 120 c 2
 100 553 l 2
 99 626 90 635 16 643 c 1
202 591 m 2
 202 331 l 1
 225 329 239 328 259 328 c 0
 374 328 433 378 433 475 c 0
 433 578 371 625 236 625 c 0
 209 625 202 618 202 591 c 2
EndSplineSet
Validated: 1
EndChar

StartChar: Q
Encoding: 49 81 50
Width: 722
GlyphClass: 2
Flags: MW
HStem: 640 36<335 385.5>
VStem: 34 114<280 383 276 430.5> 574 114<283.5 389.5>
LayerCount: 2
Fore
SplineSet
701 -159 m 1
 701 -177 l 1
 695 -177 l 2
 685 -178 674 -178 661 -178 c 0
 501 -178 380 -136 312 -56 c 2
 265 -1 l 1
 194 23 162 43 123 85 c 0
 64 149 34 231 34 329 c 0
 34 532 170 676 361 676 c 0
 552 676 688 533 688 331 c 0
 688 220 650 129 576 63 c 0
 530 23 494 6 426 -7 c 1
 507 -112 587 -156 701 -159 c 1
364 640 m 0
 306 640 258 619 218 575 c 0
 177 529 148 431 148 335 c 0
 148 217 180 118 232 71 c 0
 269 39 313 22 361 22 c 0
 416 22 468 45 505 86 c 0
 545 132 574 234 574 333 c 0
 574 446 542 542 488 590 c 0
 453 621 407 640 364 640 c 0
EndSplineSet
Validated: 1
EndChar

StartChar: R
Encoding: 50 82 51
Width: 667
GlyphClass: 2
Flags: MW
HStem: 0 20 625 37<235 293 293 317.5>
VStem: 102 102<120 306 109 343 343 553 553 553> 438 109<463 507.5 440 535>
LayerCount: 2
Fore
SplineSet
659 19 m 1
 659 0 l 1
 498 0 l 1
 260 308 l 1
 204 306 l 1
 204 109 l 2
 205 36 217 24 294 19 c 1
 294 0 l 1
 17 0 l 1
 17 19 l 1
 92 25 101 35 102 120 c 2
 102 553 l 2
 101 626 91 635 17 643 c 1
 17 662 l 1
 293 662 l 2
 387 662 470 636 508 595 c 0
 534 566 547 529 547 486 c 0
 547 394 493 344 366 319 c 1
 572 66 l 2
 601 32 621 22 659 19 c 1
204 589 m 2
 204 343 l 1
 300 345 335 351 381 377 c 0
 417 396 438 438 438 488 c 0
 438 582 380 625 255 625 c 0
 215 625 204 617 204 589 c 2
EndSplineSet
Validated: 1
EndChar

StartChar: S
Encoding: 51 83 52
Width: 556
GlyphClass: 2
Flags: MW
HStem: -14 36<267.5 303.5 222 345> 0 20<114.5 127.5> 635 41<230 259.5 222 283.5> 642 20
VStem: 71 86<515.5 531> 390 101<116.5 146.5>
LayerCount: 2
Fore
SplineSet
447 676 m 1x2c
 469 463 l 1
 444 463 l 1
 428 522 414 548 383 580 c 0
 348 616 306 635 261 635 c 0
 199 635 157 598 157 543 c 0
 157 488 199 444 304 387 c 0
 436 315 491 250 491 168 c 0
 491 65 403 -14 287 -14 c 0xac
 248 -14 207 -6 169 9 c 0
 150 16 133 20 122 20 c 0x4c
 107 20 95 6 94 -13 c 1
 72 -13 l 1
 42 199 l 1
 65 199 l 1
 115 77 177 22 267 22 c 0
 340 22 390 68 390 134 c 0
 390 159 385 180 376 193 c 0
 351 231 299 271 227 310 c 0
 115 369 71 425 71 505 c 0
 71 557 89 599 124 630 c 0
 157 659 201 676 243 676 c 0xac
 276 676 313 668 350 654 c 0
 367 646 384 642 394 642 c 0x1c
 411 642 422 653 426 676 c 1
 447 676 l 1x2c
EndSplineSet
Validated: 1
EndChar

StartChar: T
Encoding: 52 84 53
Width: 611
GlyphClass: 2
Flags: MW
HStem: 0 20 620 42<200 254 200 200 356 356 356 410>
VStem: 254 102<120 620 109 620>
LayerCount: 2
Fore
SplineSet
452 19 m 1
 452 0 l 1
 160 0 l 1
 160 19 l 1
 244 24 253 34 254 120 c 2
 254 620 l 1
 200 620 l 2
 85 618 64 601 41 492 c 1
 17 492 l 1
 23 662 l 1
 587 662 l 1
 593 492 l 1
 569 492 l 1
 547 601 526 618 410 620 c 2
 356 620 l 1
 356 109 l 2
 357 36 370 23 452 19 c 1
EndSplineSet
Validated: 1
EndChar

StartChar: U
Encoding: 53 85 54
Width: 722
GlyphClass: 2
Flags: MW
HStem: -14 44<342.5 409.5> 642 20<14 297 297 297 473 705 705 705>
VStem: 104 102<241 553> 567 44<245 254 254 515>
LayerCount: 2
Fore
SplineSet
705 662 m 1
 705 643 l 1
 624 634 613 620 611 515 c 2
 611 254 l 2
 611 177 602 131 578 89 c 0
 539 21 464 -14 355 -14 c 0
 185 -14 104 68 104 241 c 2
 104 553 l 2
 103 627 93 637 14 643 c 1
 14 662 l 1
 297 662 l 1
 297 643 l 1
 217 636 207 626 206 553 c 2
 206 233 l 2
 206 170 213 133 231 101 c 0
 258 54 307 30 378 30 c 0
 453 30 517 61 544 109 c 0
 560 139 567 177 567 245 c 2
 567 515 l 2
 565 618 550 638 473 643 c 1
 473 662 l 1
 705 662 l 1
EndSplineSet
Validated: 1
EndChar

StartChar: V
Encoding: 54 86 55
Width: 722
GlyphClass: 2
Flags: MW
HStem: -11 20 642 20<16 282 282 282 492 697 697 697>
LayerCount: 2
Fore
SplineSet
697 662 m 1
 697 643 l 1
 649 640 638 629 605 550 c 2
 383 -11 l 1
 368 -11 l 1
 122 538 l 2
 79 627 65 641 16 643 c 1
 16 662 l 1
 282 662 l 1
 282 643 l 1
 269 642 258 641 253 641 c 0
 221 639 207 630 207 610 c 0
 207 595 215 573 248 499 c 2
 399 161 l 1
 546 528 l 2
 558 558 565 585 565 601 c 0
 565 629 547 640 492 643 c 1
 492 662 l 1
 697 662 l 1
EndSplineSet
Validated: 1
EndChar

StartChar: w
Encoding: 55 87 56
Width: 944
GlyphClass: 2
Flags: MW
HStem: -11 20 642 20<5 250 250 250 313 580 580 580 734 932 932 932>
LayerCount: 2
Fore
SplineSet
932 662 m 1
 932 643 l 1
 879 633 868 624 849 572 c 0
 740 278 730 250 645 -11 c 1
 630 -11 l 1
 470 412 l 1
 316 -11 l 1
 301 -11 l 1
 108 526 l 2
 71 620 56 638 5 643 c 1
 5 662 l 1
 250 662 l 1
 250 643 l 1
 199 640 185 633 185 611 c 0
 185 600 189 583 196 565 c 2
 340 189 l 1
 447 471 l 1
 414 553 l 2
 380 633 370 642 313 643 c 1
 313 662 l 1
 580 662 l 1
 580 643 l 1
 526 642 503 632 503 608 c 0
 503 597 509 578 518 557 c 0
 519 554 528 532 530 527 c 2
 662 186 l 1
 787 525 l 2
 797 553 803 580 803 600 c 0
 803 627 785 638 734 643 c 1
 734 662 l 1
 932 662 l 1
EndSplineSet
Validated: 1
EndChar

StartChar: x
Encoding: 56 88 57
Width: 722
GlyphClass: 2
Flags: MW
HStem: 0 20 642 20<296 296>
LayerCount: 2
Fore
SplineSet
696 662 m 5
 696 643 l 5
 632 639 612 627 547 549 c 6
 401 367 l 5
 593 93 l 6
 636 35 651 25 704 19 c 5
 704 0 l 5
 407 0 l 5
 407 19 l 5
 419 20 430 21 434 21 c 4
 468 22 484 32 484 50 c 4
 484 65 467 98 433 148 c 6
 338 288 l 5
 219 140 l 6
 182 94 167 69 167 54 c 4
 167 31 185 23 243 19 c 5
 243 0 l 5
 10 0 l 5
 10 19 l 5
 61 23 66 27 155 133 c 6
 312 326 l 5
 203 486 l 6
 105 625 87 640 22 643 c 5
 22 662 l 5
 324 662 l 5
 324 643 l 5
 296 642 l 6
 263 641 248 633 248 613 c 4
 248 591 272 549 333 463 c 6
 375 404 l 5
 488 542 l 6
 518 578 528 596 528 611 c 4
 528 634 512 641 458 643 c 5
 458 662 l 5
 696 662 l 5
EndSplineSet
Validated: 1
EndChar

StartChar: Y
Encoding: 57 89 58
Width: 722
GlyphClass: 2
Flags: MW
HStem: 0 20 642 20<277 279>
VStem: 315 102<120 294 294 294>
LayerCount: 2
Fore
SplineSet
703 662 m 1
 703 643 l 1
 652 639 626 617 565 529 c 2
 417 303 l 1
 417 109 l 2
 418 32 431 21 520 19 c 1
 520 0 l 1
 214 0 l 1
 214 19 l 1
 305 23 314 32 315 120 c 2
 315 294 l 1
 184 486 l 2
 84 627 70 641 22 643 c 1
 22 662 l 1
 302 662 l 1
 302 643 l 1
 291 642 281 642 277 642 c 0
 245 640 231 632 231 613 c 0
 231 602 237 585 248 569 c 2
 396 347 l 1
 539 573 l 2
 549 588 553 600 553 610 c 0
 553 634 536 642 484 643 c 1
 484 662 l 1
 703 662 l 1
EndSplineSet
Validated: 1
EndChar

StartChar: Z
Encoding: 58 90 59
Width: 611
GlyphClass: 2
Flags: MW
HStem: 0 38<145 402 145 573> 624 38<225 446 225 225>
LayerCount: 2
Fore
SplineSet
574 176 m 1
 597 176 l 1
 573 0 l 1
 9 0 l 1
 9 15 l 1
 446 624 l 1
 225 624 l 2
 110 621 74 592 57 491 c 1
 31 491 l 1
 51 662 l 1
 577 662 l 1
 577 647 l 1
 145 38 l 1
 402 38 l 1
 510 42 544 69 574 176 c 1
EndSplineSet
Validated: 1
EndChar

StartChar: bracketleft
Encoding: 59 91 60
Width: 333
GlyphClass: 2
Flags: MW
HStem: -156 25<213 299 213 299> 637 25<209 299 209 209>
VStem: 88 76<-79 593 -79 662 -79 662>
LayerCount: 2
Fore
SplineSet
299 637 m 1
 209 637 l 2
 176 636 165 625 164 593 c 2
 164 -79 l 2
 165 -115 179 -130 213 -131 c 2
 299 -131 l 1
 299 -156 l 1
 88 -156 l 1
 88 662 l 1
 299 662 l 1
 299 637 l 1
EndSplineSet
Validated: 1
EndChar

StartChar: backslash
Encoding: 60 92 61
Width: 278
GlyphClass: 2
Flags: MW
HStem: -14 20 656 20<8 58 58 58>
LayerCount: 2
Fore
SplineSet
8 676 m 1
 58 676 l 1
 287 -14 l 1
 242 -14 l 1
 8 676 l 1
EndSplineSet
Validated: 1
EndChar

StartChar: bracketright
Encoding: 61 93 62
Width: 333
GlyphClass: 2
Flags: MW
HStem: -156 25<34 124 34 245 34 124> 637 25<34 120 34 245>
VStem: 169 76<-87 585 585 585>
LayerCount: 2
Fore
SplineSet
34 -131 m 1
 124 -131 l 2
 157 -130 168 -119 169 -87 c 2
 169 585 l 2
 168 621 154 636 120 637 c 2
 34 637 l 1
 34 662 l 1
 245 662 l 1
 245 -156 l 1
 34 -156 l 1
 34 -131 l 1
EndSplineSet
Validated: 1
EndChar

StartChar: asciicircum
Encoding: 62 94 63
Width: 469
GlyphClass: 2
Flags: MW
HStem: 642 20<205 265 265 265>
LayerCount: 2
Fore
SplineSet
92 297 m 1
 24 297 l 1
 205 662 l 1
 265 662 l 1
 446 297 l 1
 378 297 l 1
 235 586 l 1
 92 297 l 1
EndSplineSet
Validated: 1
EndChar

StartChar: underscore
Encoding: 63 95 64
Width: 500
GlyphClass: 2
Flags: MW
HStem: -125 50<0 500 0 500>
LayerCount: 2
Fore
SplineSet
500 -125 m 1
 0 -125 l 1
 0 -75 l 1
 500 -75 l 1
 500 -125 l 1
EndSplineSet
Validated: 1
EndChar

StartChar: grave
Encoding: 64 96 65
Width: 333
GlyphClass: 2
Flags: MW
HStem: 658 20<57.5 75.5>
LayerCount: 2
Fore
SplineSet
257 507 m 1
 217 507 l 1
 63 604 l 2
 44 616 34 631 34 647 c 0
 34 666 47 678 68 678 c 0
 83 678 92 673 110 655 c 2
 257 507 l 1
EndSplineSet
Validated: 1
EndChar

StartChar: A2
Encoding: 65 97 66
Width: 501
GlyphClass: 2
Flags: HMW
HStem: -9 45<198.5 243.5 163.5 299.5> 332 44<145 224 145 224> 625 46<231.5 244.5>
VStem: 328 110<497 544.5> 345 118<140.5 208.5 125.5 212.5>
LayerCount: 2
Fore
SplineSet
309 552 m 4xe0
 338 552 361 530 361 501 c 4
 361 472 339 450 309 450 c 4
 281 450 259 472 259 501 c 4
 259 529 282 552 309 552 c 4xe0
EndSplineSet
Refer: 804 593 N 1 0 0 1 0 0 2
EndChar

StartChar: P2
Encoding: 66 98 67
Width: 751
GlyphClass: 2
Flags: HMW
HStem: -10 58<215.5 219.5> 430 20<18 164 164 164 268 426 426 426>
VStem: 80 84<120 124 124 372 372 372> 342 84<135 370 370 395>
LayerCount: 2
Fore
SplineSet
364 683 m 4xe0
 393 683 416 661 416 632 c 4
 416 603 394 581 364 581 c 4
 336 581 314 603 314 632 c 4
 314 660 337 683 364 683 c 4xe0
EndSplineSet
Refer: 81 112 N 1 0 0 1 0 0 2
Validated: 9
EndChar

StartChar: C1
Encoding: 67 99 68
Width: 444
GlyphClass: 2
Flags: HMW
HStem: 0 20 430 20<276 480 480 480>
VStem: 82 84<82 251 261 564 564 588>
LayerCount: 2
Fore
SplineSet
121 447.732421875 m 2
 83 441 163 431 199 431 c 0
 280 431 335 361 335 257 c 0
 335 142 272 62 180 62 c 0
 123 62 87 86 39 156 c 1
 25 147 l 1
 55 88 74 60 101 37 c 0
 137 6 177 -10 222 -10 c 0
 333 -10 412 83 412 212 c 0
 412 292 384 360 334 404 c 0
 293 440 242 460 193 460 c 0
 167.126201689 460 99 453 121 447.732421875 c 2
193 445 m 1
 193 460 l 1
 156 460 l 2
 134 460 l 1
 393 662 l 5
 293 662 l 5
 27 446 l 1
 27 431 l 1
 195 431 l 1
 193 445 l 1
EndSplineSet
Validated: 37
EndChar

StartChar: T2
Encoding: 68 100 69
Width: 442
GlyphClass: 2
Flags: HMW
HStem: -10 52<209.5 240> 432 28<200 255 177.5 265>
VStem: 27 86<183.5 276> 340 84<-7 114 57 114 102 114 114 332 332 358.5 417 573 573 593.5>
LayerCount: 2
Fore
SplineSet
121 431 m 5
 100 431 l 5
 82 528 68 618 68 635 c 4
 68 658 87 676 111 676 c 4
 134 676 153 658 153 636 c 4
 153 607 144 547 128 471 c 4
 126 462 124 448 121 431 c 5
EndSplineSet
Refer: 787 648 S 1 0 0 1 0 0 2
Validated: 1
EndChar

StartChar: E2
Encoding: 69 101 70
Width: 556
GlyphClass: 2
Flags: HMW
HStem: -14 36<267.5 303.5 222 345> 0 20<114.5 127.5> 635 41<230 259.5 222 283.5> 642 20
VStem: 71 86<515.5 531> 390 101<116.5 146.5>
LayerCount: 2
Fore
SplineSet
299.311523438 583 m 4xe0
 327 583 350 561 350 531.677734375 c 4
 350 503 328 481 299 481 c 4
 270 481 248 503 248 531.18359375 c 4
 248 560 271 583 299.311523438 583 c 4xe0
EndSplineSet
Refer: 184 248 N 1 0 0 1 0 0 2
EndChar

StartChar: P4
Encoding: 70 102 71
Width: 500
GlyphClass: 2
Flags: MW
HStem: -217 217 -10 32<239.5 299 239.5 319.5> 400 60<275.5 298>
VStem: 75 84<-124 33 73 88 88 334 382 573 573 594> 384 86<174.5 265.5>
LayerCount: 2
Fore
SplineSet
5 -217 m 1x98
 5 -199 l 1
 64 -194 75 -184 75 -131 c 2
 75 573 l 2
 75 615 67 624 26 624 c 0
 19 624 15 624 9 623 c 1
 9 639 l 1
 78 658 106 666 154 683 c 1
 159 680 l 1
 159 382 l 1
 204 436 248 460 303 460 c 0
 400 460 470 371 470 247 c 0
 470 102 379 -10 260 -10 c 0x78
 218 -10 195 0 159 33 c 1
 159 -124 l 2
 160 -188 172 -198 247 -199 c 1
 247 -217 l 1
 5 -217 l 1x98
159 334 m 2xb8
 159 88 l 2
 159 58 216 22 263 22 c 0x58
 335 22 384 97 384 207 c 0
 384 324 335 400 261 400 c 0
 215 400 159 364 159 334 c 2xb8
EndSplineSet
Validated: 1
EndChar

StartChar: K2
Encoding: 71 103 72
Width: 742
GlyphClass: 2
Flags: HMW
HStem: -218 57<199.5 238.5> 149 25<249 268.5> 388 39<393 470 393 470 387 470> 432 28<203 241.5>
VStem: 28 70<-110 -102.5> 329 77<279 285> 433 28<-68 -46>
LayerCount: 2
Fore
SplineSet
364 525 m 4xe0
 393 525 416 503 416 474 c 4
 416 445 394 423 364 423 c 4
 336 423 314 445 314 474 c 4
 314 502 337 525 364 525 c 4xe0
EndSplineSet
Refer: 76 107 N 1 0 0 1 0 0 2
Validated: 1
EndChar

StartChar: Q4
Encoding: 72 104 73
Width: 667
GlyphClass: 2
Flags: HMW
HStem: -14 44<360.5 416.5> 636 40<322 386.5 322 410.5>
VStem: 28 116<282.5 381>
LayerCount: 2
Fore
SplineSet
363 676 m 0
 281 676 199 645 136 590 c 0
 66 528 28 436 28 326 c 0
 28 122 161 -14 360 -14 c 0
 473 -14 573 32 633 113 c 1
 615 131 l 1
 541 60 475 30 392 30 c 0
 329 30 273 50 230 88 c 0
 175 137 144 227 144 338 c 0
 144 520 237 636 382 636 c 0
 474 636 537 556 537 441 c 0
 537 337 482 267 401 267 c 0
 365 267 352 278 342 315 c 2
 336 337 l 2
 328 366 310 383 288 383 c 0
 262 383 241 364 241 341 c 0
 241 285 311 238 395 238 c 0
 444 238 495 258 536 294 c 0
 586 338 614 406 614 486 c 0
 614 615 474 676 363 676 c 0
EndSplineSet
Validated: 9
EndChar

StartChar: I2
Encoding: 73 105 74
Width: 611
GlyphClass: 2
Flags: HMW
HStem: 0 20 620 42<200 254 200 200 356 356 356 410>
VStem: 254 102<120 620 109 620>
LayerCount: 2
Fore
SplineSet
163 534 m 4xe0
 192 534 215 512 215 483 c 4
 215 454 193 432 163 432 c 4
 135 432 113 454 113 483 c 4
 113 511 136 534 163 534 c 4xe0
447 534 m 4xe0
 418 534 395 512 395 483 c 4
 395 454 417 432 447 432 c 4
 475 432 497 454 497 483 c 4
 497 511 474 534 447 534 c 4xe0
EndSplineSet
Refer: 90 121 N 1 0 0 1 0 0 2
Validated: 9
EndChar

StartChar: J
Encoding: 74 106 75
Width: 0
GlyphClass: 2
Flags: HMW
LayerCount: 2
Fore
SplineSet
283 0 m 1
 258 3.6496350365 l 0
 145 0 l 5
 26 3.56164383562 l 0
 0 0 l 1
 82 7 126 -55 133 -187 c 1
 149 -187 l 1
 155 -56 200 7 283 0 c 1
EndSplineSet
Validated: 41
EndChar

StartChar: K1
Encoding: 75 107 76
Width: 742
GlyphClass: 2
Flags: HMW
HStem: -10 58<215.5 219.5> 430 20<18 164 164 164 268 426 426 426>
VStem: 80 84<120 124 124 372 372 372> 342 84<135 370 370 395>
LayerCount: 2
Back
SplineSet
542 66 m 1xb8
 542 40 l 1
 507 2 486 -10 452 -10 c 0x98
 411 -10 393 10 388 63 c 1
 327 11 286 -10 242 -10 c 0x58
 181 -10 137 34 137 97 c 0
 137 130 151 164 173 184 c 0
 216 222 233 230 387 292 c 1
 387 353 l 2
 387 407 360 436 311 436 c 0
 271 436 239 414 239 387 c 0
 239 380 240 372 242 363 c 0
 243 356 244 351 244 347 c 0
 244 325 223 305 199 305 c 0
 175 305 156 325 156 348 c 0
 156 411 230 460 324 460 c 0
 383 460 426 441 448 405 c 0
 463 381 468 352 468 300 c 2
 468 105 l 2
 468 61 475 47 498 47 c 0
 513 47 525 52 542 66 c 1xb8
387 123 m 2x58
 387 268 l 1
 270 227 226 189 225 129 c 2
 225 125 l 2
 225 82 253 48 288 48 c 0
 309 48 336 56 361 70 c 0
 382 82 387 93 387 123 c 2x58
EndSplineSet
Fore
SplineSet
28 326 m 6
 28 436 66 528 136 590 c 4
 199 645 305 676 387 676 c 4
 434 676 508 668 557 651 c 4
 572 646 587 643 596 643 c 4
 616 643 632 655 638 676 c 5
 659 676 l 5
 668 451 l 5
 645 451 l 5
 626 516 611 544 579 576 c 4
 539 615 463 636 406 636 c 4
 261 636 144 520 144 338 c 6
 144 124 l 6
 144 82 176 48 215 48 c 4
 245 48 276 60 303 82 c 4
 317 93 322 107 322 135 c 6
 322 214 l 6
 322 262 307 276 260 278 c 5
 260 292 l 5
 406 292 l 5
 406 124 l 6
 406 82 438 48 477 48 c 4
 507 48 538 60 565 82 c 4
 579 93 584 107 584 135 c 6
 584 212 l 6
 584 262 572 272 510 275 c 5
 510 292 l 5
 668 292 l 5
 668 107 l 6
 669 60 676 52 725 50 c 6
 730 50 l 5
 730 36 l 5
 679 22 643 11 593 -9 c 5
 589 -7 l 5
 589 76 l 5
 546 33 l 6
 519 6 480 -10 443 -10 c 4
 384.65234375 -10 327 76 327 76 c 5
 284 33 l 6
 257 6 202 -10 165 -10 c 4
 92 -10 28 41 28 120 c 6
 28 326 l 6
EndSplineSet
Validated: 1
EndChar

StartChar: L1
Encoding: 76 108 77
Width: 556
GlyphClass: 2
Flags: HMW
HStem: 0 20 288 40<258 310.5> 625 37<222.5 280 280 303.5>
VStem: 100 102<120 291 109 331 331 553 553 553> 433 109<448 502 448 526.5>
LayerCount: 2
Fore
SplineSet
16 19 m 5
 16 0 l 5
 280 0 l 6
 374 0 461 28 501 72 c 4
 528 101 542 139 542 181 c 4
 542 247 506 308 446 340 c 4
 403 364 350 374 271 374 c 4
 245 374 228 373 202 371 c 5
 202 553 l 6
 203 627 217 641 296 643 c 5
 296 662 l 5
 16 662 l 5
 16 643 l 5
 92 636 99 627 100 542 c 6
 100 109 l 6
 99 36 90 27 16 19 c 5
202 71 m 6
 202 331 l 5
 225 333 239 334 259 334 c 4
 374 334 433 284 433 187 c 4
 433 84 371 37 236 37 c 4
 209 37 202 44 202 71 c 6
EndSplineSet
Validated: 9
EndChar

StartChar: N1
Encoding: 77 109 78
Width: 742
GlyphClass: 2
Flags: HMW
HStem: -10 28<244 298.5 244 310.5> 432 28<201.5 252.5>
VStem: 29 90<241.5 295> 380 90<164.5 235>
CounterMasks: 1 38
LayerCount: 2
Back
SplineSet
28 326 m 6
 28 436 66 528 136 590 c 4
 199 645 305 676 387 676 c 4
 434 676 508 668 557 651 c 4
 572 646 587 643 596 643 c 4
 616 643 632 655 638 676 c 5
 659 676 l 5
 668 451 l 5
 645 451 l 5
 626 516 611 544 579 576 c 4
 539 615 463 636 406 636 c 4
 261 636 144 520 144 338 c 6
 144 124 l 6
 144 82 176 48 215 48 c 4
 245 48 276 60 303 82 c 4
 317 93 322 107 322 135 c 6
 322 214 l 6
 322 262 307 276 260 278 c 5
 260 292 l 5
 406 292 l 5
 406 124 l 6
 406 82 438 48 477 48 c 4
 507 48 538 60 565 82 c 4
 579 93 584 107 584 135 c 6
 584 212 l 6
 584 262 572 272 510 275 c 5
 510 292 l 5
 668 292 l 5
 668 107 l 6
 669 60 676 52 725 50 c 6
 730 50 l 5
 730 36 l 5
 679 22 643 11 593 -9 c 5
 589 -7 l 5
 589 76 l 5
 546 33 l 6
 519 6 480 -10 443 -10 c 4
 384.65234375 -10 327 76 327 76 c 5
 284 33 l 6
 257 6 202 -10 165 -10 c 4
 92 -10 28 41 28 120 c 6
 28 326 l 6
EndSplineSet
Fore
SplineSet
144 134 m 2
 144 159 149 180 158 193 c 0
 183 231 235 271 307 310 c 0
 419 369 463 425 463 505 c 0
 463 557 445 599 410 630 c 0
 377 659 333 676 291 676 c 0xac
 258 676 221 668 184 654 c 0
 167 646 150 642 140 642 c 0x1c
 123 642 112 653 108 676 c 1
 87 676 l 1x2c
 65 463 l 1
 90 463 l 1
 106 522 120 548 151 580 c 0
 186 616 228 635 273 635 c 0
 335 635 377 598 377 543 c 0
 377 488 335 444 230 387 c 0
 98 315 43 250 43 168 c 2
 43 120 l 2
 43 41 99 -10 172 -10 c 0
 209 -10 257 6 284 33 c 2
 327 76 l 1
 341.661132812 22.5810546875 384.65234375 -10 443 -10 c 0
 480 -10 519 6 546 33 c 2
 589 76 l 1
 589 -7 l 1
 593 -9 l 1
 643 11 679 22 730 36 c 1
 730 50 l 1
 725 50 l 2
 676 52 669 60 668 107 c 2
 668 450 l 1
 510 450 l 1
 510 433 l 1
 572 430 584 420 584 370 c 2
 584 135 l 2
 584 107 579 93 565 82 c 0
 538 60 507 48 477 48 c 0
 438 48 406 82 406 124 c 2
 406 292 l 1
 260 292 l 1
 260 278 l 1
 307 276 322 262 322 214 c 2
 322 135 l 2
 322 107 317 93 303 82 c 0
 276 60 245 48 215 48 c 0
 176 48 144 82 144 124 c 2
 144 134 l 2
EndSplineSet
Validated: 5
EndChar

StartChar: N2
Encoding: 78 110 79
Width: 611
GlyphClass: 2
Flags: HMW
HStem: -10 52<209.5 240> 432 28<200 255 177.5 265>
VStem: 27 86<183.5 276> 340 84<-7 114 57 114 102 114 114 332 332 358.5 417 573 573 593.5>
LayerCount: 2
Fore
SplineSet
423 620 m 1
 423 656 l 1
 232 656 96 533 96 331 c 0
 96 237 128 155 182 98 c 0
 240.893594511 35.834539127 329 6 417 6 c 1
 421 42 l 1
 375 42 329.277923775 49.180696203 294 81 c 0
 243 127 210 218 210 329 c 0
 210 431 238 518 280 565 c 0
 318.681647086 608.286605073 368 620 423 620 c 1
356 42 m 0
 254 42 l 1
 200 42 l 2
 84 44 63 61 41 170 c 1
 17 170 l 1
 23 0 l 1
 587 0 l 1
 593 170 l 1
 569 170 l 1
 546 61 525 42 410 42 c 2
 356 42 l 0
356 620 m 0
 410 620 l 2
 525 620 546 601 569 492 c 1
 593 492 l 1
 587 662 l 1
 23 662 l 1
 17 492 l 1
 41 492 l 1
 63 601 84 618 200 620 c 2
 254 620 l 1
 356 620 l 0
EndSplineSet
Validated: 5
EndChar

StartChar: O1
Encoding: 79 111 80
Width: 722
GlyphClass: 2
Flags: HMW
HStem: -14 44<342.5 409.5> 642 20<14 297 297 297 473 705 705 705>
VStem: 104 102<241 553> 567 44<245 254 254 515>
LayerCount: 2
Fore
SplineSet
184 327 m 21
 588 327 l 5
 588 368 l 21
 184 368 l 13
 184 327 l 21
705 0 m 5
 705 19 l 5
 624 28 613 42 611 147 c 6
 611 408 l 6
 611 485 602 531 578 573 c 4
 539 641 464 676 355 676 c 4
 185 676 104 594 104 421 c 6
 104 109 l 6
 103 35 93 25 14 19 c 5
 14 0 l 5
 297 0 l 5
 297 19 l 5
 217 26 207 36 206 109 c 6
 206 429 l 6
 206 492 213 529 231 561 c 4
 258 608 307 632 378 632 c 4
 453 632 517 601 544 553 c 4
 560 523 567 485 567 417 c 6
 567 147 l 6
 565 44 550 24 473 19 c 5
 473 0 l 5
 705 0 l 5
EndSplineSet
Validated: 5
EndChar

StartChar: P1
Encoding: 80 112 81
Width: 751
GlyphClass: 2
Flags: HMW
HStem: -10 58<215.5 219.5> 430 20<18 164 164 164 268 426 426 426>
VStem: 80 84<120 124 124 372 372 372> 342 84<135 370 370 395>
LayerCount: 2
Back
SplineSet
739 45 m 29
 751 44 l 1053
EndSplineSet
Fore
SplineSet
336 76 m 1
 350.661132812 22.5810546875 393.652412157 -10 452 -10 c 0
 489 -10 528 6 555 33 c 2
 598 76 l 1
 598 -7 l 1
 602 -9 l 1
 652 11 688 22 739 36 c 1
 739 50 l 1
 734 50 l 2
 685 52 678 60 677 107 c 2
 677 450 l 1
 519 450 l 1
 519 433 l 1
 581 430 593 420 593 370 c 2
 593 135 l 2
 593 107 588 93 574 82 c 0
 547 60 516 48 486 48 c 0
 447 48 415 82 415 124 c 2
 415 450 l 1
 269 450 l 1
 269 436 l 1
 316 434 331 420 331 372 c 2
 331 135 l 2
 331 107 326 93 312 82 c 0
 285 60 254 48 224 48 c 0
 185 48 153 82 153 124 c 2
 153 375 l 2
 153 681 l 1
 148 683 l 1
 106 668 79 660 32 647 c 2
 3 639 l 1
 3 623 l 1
 9 624 13 624 20 624 c 0
 61 624 69 615 69 573 c 2
 69 120 l 2
 69 41 117 -10 190 -10 c 0
 227 -10 266 6 293 33 c 2
 336 76 l 1
EndSplineSet
Validated: 9
EndChar

StartChar: Q1
Encoding: 81 113 82
Width: 501
GlyphClass: 2
Flags: HMW
HStem: -9 45<198.5 243.5 163.5 299.5> 332 44<145 224 145 224> 625 46<231.5 244.5>
VStem: 328 110<497 544.5> 345 118<140.5 208.5 125.5 212.5>
LayerCount: 2
Fore
SplineSet
134 331 m 1xe0
 263 339 l 1
 381 377 l 1
 299 379 285 393 283 467 c 2
 283 553 l 2
 285 628 298 640 381 643 c 1
 381 662 l 1
 84 662 l 1
 84 643 l 1
 169 638 180 628 181 553 c 2
 181 435 l 2
 180.273414082 379.779470209 173.7396301 358.874201702 138 350.419884002 c 0
 124.551187 347.238526571 167.966796875 340.8203125 145 340 c 1
 134 331 l 1xe0
181 358 m 1
 125 351 97 341 67 316 c 0
 27 285 5 236 5 181 c 0
 5 70 101 -9 236 -9 c 0
 303 -9 358 12 403 54 c 0
 428 76 441 94 463 138 c 1xe8
 441 151 l 1
 397 73 341 36 268 36 c 0
 181 36 123 96 123 185 c 0
 123 240 146 285 187 310 c 0
 211 325 250 332 308 332 c 2
 423 332 l 1
 423 377 l 1
 405.486328125 377.083984375 296.561523438 376.91015625 292 377 c 1
 181 358 l 1
EndSplineSet
Validated: 37
EndChar

StartChar: R1
Encoding: 82 114 83
Width: 444
GlyphClass: 2
Flags: HMW
HStem: 0 20 430 20<276 480 480 480>
VStem: 82 84<82 251 261 564 564 588>
LayerCount: 2
Fore
SplineSet
37 0 m 1
 134 0 l 1
 403 365 l 5
 403 380 l 5
 276 380 l 6
 134 380 l 5
 393 683 l 1
 293 683 l 1
 27 365 l 5
 27 350 l 5
 185 350 l 5
 293 350 l 5
 37 0 l 1
EndSplineSet
Validated: 9
EndChar

StartChar: T4
Encoding: 83 115 84
Width: 556
GlyphClass: 2
Flags: HMW
HStem: 0 20 288 40<258 310.5> 625 37<222.5 280 280 303.5>
VStem: 100 102<120 291 109 331 331 553 553 553> 433 109<448 502 448 526.5>
LayerCount: 2
Fore
SplineSet
440 475 m 6
 440 378 374.000114014 330.842716091 259 331 c 0
 239 331.027353696 231.875440191 330.932869299 202 331 c 1
 100 331 l 0
 100 120 l 2
 100 35 92 26 16 19 c 1
 16 0 l 1
 296 0 l 1
 296 19 l 1
 217 21 202 35 202 109 c 2
 202 290 l 1
 228 289.907602625 244.99999774 290.193431835 271 290 c 0
 349.998596037 289.412275306 402.548828125 298.826171875 446 322 c 0
 506 354 542 415 542 481 c 6
 542 553 l 6
 542 628 557 640 640 643 c 5
 640 662 l 5
 343 662 l 5
 343 643 l 5
 428 638 440 628 440 553 c 6
 440 475 l 6
EndSplineSet
Validated: 41
EndChar

StartChar: D1
Encoding: 84 116 85
Width: 611
GlyphClass: 2
Flags: HMW
HStem: 0 20 620 42<200 254 200 200 356 356 356 410>
VStem: 254 102<120 620 109 620>
LayerCount: 2
Fore
SplineSet
356 480 m 2
 356 481 356 620 356 620 c 1
 410 620 l 2
 526 618 547 601 569 492 c 1
 593 492 l 1
 587 662 l 1
 23 662 l 1
 17 492 l 1
 41 492 l 1
 64 601 85 618 200 620 c 2
 254 620 l 1
 254 469 l 2
 254 42 l 1
 200 42 l 2
 85 44 64 61 41 170 c 1
 17 170 l 1
 23 0 l 1
 587 0 l 1
 593 170 l 1
 569 170 l 1
 547 61 526 44 410 42 c 2
 356 42 l 1
 356 480 l 2
EndSplineSet
Validated: 9
EndChar

StartChar: U1
Encoding: 85 117 86
Width: 650
GlyphClass: 2
Flags: HMW
HStem: -10 58<215.5 219.5> 430 20<18 164 164 164 268 426 426 426>
VStem: 80 84<120 124 124 372 372 372> 342 84<135 370 370 395>
LayerCount: 2
Fore
SplineSet
187 334 m 5
 263 351 292 355 323.672339629 355 c 4
 420 355 455 318 455 219 c 6
 455 103 l 6
 455 33 439 18 365 18 c 5
 365 0 l 5
 651 0 l 5
 651 18 l 5
 577 18 561 33 560 103 c 6
 560 219 l 6
 560 342 500 399 353.451120288 399 c 4
 326 399 313 397 187 373 c 5
 187 559 l 6
 188 629 203 644 278 644 c 5
 278 662 l 5
 -8 662 l 5
 -8 644 l 5
 66 644 82 629 82 559 c 6
 82 103 l 6
 82 33 66 18 -8 18 c 5
 -8 0 l 5
 278 0 l 5
 278 18 l 5
 203 18 188 33 187 103 c 6
 187 334 l 5
EndSplineSet
Validated: 9
EndChar

StartChar: P5
Encoding: 86 118 87
Width: 500
GlyphClass: 2
Flags: HMW
HStem: -14 20 430 20<19 215 215 215 338 477 477 477>
LayerCount: 2
Fore
SplineSet
270 262 m 0xe0
 299 262 322 240 322 211 c 0
 322 182 300 160 270 160 c 0
 242 160 220 182 220 211 c 0
 220 239 243 262 270 262 c 0xe0
EndSplineSet
Refer: 71 102 N 1 0 0 1 0 0 2
Validated: 1
EndChar

StartChar: X
Encoding: 88 120 89
Width: 500
GlyphClass: 2
Flags: MW
HStem: 0 20 435 15<24 33 24 231 24 231>
LayerCount: 2
Fore
SplineSet
278 0 m 1
 278 15 l 1
 311 17 318 21 318 39 c 0
 318 46 316 51 312 57 c 2
 221 197 l 1
 142 74 l 2
 128 53 122 40 122 33 c 0
 122 20 133 15 162 15 c 1
 162 0 l 1
 17 0 l 1
 17 15 l 1
 50 18 60 25 90 66 c 2
 204 231 l 1
 110 375 l 2
 79 422 63 435 33 435 c 2
 24 435 l 1
 24 450 l 1
 231 450 l 1
 231 435 l 1
 201 434 188 428 188 413 c 0
 188 403 195 387 214 356 c 0
 216 352 225 339 240 316 c 2
 248 304 l 1
 261 324 273 342 278 348 c 0
 303 379 315 401 315 413 c 0
 315 427 305 433 275 435 c 1
 275 450 l 1
 433 450 l 1
 433 435 l 1
 401 434 371 418 352 391 c 2
 269 271 l 1
 397 75 l 2
 428 31 448 15 479 15 c 1
 479 0 l 1
 278 0 l 1
EndSplineSet
Validated: 1
EndChar

StartChar: I1
Encoding: 89 121 90
Width: 611
GlyphClass: 2
Flags: MW
HStem: 0 20 620 42<200 254 200 200 356 356 356 410>
VStem: 254 102<120 620 109 620>
LayerCount: 2
Fore
SplineSet
356 392 m 6
 587 392 l 1
 593 222 l 1
 569 222 l 1
 547 331 526 348 410 350 c 2
 356 350 l 1
 356 109 l 2
 357 36 370 23 452 19 c 1
 452 0 l 1
 160 0 l 1
 160 19 l 1
 244 24 253 34 254 120 c 2
 254 350 l 1
 200 350 l 2
 85 348 64 331 41 222 c 1
 17 222 l 1
 23 392 l 1
 254 392 l 2
 254 553 l 2
 254 628 242 638 157 643 c 1
 157 662 l 1
 454 662 l 1
 454 643 l 1
 371 640 356 628 356 553 c 2
 356 392 l 6
EndSplineSet
Validated: 1
EndChar

StartChar: T5
Encoding: 90 122 91
Width: 556
GlyphClass: 2
Flags: HMW
HStem: 0 30<134 272 134 404> 420 30<155 293 155 155>
LayerCount: 2
Fore
SplineSet
295 523 m 4xe0
 324 523 347 501 347 472 c 4
 347 443 325 421 295 421 c 4
 267 421 245 443 245 472 c 4
 245 500 268 523 295 523 c 4xe0
EndSplineSet
Refer: 84 115 N 1 0 0 1 0 0 2
Validated: 9
EndChar

StartChar: braceleft
Encoding: 91 123 92
Width: 480
GlyphClass: 2
Flags: MW
HStem: 660 20<288 350>
VStem: 185 74<-41 121 -47 136 -47 136 378 541 541 541>
LayerCount: 2
Fore
SplineSet
350 -170 m 1
 350 -181 l 1
 226 -181 188 -149 185 -41 c 2
 185 136 l 2
 184 206 166 231 100 250 c 1
 166 268 184 293 185 363 c 2
 185 541 l 2
 187 647 226 680 350 680 c 1
 350 669 l 1
 282 653 260 622 259 546 c 2
 259 378 l 2
 258 294 239 268 165 249 c 1
 239 231 258 205 259 121 c 2
 259 -47 l 2
 260 -123 282 -154 350 -170 c 1
EndSplineSet
Validated: 1
EndChar

StartChar: bar
Encoding: 92 124 93
Width: 200
GlyphClass: 2
Flags: MW
HStem: 656 20<67 133 133 133>
VStem: 67 66<-155 676 -155 676>
LayerCount: 2
Fore
SplineSet
67 -155 m 1
 67 676 l 1
 133 676 l 1
 133 -155 l 1
 67 -155 l 1
EndSplineSet
Validated: 1
EndChar

StartChar: braceright
Encoding: 93 125 94
Width: 480
GlyphClass: 2
Flags: MW
HStem: 660 20<130 192>
VStem: 221 74<-42 121 121 121 378 540>
LayerCount: 2
Fore
SplineSet
130 669 m 1
 130 680 l 1
 254 680 292 648 295 540 c 2
 295 363 l 2
 296 293 314 268 380 250 c 1
 314 231 296 206 295 136 c 2
 295 -42 l 2
 293 -148 254 -181 130 -181 c 1
 130 -170 l 1
 197 -154 220 -123 221 -47 c 2
 221 121 l 2
 222 205 241 231 315 250 c 1
 241 268 222 293 221 378 c 2
 221 546 l 2
 220 622 197 653 130 669 c 1
EndSplineSet
Validated: 1
EndChar

StartChar: asciitilde
Encoding: 94 126 95
Width: 541
GlyphClass: 2
Flags: MW
HStem: 186 66<363.5 389.5 363.5 402> 254 66<152.5 178.5>
LayerCount: 2
Fore
SplineSet
448 303 m 1
 502 271 l 1
 456 207 425 186 379 186 c 0
 334 186 316 193 227 240 c 0
 210 249 189 254 168 254 c 0
 137 254 120 242 94 203 c 1
 40 235 l 1
 86 299 117 320 163 320 c 0
 208 320 226 313 315 266 c 0
 332 257 353 252 374 252 c 0
 405 252 422 264 448 303 c 1
EndSplineSet
Validated: 1
EndChar

StartChar: exclamdown
Encoding: 96 161 97
Width: 333
GlyphClass: 2
Flags: MW
HStem: -218 20 362 105<148.5 178.5>
VStem: 110 108<401.5 430.5 401 431.5>
LayerCount: 2
Fore
SplineSet
157 282 m 1
 170 282 l 1
 179 174 l 2
 183 127 189 81 196 36 c 0
 208 -35 216 -106 216 -140 c 0
 216 -189 196 -218 163 -218 c 0
 129 -218 110 -190 110 -138 c 0
 110 -126 111 -113 112 -101 c 2
 157 282 l 1
164 467 m 0
 194 467 218 445 218 416 c 0
 218 386 194 362 163 362 c 0
 133 362 110 386 110 417 c 0
 110 446 133 467 164 467 c 0
EndSplineSet
Validated: 1
EndChar

StartChar: cent
Encoding: 97 162 98
Width: 500
GlyphClass: 2
Flags: MW
HStem: -9 73<248.5 317.5> 0 20 430 30<225 274.5>
VStem: 53 77<224 286.5>
LayerCount: 2
Fore
SplineSet
403 579 m 1x70
 356 444 l 1
 404 425 431 395 431 360 c 0
 431 333 413 315 388 315 c 0
 363 315 348 328 330 367 c 1
 229 76 l 1
 252 67 268 64 288 64 c 0
 347 64 383 89 435 164 c 1
 448 156 l 1
 414 86 395 59 360 29 c 0
 332 5 295 -9 257 -9 c 0xb0
 240 -9 225 -7 201 0 c 1
 152 -138 l 1
 118 -138 l 1
 169 12 l 1
 132 33 117 46 99 71 c 0
 70 110 53 164 53 219 c 0
 53 354 149 460 273 460 c 0
 287 460 300 459 324 455 c 1
 368 579 l 1
 403 579 l 1x70
198 98 m 1
 313 421 l 1
 295 428 283 430 266 430 c 0
 184 430 130 362 130 260 c 0
 130 188 149 143 198 98 c 1
EndSplineSet
Validated: 1
EndChar

StartChar: sterling
Encoding: 98 163 99
Width: 500
GlyphClass: 2
Flags: MW
HStem: -8 28<67 89 67 97.5> -7 83<323.5 346> 94 36<75.5 101.5> 328 45<23 130 23 131 23 130 222 344 222 222> 649 27<273 321.5>
VStem: 12 26<46 69 46 77> 123 85<491.5 514>
LayerCount: 2
Fore
SplineSet
344 373 m 1xbe
 344 328 l 1
 222 328 l 1
 223 301 l 2
 224 286 224 273 224 273 c 2
 224 240 221 220 199 111 c 1
 264 84 299 76 348 76 c 0
 394 76 430 91 461 125 c 0
 471 136 478 141 484 141 c 0
 488 141 490 140 490 137 c 0
 490 119 468 75 447 51 c 0
 415 14 370 -7 322 -7 c 0x76
 279 -7 246 7 178 54 c 1
 138 6 115 -8 80 -8 c 0
 38 -8 12 16 12 54 c 0
 12 100 48 130 103 130 c 0
 118 130 130 129 149 125 c 1
 151 133 152 139 152 146 c 0
 152 164 146 219 135 295 c 2
 133 311 l 1
 131 328 l 1
 23 328 l 1
 23 373 l 1
 130 373 l 1
 125 399 123 417 123 442 c 0
 123 586 198 676 318 676 c 0
 393 676 448 636 448 583 c 0
 448 552 427 530 398 530 c 0
 368 530 360 544 359 597 c 0
 359 632 340 649 303 649 c 0
 243 649 208 598 208 510 c 0
 208 473 211 440 219 373 c 1
 344 373 l 1xbe
89 94 m 0
 55 94 38 81 38 57 c 0
 38 35 55 20 79 20 c 0xa6
 99 20 112 26 125 43 c 0
 136 55 142 68 142 76 c 0
 142 84 114 94 89 94 c 0
EndSplineSet
Validated: 1
EndChar

StartChar: currency
Encoding: 99 164 100
Width: 500
GlyphClass: 2
Flags: MW
HStem: 115 64<227.5 274.5> 481 64<227 275.5 227 292.5>
VStem: 35 68<306 354> 397 68<307 355.5 307 372>
LayerCount: 2
Fore
SplineSet
-22 108 m 1
 76 204 l 1
 47 246 35 282 35 330 c 0
 35 378 47 416 76 456 c 1
 -22 554 l 1
 28 602 l 1
 124 506 l 1
 168 534 203 545 251 545 c 0
 300 545 337 533 376 506 c 1
 474 602 l 1
 522 554 l 1
 426 456 l 1
 455 413 465 380 465 331 c 0
 465 283 455 249 426 204 c 1
 522 108 l 1
 474 58 l 1
 376 156 l 1
 336 128 298 115 251 115 c 0
 204 115 166 127 124 156 c 1
 28 58 l 1
 -22 108 l 1
253 481 m 0
 169 481 103 415 103 330 c 0
 103 247 169 179 251 179 c 0
 332 179 397 246 397 331 c 0
 397 413 332 481 253 481 c 0
EndSplineSet
Validated: 1
EndChar

StartChar: yen
Encoding: 100 165 101
Width: 500
GlyphClass: 2
Flags: MW
HStem: 0 20 182 40<28 202 28 202 287 460> 312 40<28 172 28 195 28 172 314 460> 643 19<-41 202 -41 202 329 343>
VStem: 202 85<120 182 109 182 222 298>
LayerCount: 2
Fore
SplineSet
367 19 m 1
 367 0 l 1
 123 0 l 1
 123 19 l 1
 190 22 201 36 202 120 c 2
 202 182 l 1
 28 182 l 1
 28 222 l 1
 202 222 l 1
 202 298 l 1
 195 312 l 1
 28 312 l 1
 28 352 l 1
 172 352 l 1
 77 525 l 2
 22 624 5 640 -41 643 c 1
 -41 662 l 1
 202 662 l 1
 202 643 l 1
 155 642 137 635 137 614 c 0
 137 601 142 584 150 569 c 2
 268 348 l 1
 380 568 l 2
 389 585 394 602 394 613 c 0
 394 631 373 643 343 643 c 2
 329 643 l 1
 329 662 l 1
 524 662 l 1
 524 643 l 1
 473 632 443 605 406 536 c 2
 314 352 l 1
 460 352 l 1
 460 312 l 1
 294 312 l 1
 287 298 l 1
 287 222 l 1
 460 222 l 1
 460 182 l 1
 287 182 l 1
 287 109 l 2
 288 38 304 20 367 19 c 1
EndSplineSet
Validated: 1
EndChar

StartChar: brokenbar
Encoding: 101 166 102
Width: 200
GlyphClass: 2
Flags: MW
VStem: 67 66<-153 177 -153 177 315 644>
LayerCount: 2
Fore
SplineSet
67 -153 m 1
 67 177 l 1
 133 177 l 1
 133 -153 l 1
 67 -153 l 1
67 315 m 1
 67 644 l 1
 133 644 l 1
 133 315 l 1
 67 315 l 1
EndSplineSet
Validated: 1
EndChar

StartChar: section
Encoding: 102 167 103
Width: 500
GlyphClass: 2
Flags: MW
HStem: -148 21<224.5 269.5 224.5 285.5> 125 21<292 310 292 292> 383 22<171 188 152 206.5> 655 21<225.5 268.5>
VStem: 70 53<301 320> 110 56<571 590.5> 330 56<-59 -30.5> 374 52<210 225>
LayerCount: 2
Fore
SplineSet
310 125 m 2xf5
 292 125 l 1
 367 60 386 31 386 -21 c 0
 386 -97 329 -148 242 -148 c 0
 164 -148 104 -104 104 -48 c 0
 104 -17 127 6 158 6 c 0
 185 6 206 -12 206 -36 c 0
 206 -50 198 -64 183 -77 c 0
 176 -83 172 -88 172 -92 c 0
 172 -110 206 -127 243 -127 c 0
 296 -127 330 -97 330 -50 c 0
 330 -11 306 21 241 65 c 0
 119 149 70 212 70 286 c 0xfa
 70 354 119 405 185 405 c 0
 191 405 200 405 210 404 c 1
 130 470 110 500 110 554 c 0
 110 627 166 676 249 676 c 0
 322 676 377 634 377 578 c 0
 377 545 358 525 326 525 c 0
 298 525 279 543 279 568 c 0
 279 584 289 601 305 612 c 0
 311 617 313 620 313 623 c 0
 313 641 286 655 251 655 c 0
 200 655 166 626 166 584 c 0
 166 558 180 530 200 513 c 2
 337 400 l 2
 395 352 426 298 426 245 c 0
 426 175 378 125 310 125 c 2xf5
191 383 m 0xf9
 151 383 123 355 123 316 c 0
 123 286 135 263 169 229 c 0
 230 169 267 146 305 146 c 0
 342 146 374 177 374 212 c 0
 374 238 355 271 321 305 c 0
 274 351 222 383 191 383 c 0xf9
EndSplineSet
Validated: 1
EndChar

StartChar: dieresis
Encoding: 103 168 104
Width: 333
GlyphClass: 2
Flags: MW
HStem: 523 100<53 79.5 53 79.5 252 278.5>
VStem: 18 98<559.5 586.5 559 587> 217 98<559.5 586.5 559 587>
LayerCount: 2
Fore
SplineSet
66 623 m 0
 93 623 116 600 116 573 c 0
 116 545 93 523 66 523 c 0
 39 523 18 545 18 574 c 0
 18 600 40 623 66 623 c 0
265 623 m 0
 292 623 315 600 315 573 c 0
 315 545 292 523 265 523 c 0
 238 523 217 545 217 574 c 0
 217 600 239 623 265 623 c 0
EndSplineSet
Validated: 1
EndChar

StartChar: copyright
Encoding: 104 169 105
Width: 760
GlyphClass: 2
Flags: MW
HStem: -14 42<302.5 459 302.5 476.5> 111 27<340.5 412.5> 505 21<338.5 404.5 323 421> 634 42<304.5 461>
VStem: 38 55<247.5 414 247.5 427.5> 156 78<264.5 374.5> 667 55<248.5 413>
LayerCount: 2
Fore
SplineSet
386 676 m 0
 571 676 722 521 722 330 c 0
 722 137 572 -14 381 -14 c 0
 189 -14 38 138 38 330 c 0
 38 525 190 676 386 676 c 0
385 634 m 0
 224 634 93 498 93 330 c 0
 93 165 224 28 381 28 c 0
 537 28 667 166 667 331 c 0
 667 495 537 634 385 634 c 0
537 526 m 1
 547 398 l 1
 528 398 l 1
 505 469 457 505 385 505 c 0
 292 505 234 436 234 324 c 0
 234 205 291 138 390 138 c 0
 452 138 496 160 537 213 c 1
 555 204 l 1
 505 138 452 111 373 111 c 0
 250 111 156 199 156 314 c 0
 156 435 256 526 390 526 c 0
 419 526 441 522 481 508 c 0
 485 506 492 505 496 505 c 0
 506 505 512 510 518 526 c 1
 537 526 l 1
EndSplineSet
Validated: 1
EndChar

StartChar: ordfeminine
Encoding: 105 170 106
Width: 276
GlyphClass: 2
Flags: MW
HStem: 394 47<54.5 111.5> 430 20 648 28<109.5 132.5>
VStem: 4 63<442 498> 16 60<623 628.5> 158 71<474 551 551 551>
LayerCount: 2
Fore
SplineSet
270 442 m 1x6c
 270 424 l 1
 246 401 234 394 211 394 c 0
 184 394 172 406 166 438 c 1
 133 407 105 394 75 394 c 0
 34 394 4 422 4 462 c 0x94
 4 482 12 502 26 513 c 0
 53 536 66 542 157 576 c 1
 157 606 l 2
 157 633 144 648 121 648 c 0
 98 648 76 637 76 625 c 0
 76 621 77 616 78 611 c 0
 79 608 79 605 79 603 c 0
 79 590 65 578 48 578 c 0
 30 578 16 591 16 609 c 0
 16 648 61 676 124 676 c 0
 194 676 229 644 229 580 c 2
 229 465 l 2
 229 436 231 430 242 430 c 0
 252 430 260 433 270 442 c 1x6c
158 474 m 2
 158 551 l 1
 88 526 67 511 67 485 c 0
 67 461 84 441 105 441 c 0
 118 441 130 444 147 452 c 0
 154 459 158 466 158 474 c 2
EndSplineSet
Validated: 1
EndChar

StartChar: guillemotleft
Encoding: 106 171 107
Width: 500
GlyphClass: 2
Flags: W
LayerCount: 2
Fore
SplineSet
42 222 m 1
 107 281 l 2
 113 285 118 290 123 295 c 2
 126 297 l 2
 133 303 141 310 150 318 c 0
 179 344 209 374 211 377 c 0
 228 398 248 416 254 416 c 0
 259 416 264 411 264 406 c 0
 264 393 239 353 210 317 c 0
 177 278 160 257 135 224 c 1
 141 215 142 215 145 211 c 0
 222 113 263 55 263 42 c 0
 263 36 260 33 254 33 c 0
 249 33 247 34 243 39 c 0
 182 99 145 133 73 195 c 2
 42 222 l 1
234 222 m 1
 299 281 l 2
 305 285 310 290 315 295 c 2
 318 297 l 2
 325 303 333 310 342 318 c 0
 371 344 401 374 403 377 c 0
 420 398 440 416 446 416 c 0
 451 416 456 411 456 406 c 0
 456 393 431 353 402 317 c 0
 369 278 352 257 327 224 c 1
 333 215 334 215 337 211 c 0
 414 113 455 55 455 42 c 0
 455 36 452 33 446 33 c 0
 441 33 439 34 435 39 c 0
 374 99 337 133 265 195 c 2
 234 222 l 1
EndSplineSet
Validated: 1
EndChar

StartChar: logicalnot
Encoding: 107 172 108
Width: 564
GlyphClass: 2
Flags: MW
HStem: 319 64<31 469 31 535>
VStem: 469 66<113 319 319 319>
LayerCount: 2
Fore
SplineSet
31 383 m 1
 535 383 l 1
 535 113 l 1
 469 113 l 1
 469 319 l 1
 31 319 l 1
 31 383 l 1
EndSplineSet
Validated: 1
EndChar

StartChar: uni00AD
Encoding: 108 173 109
Width: 333
GlyphClass: 2
Flags: MW
HStem: 194 63<39 285 39 285>
VStem: 39 246<194 257 194 257>
LayerCount: 2
Fore
SplineSet
39 257 m 1
 285 257 l 1
 285 194 l 1
 39 194 l 1
 39 257 l 1
EndSplineSet
Validated: 1
EndChar

StartChar: registered
Encoding: 109 174 110
Width: 760
GlyphClass: 2
Flags: MW
HStem: -14 42<302.5 458 302.5 475.5> 314 19<332 375 375 380 332 375> 501 19<332 332 332 373> 634 42<302.5 460.5>
VStem: 38 55<247.5 413 247.5 426.5> 268 64<215 314 333 456 456 471> 444 67<404 448> 667 55<246 411.5>
LayerCount: 2
Fore
SplineSet
219 505 m 1
 219 520 l 1
 396 520 l 2
 466 520 511 484 511 428 c 0
 511 380 484 345 432 324 c 1
 489 245 l 2
 517 206 541 180 565 160 c 1
 565 152 l 1
 501 152 l 2
 487 149 461 179 432 231 c 0
 421 251 417 258 380 314 c 1
 332 314 l 1
 332 215 l 2
 332 185 334 178 339 175 c 0
 347 171 350 170 381 167 c 1
 381 152 l 1
 219 152 l 1
 219 167 l 1
 250 170 253 171 261 175 c 0
 266 178 268 185 268 215 c 2
 268 456 l 2
 268 486 266 494 261 497 c 0
 253 501 252 501 219 505 c 1
332 501 m 1
 332 333 l 1
 375 333 l 2
 419 333 444 365 444 422 c 0
 444 474 420 501 373 501 c 2
 332 501 l 1
381 676 m 0
 574 676 722 523 722 325 c 0
 722 138 570 -14 381 -14 c 0
 189 -14 38 138 38 330 c 0
 38 523 190 676 381 676 c 0
381 634 m 0
 224 634 93 496 93 330 c 0
 93 165 224 28 381 28 c 0
 535 28 667 166 667 326 c 0
 667 497 540 634 381 634 c 0
EndSplineSet
Validated: 33
EndChar

StartChar: macron
Encoding: 110 175 111
Width: 333
GlyphClass: 2
Flags: MW
HStem: 545 49<16 316 16 316>
LayerCount: 2
Fore
SplineSet
16 594 m 1
 316 594 l 1
 316 545 l 1
 16 545 l 1
 16 594 l 1
EndSplineSet
Validated: 1
EndChar

StartChar: degree
Encoding: 111 176 112
Width: 400
GlyphClass: 2
Flags: MW
HStem: 390 34<171 228 171 238.5> 642 34<171.5 228.5>
VStem: 57 39<503.5 563 503.5 573> 304 39<503 562.5>
LayerCount: 2
Fore
SplineSet
200 676 m 0
 281 676 343 613 343 532 c 0
 343 452 279 390 198 390 c 0
 120 390 57 454 57 533 c 0
 57 613 120 676 200 676 c 0
200 642 m 0
 143 642 96 593 96 533 c 0
 96 474 143 424 199 424 c 0
 257 424 304 473 304 533 c 0
 304 592 257 642 200 642 c 0
EndSplineSet
Validated: 1
EndChar

StartChar: plusminus
Encoding: 112 177 113
Width: 564
GlyphClass: 2
Flags: MW
HStem: 60 53<37 528 37 528> 342 53<37 256 37 256 309 528>
VStem: 256 53<182 342 182 342 395 615>
LayerCount: 2
Fore
SplineSet
37 60 m 1
 37 113 l 1
 528 113 l 1
 528 60 l 1
 37 60 l 1
256 395 m 1
 256 615 l 1
 309 615 l 1
 309 395 l 1
 528 395 l 1
 528 342 l 1
 309 342 l 1
 309 182 l 1
 256 182 l 1
 256 342 l 1
 37 342 l 1
 37 395 l 1
 256 395 l 1
EndSplineSet
Validated: 1
EndChar

StartChar: twosuperior
Encoding: 113 178 114
Width: 300
GlyphClass: 2
Flags: MW
HStem: 270 65<107 228 107 259> 613 63<125.5 132>
VStem: 185 92<545.5 558>
LayerCount: 2
Fore
SplineSet
296 355 m 1
 259 270 l 1
 6 270 l 1
 6 293 l 1
 104 400 l 2
 154 455 185 507 185 537 c 0
 185 579 152 613 112 613 c 0
 75 613 48 591 26 543 c 1
 1 557 l 1
 17 603 27 622 48 641 c 0
 71 664 105 676 146 676 c 0
 224 676 277 633 277 570 c 0
 277 521 254 481 193 420 c 2
 107 335 l 1
 228 335 l 2
 256 336 265 340 279 362 c 1
 296 355 l 1
EndSplineSet
Validated: 1
EndChar

StartChar: threesuperior
Encoding: 114 179 115
Width: 300
GlyphClass: 2
Flags: MW
HStem: 262 48<133 153.5> 620 56<126 150.5>
VStem: 189 76<579 586> 210 81<359 393.5>
LayerCount: 2
Fore
SplineSet
94 460 m 1xd0
 93 489 l 1
 163 512 189 534 189 571 c 0
 189 601 168 620 133 620 c 0
 97 620 77 607 46 563 c 1
 21 581 l 1
 56 649 95 676 157 676 c 0
 218 676 265 640 265 593 c 0xe0
 265 565 248 542 205 511 c 1
 262 488 291 450 291 398 c 0
 291 320 209 262 98 262 c 0
 45 262 15 280 15 312 c 0
 15 333 30 349 50 349 c 0
 61 349 72 344 91 330 c 0
 113 314 124 310 142 310 c 0
 183 310 210 337 210 378 c 0
 210 409 196 434 169 449 c 0
 154 458 129 465 117 463 c 2
 94 460 l 1xd0
EndSplineSet
Validated: 33
EndChar

StartChar: acute
Encoding: 115 180 116
Width: 333
GlyphClass: 2
Flags: MW
HStem: 658 20<257.5 276>
LayerCount: 2
Fore
SplineSet
116 507 m 1
 76 507 l 1
 223 655 l 2
 241 673 250 678 265 678 c 0
 287 678 300 666 300 646 c 0
 300 630 291 617 270 604 c 2
 116 507 l 1
EndSplineSet
Validated: 1
EndChar

StartChar: mu
Encoding: 116 181 117
Width: 500
GlyphClass: 2
Flags: MW
HStem: -218 20 -10 37<393 468.5> -10 62<205 234.5> 430 20<59 147 147 147 341 429 429 429>
VStem: 59 88<115.5 144 144 450> 341 88<115 450>
LayerCount: 2
Fore
SplineSet
429 450 m 1xbc
 429 92 l 2
 429 46 438 27 461 27 c 0
 476 27 487 33 511 55 c 1
 511 47 l 1
 478 4 455 -10 417 -10 c 0x5c
 369 -10 346 17 344 80 c 1
 304 17 262 -10 207 -10 c 0
 156 -10 121 13 90 64 c 1
 94 27 96 17 109 -33 c 0
 122 -84 127 -112 127 -141 c 0
 127 -192 112 -218 81 -218 c 0
 52 -218 35 -192 35 -148 c 0
 35 -126 40 -83 47 -43 c 0
 57 15 59 33 59 54 c 2
 59 450 l 1
 147 450 l 1
 147 144 l 2
 147 87 179 52 231 52 c 0
 278 52 317 74 341 115 c 1
 341 450 l 1
 429 450 l 1xbc
EndSplineSet
Validated: 1
EndChar

StartChar: paragraph
Encoding: 117 182 118
Width: 453
GlyphClass: 2
Flags: MW
HStem: 640 22<185 463 251 251 251 309>
VStem: -9 76<436 516 417 542> 185 66<-180 273 273 273 295 640 -180 640> 309 66<-180 553 -180 640>
LayerCount: 2
Fore
SplineSet
251 640 m 1
 251 -180 l 1
 185 -180 l 1
 185 273 l 1
 122 275 94 283 61 306 c 0
 14 339 -9 395 -9 477 c 0
 -9 607 53 662 200 662 c 2
 463 662 l 1
 463 643 l 1
 386 636 376 626 375 553 c 2
 375 -180 l 1
 309 -180 l 1
 309 640 l 1
 251 640 l 1
185 295 m 1
 185 640 l 1
 145 637 128 631 110 618 c 0
 81 597 67 552 67 480 c 0
 67 354 99 304 185 295 c 1
EndSplineSet
Validated: 1
EndChar

StartChar: periodcentered
Encoding: 118 183 119
Width: 250
GlyphClass: 2
Flags: MW
HStem: 199 111<110 139.5>
VStem: 70 111<238.5 268.5 238 269>
LayerCount: 2
Fore
SplineSet
125 310 m 0
 155 310 181 284 181 253 c 0
 181 223 155 199 124 199 c 0
 95 199 70 224 70 253 c 0
 70 285 95 310 125 310 c 0
EndSplineSet
Validated: 1
EndChar

StartChar: cedilla
Encoding: 119 184 120
Width: 333
GlyphClass: 2
Flags: MW
HStem: -215 35<120.5 148 120.5 174.5> -100 38<127 202> 0 20
VStem: 186 75<-149.5 -123>
LayerCount: 2
Fore
SplineSet
98 -99 m 1
 139 0 l 1
 174 0 l 1
 149 -65 l 1
 159 -63 165 -62 175 -62 c 0
 229 -62 261 -87 261 -131 c 0
 261 -183 213 -215 136 -215 c 0
 105 -215 81 -210 52 -199 c 1
 66 -168 l 1
 93 -177 110 -180 131 -180 c 0
 165 -180 186 -163 186 -136 c 0
 186 -110 171 -100 133 -100 c 0
 121 -100 113 -101 105 -104 c 1
 98 -99 l 1
EndSplineSet
Validated: 1
EndChar

StartChar: onesuperior
Encoding: 120 185 121
Width: 300
GlyphClass: 2
Flags: MW
HStem: 656 20<177 177>
VStem: 110 81<330 583 583 594>
LayerCount: 2
Fore
SplineSet
248 294 m 1
 248 270 l 1
 57 270 l 1
 57 294 l 1
 99 296 109 303 110 326 c 2
 110 583 l 2
 110 605 108 611 102 611 c 0
 95 611 95 611 59 598 c 1
 59 621 l 1
 177 676 l 1
 191 673 l 1
 191 330 l 2
 192 304 204 296 248 294 c 1
EndSplineSet
Validated: 1
EndChar

StartChar: ordmasculine
Encoding: 121 186 122
Width: 310
GlyphClass: 2
Flags: MW
HStem: 394 33<147.5 183 147.5 195> 643 33<128.5 174>
VStem: 6 73<549.5 576> 231 73<500 552>
LayerCount: 2
Fore
SplineSet
159 676 m 0
 244 676 304 621 304 542 c 0
 304 458 239 394 151 394 c 0
 67 394 6 452 6 533 c 0
 6 619 67 676 159 676 c 0
150 643 m 0
 107 643 79 614 79 569 c 0
 79 530 88 489 104 461 c 0
 116 439 135 427 160 427 c 0
 206 427 231 458 231 514 c 0
 231 590 198 643 150 643 c 0
EndSplineSet
Validated: 1
EndChar

StartChar: guillemotright
Encoding: 122 187 123
Width: 500
GlyphClass: 2
Flags: W
LayerCount: 2
Fore
SplineSet
458 222 m 1
 427 195 l 2
 356 134 316 97 257 39 c 0
 253 34 251 33 246 33 c 0
 240 33 237 36 237 42 c 0
 237 55 278 113 355 211 c 1
 361 218 l 1
 365 224 l 1
 340 257 323 278 290 317 c 0
 261 353 236 393 236 406 c 0
 236 411 241 416 246 416 c 0
 252 416 272 398 289 377 c 0
 291 374 321 344 350 318 c 0
 361 309 369 302 374 297 c 0
 376 296 382 290 393 281 c 2
 458 222 l 1
266 222 m 1
 235 195 l 2
 164 134 124 97 65 39 c 0
 61 34 59 33 54 33 c 0
 48 33 45 36 45 42 c 0
 45 55 86 113 163 211 c 1
 169 218 l 1
 173 224 l 1
 148 257 131 278 98 317 c 0
 69 353 44 393 44 406 c 0
 44 411 49 416 54 416 c 0
 60 416 80 398 97 377 c 0
 99 374 129 344 158 318 c 0
 169 309 177 302 182 297 c 0
 184 296 190 290 201 281 c 2
 266 222 l 1
EndSplineSet
Validated: 1
EndChar

StartChar: onequarter
Encoding: 123 188 124
Width: 750
GlyphClass: 2
Flags: MW
HStem: -14 20 0 20 95 50<467 593 467 595 424 593 661 712> 656 20<585 631 631 631>
VStem: 91 68<330 583 583 596.5> 593 68<145 315 315 315> 595 66<0 95 0 95>
LayerCount: 2
Fore
SplineSet
216 288 m 1x7a
 216 277 l 1
 38 277 l 1
 38 288 l 1
 77 290 90 300 91 326 c 2
 91 583 l 2
 91 610 88 618 76 618 c 0
 69 618 67 617 40 608 c 1
 40 617 l 1
 152 669 l 1
 159 668 l 1
 159 330 l 2
 160 301 174 291 216 288 c 1x7a
712 145 m 1
 712 95 l 1
 661 95 l 1
 661 0 l 1x74
 595 0 l 1
 595 95 l 1
 424 95 l 1
 424 141 l 1
 618 399 l 1
 661 399 l 1
 661 145 l 1
 712 145 l 1
593 145 m 1
 593 315 l 1
 467 145 l 1
 593 145 l 1
631 676 m 1
 181 -14 l 1
 132 -14 l 1x94
 585 676 l 1
 631 676 l 1
EndSplineSet
Validated: 1
EndChar

StartChar: onehalf
Encoding: 124 189 125
Width: 750
GlyphClass: 2
Flags: MW
HStem: -14 20 0 20<459 459> 6 52<538 675 538 701> 349 50<570.5 583.5> 656 20<554 600 600 600>
VStem: 91 68<330 583 583 596.5> 639 70<271.5 297>
LayerCount: 2
Fore
SplineSet
216 288 m 1xbe
 216 277 l 1
 38 277 l 1
 38 288 l 1
 77 290 90 300 91 326 c 2
 91 583 l 2
 91 610 88 618 76 618 c 0
 69 618 67 617 40 608 c 1
 40 617 l 1
 152 669 l 1
 159 668 l 1
 159 330 l 2
 160 301 174 291 216 288 c 1xbe
600 676 m 1
 150 -14 l 1
 101 -14 l 1
 554 676 l 1
 600 676 l 1
734 81 m 1
 701 6 l 1
 459 6 l 1x26
 459 20 l 1x46
 556 125 l 2
 613 188 639 234 639 275 c 0
 639 319 607 349 560 349 c 0
 521 349 491 327 470 282 c 1
 456 290 l 1
 470 331 481 349 499 366 c 0
 521 387 554 399 587 399 c 0
 656 399 709 353 709 294 c 0
 709 249 685 204 635 154 c 2
 538 58 l 1
 675 58 l 2
 704 59 715 64 728 83 c 1
 734 81 l 1
EndSplineSet
Validated: 1
EndChar

StartChar: threequarters
Encoding: 125 190 126
Width: 750
GlyphClass: 2
Flags: MW
HStem: -14 20 0 20 95 50<467 593 467 595 424 593 661 712> 272 38<131.5 151> 627 46<133 151> 656 20<599 645 645 645>
VStem: 193 66<581.5 590> 213 71<365.5 406> 593 68<145 315 315 315> 595 66<0 95 0 95>
LayerCount: 2
Fore
SplineSet
98 469 m 1x79
 97 489 l 1
 168 514 193 536 193 574 c 0
 193 606 170 627 132 627 c 0
 95 627 75 614 45 572 c 1
 27 585 l 1
 38 604 39 606 44 614 c 0
 69 652 110 673 156 673 c 0
 214 673 259 639 259 596 c 0x7a40
 259 567 245 550 194 513 c 1
 226 500 231 497 243 487 c 0
 269 466 284 435 284 403 c 0
 284 328 205 272 97 272 c 0
 48 272 20 288 20 317 c 0
 20 335 33 349 50 349 c 0
 60 349 70 344 88 331 c 0
 110 315 122 310 141 310 c 0
 184 310 213 339 213 382 c 0
 213 430 171 472 123 472 c 0
 122 472 119 472 116 471 c 2
 98 469 l 1x79
712 145 m 1
 712 95 l 1
 661 95 l 1
 661 0 l 1x7880
 595 0 l 1
 595 95 l 1
 424 95 l 1
 424 141 l 1
 618 399 l 1
 661 399 l 1
 661 145 l 1
 712 145 l 1
593 145 m 1
 593 315 l 1
 467 145 l 1
 593 145 l 1
645 676 m 1x8480
 195 -14 l 1
 146 -14 l 1
 599 676 l 1
 645 676 l 1x8480
EndSplineSet
Validated: 1
EndChar

StartChar: questiondown
Encoding: 126 191 127
Width: 444
GlyphClass: 2
Flags: MW
HStem: -218 30<209.5 264 209.5 269> -11 20 361 105<201 231.5>
VStem: 39 92<-82 -45 -101.5 -42.5> 163 108<400 429.5 400 430.5> 334 51<-142 -52.5>
LayerCount: 2
Fore
SplineSet
209 294 m 1
 226 294 l 1
 225 250 215 200 196 152 c 2
 168 88 l 2
 144 33 131 -22 131 -68 c 0
 131 -135 179 -188 240 -188 c 0
 288 -188 334 -158 334 -126 c 0
 334 -117 329 -109 317 -95 c 0
 302 -78 296 -66 296 -52 c 0
 296 -27 312 -11 337 -11 c 0
 368 -11 385 -32 385 -73 c 0
 385 -156 315 -218 223 -218 c 0
 168 -218 109 -195 75 -160 c 0
 52 -137 39 -101 39 -63 c 0
 39 -22 52 14 84 63 c 0
 98 84 98 84 144 140 c 0
 180 186 198 226 209 294 c 1
217 466 m 0
 248 466 271 444 271 415 c 0
 271 385 247 361 216 361 c 0
 186 361 163 384 163 416 c 0
 163 445 185 466 217 466 c 0
EndSplineSet
Validated: 1
EndChar

StartChar: Agrave
Encoding: 127 192 128
Width: 722
GlyphClass: 2
Flags: MW
HStem: 0 20 216 41<216 447 216 461 199 447>
LayerCount: 2
Fore
SplineSet
706 19 m 1
 706 0 l 1
 451 0 l 1
 451 19 l 1
 504 20 521 28 521 53 c 0
 521 67 514 93 502 120 c 2
 461 216 l 1
 199 216 l 1
 153 99 l 2
 148 86 145 72 145 60 c 0
 145 31 165 19 213 19 c 1
 213 0 l 1
 15 0 l 1
 15 19 l 1
 63 21 75 37 139 183 c 2
 347 674 l 1
 367 674 l 1
 616 106 l 2
 651 32 661 22 706 19 c 1
216 257 m 1
 447 257 l 1
 331 532 l 1
 216 257 l 1
437 719 m 1
 397 719 l 1
 243 816 l 2
 224 828 214 843 214 859 c 0
 214 878 227 890 248 890 c 0
 263 890 272 885 290 867 c 2
 437 719 l 1
EndSplineSet
Validated: 1
EndChar

StartChar: Aacute
Encoding: 128 193 129
Width: 722
GlyphClass: 2
Flags: MW
HStem: 0 20 216 41<216 447 216 461 199 447>
LayerCount: 2
Fore
SplineSet
706 19 m 1
 706 0 l 1
 451 0 l 1
 451 19 l 1
 504 20 521 28 521 53 c 0
 521 67 514 93 502 120 c 2
 461 216 l 1
 199 216 l 1
 153 99 l 2
 148 86 145 72 145 60 c 0
 145 31 165 19 213 19 c 1
 213 0 l 1
 15 0 l 1
 15 19 l 1
 63 21 75 37 139 183 c 2
 347 674 l 1
 367 674 l 1
 616 106 l 2
 651 32 661 22 706 19 c 1
216 257 m 1
 447 257 l 1
 331 532 l 1
 216 257 l 1
323 719 m 1
 283 719 l 1
 430 867 l 2
 448 885 457 890 472 890 c 0
 494 890 507 878 507 858 c 0
 507 842 498 829 477 816 c 2
 323 719 l 1
EndSplineSet
Validated: 1
EndChar

StartChar: Acircumflex
Encoding: 129 194 130
Width: 722
GlyphClass: 2
Flags: MW
HStem: 0 20 216 41<216 447 216 461 199 447>
LayerCount: 2
Fore
SplineSet
706 19 m 1
 706 0 l 1
 451 0 l 1
 451 19 l 1
 504 20 521 28 521 53 c 0
 521 67 514 93 502 120 c 2
 461 216 l 1
 199 216 l 1
 153 99 l 2
 148 86 145 72 145 60 c 0
 145 31 165 19 213 19 c 1
 213 0 l 1
 15 0 l 1
 15 19 l 1
 63 21 75 37 139 183 c 2
 347 674 l 1
 367 674 l 1
 616 106 l 2
 651 32 661 22 706 19 c 1
216 257 m 1
 447 257 l 1
 331 532 l 1
 216 257 l 1
512 719 m 1
 478 719 l 1
 356 822 l 1
 235 719 l 1
 201 719 l 1
 325 886 l 1
 387 886 l 1
 512 719 l 1
EndSplineSet
Validated: 1
EndChar

StartChar: Atilde
Encoding: 130 195 131
Width: 722
GlyphClass: 2
Flags: MW
HStem: 0 20 216 41<216 447 216 461 199 447> 744 56<436.5 448.5> 790 55<272 282>
LayerCount: 2
Fore
SplineSet
706 19 m 1xe0
 706 0 l 1
 451 0 l 1
 451 19 l 1
 504 20 521 28 521 53 c 0
 521 67 514 93 502 120 c 2
 461 216 l 1
 199 216 l 1
 153 99 l 2
 148 86 145 72 145 60 c 0
 145 31 165 19 213 19 c 1
 213 0 l 1
 15 0 l 1
 15 19 l 1
 63 21 75 37 139 183 c 2
 347 674 l 1
 367 674 l 1
 616 106 l 2
 651 32 661 22 706 19 c 1xe0
216 257 m 1
 447 257 l 1
 331 532 l 1
 216 257 l 1
497 850 m 1
 526 850 l 1
 505 774 476 744 421 744 c 0x20
 396 744 381 748 340 768 c 2
 317 779 l 2
 302 786 288 790 276 790 c 0x10
 253 790 236 775 225 744 c 1
 196 744 l 1x20
 211 809 247 845 297 845 c 0x10
 319 845 344 839 367 827 c 2
 391 815 l 2
 410 806 429 800 444 800 c 0
 467 800 480 812 497 850 c 1
EndSplineSet
Validated: 1
EndChar

StartChar: Adieresis
Encoding: 131 196 132
Width: 722
GlyphClass: 2
Flags: MW
HStem: 0 20 216 41<216 447 216 461 199 447> 735 100<241 267.5 241 267.5 440 466.5>
VStem: 206 98<771.5 798.5 771 799> 405 98<771.5 798.5 771 799>
LayerCount: 2
Fore
SplineSet
706 19 m 1
 706 0 l 1
 451 0 l 1
 451 19 l 1
 504 20 521 28 521 53 c 0
 521 67 514 93 502 120 c 2
 461 216 l 1
 199 216 l 1
 153 99 l 2
 148 86 145 72 145 60 c 0
 145 31 165 19 213 19 c 1
 213 0 l 1
 15 0 l 1
 15 19 l 1
 63 21 75 37 139 183 c 2
 347 674 l 1
 367 674 l 1
 616 106 l 2
 651 32 661 22 706 19 c 1
216 257 m 1
 447 257 l 1
 331 532 l 1
 216 257 l 1
254 835 m 0
 281 835 304 812 304 785 c 0
 304 757 281 735 254 735 c 0
 227 735 206 757 206 786 c 0
 206 812 228 835 254 835 c 0
453 835 m 0
 480 835 503 812 503 785 c 0
 503 757 480 735 453 735 c 0
 426 735 405 757 405 786 c 0
 405 812 427 835 453 835 c 0
EndSplineSet
Validated: 1
EndChar

StartChar: Aring
Encoding: 132 197 133
Width: 722
GlyphClass: 2
Flags: MW
HStem: 0 20 216 41<216 447 216 461 199 447> 716 34<332.5 369 332.5 378.5> 881 34<334 369.5>
VStem: 252 34<797.5 834 797.5 843> 417 34<797 833>
LayerCount: 2
Fore
SplineSet
706 19 m 1
 706 0 l 1
 451 0 l 1
 451 19 l 1
 504 20 521 28 521 53 c 0
 521 67 514 93 502 120 c 2
 461 216 l 1
 199 216 l 1
 153 99 l 2
 148 86 145 72 145 60 c 0
 145 31 165 19 213 19 c 1
 213 0 l 1
 15 0 l 1
 15 19 l 1
 63 21 75 37 139 183 c 2
 347 674 l 1
 367 674 l 1
 616 106 l 2
 651 32 661 22 706 19 c 1
216 257 m 1
 447 257 l 1
 331 532 l 1
 216 257 l 1
351 915 m 0
 406 915 451 870 451 815 c 0
 451 760 406 716 351 716 c 0
 295 716 252 760 252 816 c 0
 252 870 297 915 351 915 c 0
352 881 m 0
 316 881 286 852 286 816 c 0
 286 779 315 750 350 750 c 0
 388 750 417 779 417 815 c 0
 417 851 387 881 352 881 c 0
EndSplineSet
Validated: 1
EndChar

StartChar: AE
Encoding: 133 198 134
Width: 889
GlyphClass: 2
Flags: MW
HStem: 0 38<566 642 566 819> 260 39<239 398 239 398 222 398> 329 37<497 608 497 642 497 608> 626 36<514 524 524 611>
VStem: 398 99<108 260 260 260 299 329 366 596>
LayerCount: 2
Fore
SplineSet
816 521 m 1
 793 521 l 1
 781 612 756 626 611 626 c 2
 524 626 l 2
 504 626 498 619 497 596 c 2
 497 366 l 1
 608 366 l 2
 713 368 733 383 740 463 c 1
 761 463 l 1
 761 229 l 1
 740 229 l 1
 733 306 713 327 642 329 c 2
 497 329 l 1
 497 91 l 2
 497 67 500 50 505 47 c 0
 509 42 535 38 566 38 c 2
 642 38 l 2
 754 40 781 58 839 168 c 1
 863 168 l 1
 819 0 l 1
 309 0 l 1
 309 19 l 1
 326 21 l 2
 389 30 396 39 398 108 c 2
 398 260 l 1
 222 260 l 1
 194 207 l 2
 153 129 130 71 130 49 c 0
 130 34 155 23 198 19 c 1
 199 19 l 1
 199 0 l 1
 0 0 l 1
 0 19 l 1
 43 25 55 36 88 97 c 2
 333 581 l 2
 339 592 342 603 342 609 c 0
 342 631 317 640 252 642 c 1
 252 662 l 1
 816 662 l 1
 816 521 l 1
239 299 m 1
 398 299 l 1
 398 618 l 1
 239 299 l 1
EndSplineSet
Validated: 1
EndChar

StartChar: Ccedilla
Encoding: 134 199 135
Width: 667
GlyphClass: 2
Flags: MW
HStem: -215 35<287.5 315 287.5 341.5> -100 38<294 369> -14 44<360.5 416.5> 636 40<322 386.5 322 410.5>
VStem: 28 116<282.5 380.5> 353 75<-149.5 -123>
LayerCount: 2
Fore
SplineSet
336 -13 m 1
 316 -65 l 1
 326 -63 332 -62 342 -62 c 0
 396 -62 428 -87 428 -131 c 0
 428 -183 380 -215 303 -215 c 0
 272 -215 248 -210 219 -199 c 1
 233 -168 l 1
 260 -177 277 -180 298 -180 c 0
 332 -180 353 -163 353 -136 c 0
 353 -110 338 -100 300 -100 c 0
 288 -100 280 -101 272 -104 c 1
 265 -99 l 1
 302 -10 l 1
 135 14 28 144 28 325 c 0
 28 436 66 528 136 590 c 0
 199 645 281 676 363 676 c 0
 410 676 460 668 509 651 c 0
 524 646 539 643 548 643 c 0
 568 643 584 655 590 676 c 1
 611 676 l 1
 620 451 l 1
 597 451 l 1
 578 516 563 544 531 576 c 0
 491 615 439 636 382 636 c 0
 237 636 144 520 144 338 c 0
 144 227 175 137 230 88 c 0
 273 50 329 30 392 30 c 0
 475 30 541 60 615 131 c 1
 633 113 l 1
 573 33 473 -14 360 -14 c 0
 352 -14 345 -14 336 -13 c 1
EndSplineSet
Validated: 1
EndChar

StartChar: Egrave
Encoding: 135 200 136
Width: 611
GlyphClass: 2
Flags: MW
HStem: 0 20 327 41<201 355 201 355> 624 38<220 234 234 369>
VStem: 99 102<109 327 368 553 553 553>
LayerCount: 2
Fore
SplineSet
597 169 m 1
 552 0 l 1
 12 0 l 1
 12 19 l 1
 84 23 97 37 99 109 c 2
 99 553 l 2
 97 625 85 638 12 643 c 1
 12 662 l 1
 543 662 l 1
 546 519 l 1
 521 519 l 1
 505 608 485 622 369 624 c 2
 234 624 l 2
 206 624 202 620 201 590 c 2
 201 368 l 1
 355 368 l 2
 439 370 453 382 465 463 c 1
 488 463 l 1
 488 231 l 1
 465 231 l 1
 452 313 439 325 355 327 c 2
 201 327 l 1
 201 80 l 2
 201 41 202 40 306 37 c 2
 333 37 l 2
 476 38 521 63 569 169 c 1
 597 169 l 1
382 719 m 1
 342 719 l 1
 188 816 l 2
 169 827 159 843 159 859 c 0
 159 878 172 890 193 890 c 0
 208 890 216 885 235 867 c 2
 382 719 l 1
EndSplineSet
Validated: 1
EndChar

StartChar: Eacute
Encoding: 136 201 137
Width: 611
GlyphClass: 2
Flags: MW
HStem: 0 20 327 41<201 355 201 355> 624 38<220 234 234 369>
VStem: 99 102<109 327 368 553 553 553>
LayerCount: 2
Fore
SplineSet
597 169 m 1
 552 0 l 1
 12 0 l 1
 12 19 l 1
 84 23 97 37 99 109 c 2
 99 553 l 2
 97 625 85 638 12 643 c 1
 12 662 l 1
 543 662 l 1
 546 519 l 1
 521 519 l 1
 505 608 485 622 369 624 c 2
 234 624 l 2
 206 624 202 620 201 590 c 2
 201 368 l 1
 355 368 l 2
 439 370 453 382 465 463 c 1
 488 463 l 1
 488 231 l 1
 465 231 l 1
 452 313 439 325 355 327 c 2
 201 327 l 1
 201 80 l 2
 201 41 202 40 306 37 c 2
 333 37 l 2
 476 38 521 63 569 169 c 1
 597 169 l 1
273 719 m 1
 233 719 l 1
 380 867 l 2
 398 885 407 890 422 890 c 0
 444 890 457 878 457 858 c 0
 457 842 448 829 427 816 c 2
 273 719 l 1
EndSplineSet
Validated: 1
EndChar

StartChar: Ecircumflex
Encoding: 137 202 138
Width: 611
GlyphClass: 2
Flags: MW
HStem: 0 20 327 41<201 355 201 355> 624 38<220 234 234 369>
VStem: 99 102<109 327 368 553 553 553>
LayerCount: 2
Fore
SplineSet
597 169 m 1
 552 0 l 1
 12 0 l 1
 12 19 l 1
 84 23 97 37 99 109 c 2
 99 553 l 2
 97 625 85 638 12 643 c 1
 12 662 l 1
 543 662 l 1
 546 519 l 1
 521 519 l 1
 505 608 485 622 369 624 c 2
 234 624 l 2
 206 624 202 620 201 590 c 2
 201 368 l 1
 355 368 l 2
 439 370 453 382 465 463 c 1
 488 463 l 1
 488 231 l 1
 465 231 l 1
 452 313 439 325 355 327 c 2
 201 327 l 1
 201 80 l 2
 201 41 202 40 306 37 c 2
 333 37 l 2
 476 38 521 63 569 169 c 1
 597 169 l 1
462 719 m 1
 428 719 l 1
 306 822 l 1
 185 719 l 1
 151 719 l 1
 275 886 l 1
 337 886 l 1
 462 719 l 1
EndSplineSet
Validated: 1
EndChar

StartChar: Edieresis
Encoding: 138 203 139
Width: 611
GlyphClass: 2
Flags: MW
HStem: 0 20 327 41<201 355 201 355> 624 38<220 234 234 369> 735 100<193 219.5 193 219.5 392 418.5>
VStem: 99 102<109 327 368 553 553 553> 158 98<771.5 798.5 771 799> 357 98<771.5 798.5 771 799>
LayerCount: 2
Fore
SplineSet
597 169 m 1xf8
 552 0 l 1
 12 0 l 1
 12 19 l 1
 84 23 97 37 99 109 c 2
 99 553 l 2
 97 625 85 638 12 643 c 1
 12 662 l 1
 543 662 l 1
 546 519 l 1
 521 519 l 1
 505 608 485 622 369 624 c 2
 234 624 l 2
 206 624 202 620 201 590 c 2
 201 368 l 1
 355 368 l 2
 439 370 453 382 465 463 c 1
 488 463 l 1
 488 231 l 1
 465 231 l 1
 452 313 439 325 355 327 c 2
 201 327 l 1
 201 80 l 2
 201 41 202 40 306 37 c 2
 333 37 l 2
 476 38 521 63 569 169 c 1
 597 169 l 1xf8
206 835 m 0xf6
 233 835 256 812 256 785 c 0
 256 757 233 735 206 735 c 0
 179 735 158 757 158 786 c 0
 158 812 180 835 206 835 c 0xf6
405 835 m 0
 432 835 455 812 455 785 c 0
 455 757 432 735 405 735 c 0
 378 735 357 757 357 786 c 0
 357 812 379 835 405 835 c 0
EndSplineSet
Validated: 1
EndChar

StartChar: Igrave
Encoding: 139 204 140
Width: 333
GlyphClass: 2
Flags: MW
HStem: 0 20 642 20<18 315 315 315>
VStem: 115 102<109 553 109 553>
LayerCount: 2
Fore
SplineSet
18 0 m 1
 18 19 l 1
 102 22 114 33 115 109 c 2
 115 553 l 2
 114 628 103 638 18 643 c 1
 18 662 l 1
 315 662 l 1
 315 643 l 1
 232 640 219 628 217 553 c 2
 217 109 l 2
 219 35 233 21 315 19 c 1
 315 0 l 1
 18 0 l 1
243 719 m 1
 203 719 l 1
 49 816 l 2
 30 827 20 843 20 859 c 0
 20 878 33 890 54 890 c 0
 69 890 77 885 96 867 c 2
 243 719 l 1
EndSplineSet
Validated: 1
EndChar

StartChar: Iacute
Encoding: 140 205 141
Width: 333
GlyphClass: 2
Flags: MW
HStem: 0 20 642 20<18 315 315 315>
VStem: 115 102<109 553 109 553>
LayerCount: 2
Fore
SplineSet
18 0 m 1
 18 19 l 1
 102 22 114 33 115 109 c 2
 115 553 l 2
 114 628 103 638 18 643 c 1
 18 662 l 1
 315 662 l 1
 315 643 l 1
 232 640 219 628 217 553 c 2
 217 109 l 2
 219 35 233 21 315 19 c 1
 315 0 l 1
 18 0 l 1
133 719 m 1
 93 719 l 1
 240 867 l 2
 258 885 267 890 282 890 c 0
 304 890 317 878 317 858 c 0
 317 842 308 829 287 816 c 2
 133 719 l 1
EndSplineSet
Validated: 1
EndChar

StartChar: Icircumflex
Encoding: 141 206 142
Width: 333
GlyphClass: 2
Flags: MW
HStem: 0 20 642 20<18 315 315 315>
VStem: 115 102<109 553 109 553>
LayerCount: 2
Fore
SplineSet
18 0 m 1
 18 19 l 1
 102 22 114 33 115 109 c 2
 115 553 l 2
 114 628 103 638 18 643 c 1
 18 662 l 1
 315 662 l 1
 315 643 l 1
 232 640 219 628 217 553 c 2
 217 109 l 2
 219 35 233 21 315 19 c 1
 315 0 l 1
 18 0 l 1
322 719 m 1
 288 719 l 1
 166 822 l 1
 45 719 l 1
 11 719 l 1
 135 886 l 1
 197 886 l 1
 322 719 l 1
EndSplineSet
Validated: 1
EndChar

StartChar: Idieresis
Encoding: 142 207 143
Width: 333
GlyphClass: 2
Flags: MW
HStem: 0 20 642 20<18 315 315 315> 735 100<53 79.5 53 79.5 252 278.5>
VStem: 18 98<771.5 798.5 771 799> 115 102<109 553 109 553> 217 98<0 553 0 109 771.5 798.5>
LayerCount: 2
Fore
SplineSet
18 0 m 1xf4
 18 19 l 1xf4
 102 22 114 33 115 109 c 2
 115 553 l 2xe8
 114 628 103 638 18 643 c 1
 18 662 l 1xf0
 315 662 l 1
 315 643 l 1
 232 640 219 628 217 553 c 2
 217 109 l 2xec
 219 35 233 21 315 19 c 1
 315 0 l 1
 18 0 l 1xf4
66 835 m 0
 93 835 116 812 116 785 c 0
 116 757 93 735 66 735 c 0
 39 735 18 757 18 786 c 0
 18 812 40 835 66 835 c 0
265 835 m 0
 292 835 315 812 315 785 c 0
 315 757 292 735 265 735 c 0
 238 735 217 757 217 786 c 0
 217 812 239 835 265 835 c 0
EndSplineSet
Validated: 1
EndChar

StartChar: Eth
Encoding: 143 208 144
Width: 722
GlyphClass: 2
Flags: MW
HStem: 0 37<238 300> 315 44<21 104 21 104 206 352> 625 37<236 286 286 300.5>
VStem: 104 102<109 315 359 553 553 553> 576 109<285.5 379 285.5 381>
LayerCount: 2
Fore
SplineSet
16 643 m 1
 16 662 l 1
 286 662 l 2
 423 662 532 626 600 557 c 0
 656 502 685 424 685 334 c 0
 685 237 648 148 583 89 c 0
 521 33 416 0 300 0 c 2
 16 0 l 1
 16 19 l 1
 91 24 103 36 104 109 c 2
 104 315 l 1
 21 315 l 1
 21 359 l 1
 104 359 l 1
 104 553 l 2
 103 628 95 636 16 643 c 1
352 359 m 1
 352 315 l 1
 206 315 l 1
 206 78 l 2
 206 46 218 37 258 37 c 0
 345 37 403 49 454 78 c 0
 535 125 576 209 576 327 c 0
 576 435 535 521 457 575 c 0
 409 609 345 625 256 625 c 0
 216 625 206 617 206 586 c 2
 206 359 l 1
 352 359 l 1
EndSplineSet
Validated: 1
EndChar

StartChar: Ntilde
Encoding: 144 209 145
Width: 722
GlyphClass: 2
Flags: MW
HStem: -11 20 0 20 642 20<12 183 183 183 472 707 707 707> 744 56<436.5 448.5> 790 55<272 282>
VStem: 109 44<147 539 147 588> 568 44<178 515 -11 515>
LayerCount: 2
Fore
SplineSet
707 662 m 1x66
 707 643 l 1
 628 636 615 619 612 515 c 2
 612 -11 l 1
 595 -11 l 1xb6
 153 539 l 1
 153 147 l 2
 155 44 170 23 247 19 c 1
 247 0 l 1
 12 0 l 1
 12 19 l 1
 94 24 107 41 109 147 c 2
 109 588 l 1
 69 635 55 643 12 643 c 1
 12 662 l 1
 183 662 l 1
 568 178 l 1
 568 515 l 2
 565 621 552 638 472 643 c 1
 472 662 l 1
 707 662 l 1x66
497 850 m 1
 526 850 l 1
 505 774 476 744 421 744 c 0x16
 396 744 381 748 340 768 c 2
 317 779 l 2
 302 786 288 790 276 790 c 0x0e
 253 790 236 775 225 744 c 1
 196 744 l 1x16
 211 809 247 845 297 845 c 0x0e
 319 845 344 839 367 827 c 2
 391 815 l 2
 410 806 429 800 444 800 c 0
 467 800 480 812 497 850 c 1
EndSplineSet
Validated: 1
EndChar

StartChar: Ograve
Encoding: 145 210 146
Width: 722
GlyphClass: 2
Flags: MW
HStem: -14 36<336 385.5 336 453.5> 640 36<333.5 384>
VStem: 34 114<284 380 273.5 432> 574 114<298.5 376.5 226 387.5>
LayerCount: 2
Fore
SplineSet
361 676 m 0
 457 676 541 640 604 571 c 0
 659 512 688 426 688 327 c 0
 688 125 552 -14 355 -14 c 0
 267 -14 178 25 120 88 c 0
 66 145 34 237 34 331 c 0
 34 533 170 676 361 676 c 0
361 640 m 0
 306 640 257 618 218 575 c 0
 176 528 148 431 148 329 c 0
 148 218 181 117 232 71 c 0
 268 40 313 22 359 22 c 0
 412 22 457 40 492 75 c 0
 515 98 532 123 541 148 c 0
 561 200 574 269 574 328 c 0
 574 447 543 541 489 590 c 0
 453 622 407 640 361 640 c 0
437 719 m 1
 397 719 l 1
 243 816 l 2
 224 828 214 843 214 859 c 0
 214 878 227 890 248 890 c 0
 263 890 272 885 290 867 c 2
 437 719 l 1
EndSplineSet
Validated: 1
EndChar

StartChar: Oacute
Encoding: 146 211 147
Width: 722
GlyphClass: 2
Flags: MW
HStem: -14 36<336 385.5 336 453.5> 640 36<333.5 384>
VStem: 34 114<284 380 273.5 432> 574 114<298.5 376.5 226 387.5>
LayerCount: 2
Fore
SplineSet
361 676 m 0
 457 676 541 640 604 571 c 0
 659 512 688 426 688 327 c 0
 688 125 552 -14 355 -14 c 0
 267 -14 178 25 120 88 c 0
 66 145 34 237 34 331 c 0
 34 533 170 676 361 676 c 0
361 640 m 0
 306 640 257 618 218 575 c 0
 176 528 148 431 148 329 c 0
 148 218 181 117 232 71 c 0
 268 40 313 22 359 22 c 0
 412 22 457 40 492 75 c 0
 515 98 532 123 541 148 c 0
 561 200 574 269 574 328 c 0
 574 447 543 541 489 590 c 0
 453 622 407 640 361 640 c 0
328 719 m 1
 288 719 l 1
 435 867 l 2
 453 885 462 890 477 890 c 0
 499 890 512 878 512 858 c 0
 512 842 503 829 482 816 c 2
 328 719 l 1
EndSplineSet
Validated: 1
EndChar

StartChar: Ocircumflex
Encoding: 147 212 148
Width: 722
GlyphClass: 2
Flags: MW
HStem: -14 36<336 385.5 336 453.5> 640 36<333.5 384>
VStem: 34 114<284 380 273.5 432> 574 114<298.5 376.5 226 387.5>
LayerCount: 2
Fore
SplineSet
361 676 m 0
 457 676 541 640 604 571 c 0
 659 512 688 426 688 327 c 0
 688 125 552 -14 355 -14 c 0
 267 -14 178 25 120 88 c 0
 66 145 34 237 34 331 c 0
 34 533 170 676 361 676 c 0
361 640 m 0
 306 640 257 618 218 575 c 0
 176 528 148 431 148 329 c 0
 148 218 181 117 232 71 c 0
 268 40 313 22 359 22 c 0
 412 22 457 40 492 75 c 0
 515 98 532 123 541 148 c 0
 561 200 574 269 574 328 c 0
 574 447 543 541 489 590 c 0
 453 622 407 640 361 640 c 0
517 719 m 1
 483 719 l 1
 361 822 l 1
 240 719 l 1
 206 719 l 1
 330 886 l 1
 392 886 l 1
 517 719 l 1
EndSplineSet
Validated: 1
EndChar

StartChar: Otilde
Encoding: 148 213 149
Width: 722
GlyphClass: 2
Flags: MW
HStem: -14 36<336 385.5 336 453.5> 640 36<333.5 384> 744 56<436.5 448.5> 790 55<272 282>
VStem: 34 114<284 380 273.5 432> 574 114<298.5 376.5 226 387.5>
LayerCount: 2
Fore
SplineSet
361 676 m 0xec
 457 676 541 640 604 571 c 0
 659 512 688 426 688 327 c 0
 688 125 552 -14 355 -14 c 0
 267 -14 178 25 120 88 c 0
 66 145 34 237 34 331 c 0
 34 533 170 676 361 676 c 0xec
361 640 m 0
 306 640 257 618 218 575 c 0
 176 528 148 431 148 329 c 0
 148 218 181 117 232 71 c 0
 268 40 313 22 359 22 c 0
 412 22 457 40 492 75 c 0
 515 98 532 123 541 148 c 0
 561 200 574 269 574 328 c 0
 574 447 543 541 489 590 c 0
 453 622 407 640 361 640 c 0
497 850 m 1
 526 850 l 1
 505 774 476 744 421 744 c 0x2c
 396 744 381 748 340 768 c 2
 317 779 l 2
 302 786 288 790 276 790 c 0x1c
 253 790 236 775 225 744 c 1
 196 744 l 1x2c
 211 809 247 845 297 845 c 0x1c
 319 845 344 839 367 827 c 2
 391 815 l 2
 410 806 429 800 444 800 c 0
 467 800 480 812 497 850 c 1
EndSplineSet
Validated: 1
EndChar

StartChar: Odieresis
Encoding: 149 214 150
Width: 722
GlyphClass: 2
Flags: MW
HStem: -14 36<336 385.5 336 453.5> 640 36<333.5 384> 735 100<248 274.5 248 274.5 447 473.5>
VStem: 34 114<284 380 273.5 432> 213 98<771.5 798.5 771 799> 412 98<771.5 798.5 771 799> 574 114<298.5 376.5 226 387.5>
LayerCount: 2
Fore
SplineSet
361 676 m 0
 457 676 541 640 604 571 c 0
 659 512 688 426 688 327 c 0
 688 125 552 -14 355 -14 c 0
 267 -14 178 25 120 88 c 0
 66 145 34 237 34 331 c 0
 34 533 170 676 361 676 c 0
361 640 m 0
 306 640 257 618 218 575 c 0
 176 528 148 431 148 329 c 0
 148 218 181 117 232 71 c 0
 268 40 313 22 359 22 c 0
 412 22 457 40 492 75 c 0
 515 98 532 123 541 148 c 0
 561 200 574 269 574 328 c 0
 574 447 543 541 489 590 c 0
 453 622 407 640 361 640 c 0
261 835 m 0
 288 835 311 812 311 785 c 0
 311 757 288 735 261 735 c 0
 234 735 213 757 213 786 c 0
 213 812 235 835 261 835 c 0
460 835 m 0
 487 835 510 812 510 785 c 0
 510 757 487 735 460 735 c 0
 433 735 412 757 412 786 c 0
 412 812 434 835 460 835 c 0
EndSplineSet
Validated: 1
EndChar

StartChar: multiply
Encoding: 150 215 151
Width: 564
GlyphClass: 2
Flags: W
LayerCount: 2
Fore
SplineSet
243 306 m 1
 47 502 l 1
 86 541 l 1
 282 344 l 1
 479 541 l 1
 517 502 l 1
 320 306 l 1
 517 109 l 1
 479 71 l 1
 282 268 l 1
 86 71 l 1
 47 109 l 1
 243 306 l 1
EndSplineSet
Validated: 1
EndChar

StartChar: Oslash
Encoding: 151 216 152
Width: 722
GlyphClass: 2
Flags: MW
HStem: -14 36<332 427 332 456.5> 640 36<295.5 389>
VStem: 34 114<298 425.5 286 431.5> 574 114<234.5 364 229.5 374.5>
LayerCount: 2
Fore
SplineSet
658 734 m 1
 570 604 l 1
 611 566 628 546 646 511 c 0
 673 461 688 396 688 332 c 0
 688 127 554 -14 359 -14 c 0
 292 -14 246 -1 184 36 c 1
 105 -80 l 1
 56 -80 l 1
 151 59 l 1
 109 97 93 117 75 152 c 0
 49 202 34 266 34 330 c 0
 34 533 169 676 362 676 c 0
 428 676 473 663 537 627 c 1
 609 734 l 1
 658 734 l 1
527 540 m 1
 219 88 l 1
 262 41 303 22 361 22 c 0
 493 22 574 139 574 330 c 0
 574 419 561 475 527 540 c 1
194 123 m 1
 502 575 l 1
 458 621 417 640 361 640 c 0
 230 640 148 521 148 330 c 0
 148 242 160 187 194 123 c 1
EndSplineSet
Validated: 1
EndChar

StartChar: Ugrave
Encoding: 152 217 153
Width: 722
GlyphClass: 2
Flags: MW
HStem: -14 44<342.5 409.5> 642 20<14 297 297 297 473 705 705 705>
VStem: 104 102<241 553> 567 44<245 254 254 515>
LayerCount: 2
Fore
SplineSet
705 662 m 1
 705 643 l 1
 624 634 613 620 611 515 c 2
 611 254 l 2
 611 177 602 131 578 89 c 0
 539 21 464 -14 355 -14 c 0
 185 -14 104 68 104 241 c 2
 104 553 l 2
 103 627 93 637 14 643 c 1
 14 662 l 1
 297 662 l 1
 297 643 l 1
 217 636 207 626 206 553 c 2
 206 233 l 2
 206 170 213 133 231 101 c 0
 258 54 307 30 378 30 c 0
 453 30 517 61 544 109 c 0
 560 139 567 177 567 245 c 2
 567 515 l 2
 565 618 550 638 473 643 c 1
 473 662 l 1
 705 662 l 1
455 719 m 1
 415 719 l 1
 261 816 l 2
 242 827 232 843 232 859 c 0
 232 878 245 890 266 890 c 0
 281 890 289 885 308 867 c 2
 455 719 l 1
EndSplineSet
Validated: 1
EndChar

StartChar: Uacute
Encoding: 153 218 154
Width: 722
GlyphClass: 2
Flags: MW
HStem: -14 44<342.5 409.5> 642 20<14 297 297 297 473 705 705 705>
VStem: 104 102<241 553> 567 44<245 254 254 515>
LayerCount: 2
Fore
SplineSet
705 662 m 1
 705 643 l 1
 624 634 613 620 611 515 c 2
 611 254 l 2
 611 177 602 131 578 89 c 0
 539 21 464 -14 355 -14 c 0
 185 -14 104 68 104 241 c 2
 104 553 l 2
 103 627 93 637 14 643 c 1
 14 662 l 1
 297 662 l 1
 297 643 l 1
 217 636 207 626 206 553 c 2
 206 233 l 2
 206 170 213 133 231 101 c 0
 258 54 307 30 378 30 c 0
 453 30 517 61 544 109 c 0
 560 139 567 177 567 245 c 2
 567 515 l 2
 565 618 550 638 473 643 c 1
 473 662 l 1
 705 662 l 1
353 719 m 1
 313 719 l 1
 460 867 l 2
 478 885 487 890 502 890 c 0
 524 890 537 878 537 858 c 0
 537 842 528 829 507 816 c 2
 353 719 l 1
EndSplineSet
Validated: 1
EndChar

StartChar: Ucircumflex
Encoding: 154 219 155
Width: 722
GlyphClass: 2
Flags: MW
HStem: -14 44<342.5 409.5> 642 20<14 297 297 297 473 705 705 705>
VStem: 104 102<241 553> 567 44<245 254 254 515>
LayerCount: 2
Fore
SplineSet
705 662 m 1
 705 643 l 1
 624 634 613 620 611 515 c 2
 611 254 l 2
 611 177 602 131 578 89 c 0
 539 21 464 -14 355 -14 c 0
 185 -14 104 68 104 241 c 2
 104 553 l 2
 103 627 93 637 14 643 c 1
 14 662 l 1
 297 662 l 1
 297 643 l 1
 217 636 207 626 206 553 c 2
 206 233 l 2
 206 170 213 133 231 101 c 0
 258 54 307 30 378 30 c 0
 453 30 517 61 544 109 c 0
 560 139 567 177 567 245 c 2
 567 515 l 2
 565 618 550 638 473 643 c 1
 473 662 l 1
 705 662 l 1
536 719 m 1
 502 719 l 1
 380 822 l 1
 259 719 l 1
 225 719 l 1
 349 886 l 1
 411 886 l 1
 536 719 l 1
EndSplineSet
Validated: 1
EndChar

StartChar: Udieresis
Encoding: 155 220 156
Width: 722
GlyphClass: 2
Flags: MW
HStem: -14 44<342.5 409.5> 642 20<14 297 297 297 473 705 705 705> 735 100<266 292.5 266 292.5 465 491.5>
VStem: 104 102<241 553> 231 98<771.5 798.5 771 799> 430 98<771.5 798.5 771 799> 567 44<245 254 254 515>
LayerCount: 2
Fore
SplineSet
705 662 m 1
 705 643 l 1
 624 634 613 620 611 515 c 2
 611 254 l 2
 611 177 602 131 578 89 c 0
 539 21 464 -14 355 -14 c 0
 185 -14 104 68 104 241 c 2
 104 553 l 2
 103 627 93 637 14 643 c 1
 14 662 l 1
 297 662 l 1
 297 643 l 1
 217 636 207 626 206 553 c 2
 206 233 l 2
 206 170 213 133 231 101 c 0
 258 54 307 30 378 30 c 0
 453 30 517 61 544 109 c 0
 560 139 567 177 567 245 c 2
 567 515 l 2
 565 618 550 638 473 643 c 1
 473 662 l 1
 705 662 l 1
279 835 m 0
 306 835 329 812 329 785 c 0
 329 757 306 735 279 735 c 0
 252 735 231 757 231 786 c 0
 231 812 253 835 279 835 c 0
478 835 m 0
 505 835 528 812 528 785 c 0
 528 757 505 735 478 735 c 0
 451 735 430 757 430 786 c 0
 430 812 452 835 478 835 c 0
EndSplineSet
Validated: 1
EndChar

StartChar: Yacute
Encoding: 156 221 157
Width: 722
GlyphClass: 2
Flags: MW
HStem: 0 20 642 20<277 279>
VStem: 315 102<120 294 294 294>
LayerCount: 2
Fore
SplineSet
703 662 m 1
 703 643 l 1
 652 639 626 617 565 529 c 2
 417 303 l 1
 417 109 l 2
 418 32 431 21 520 19 c 1
 520 0 l 1
 214 0 l 1
 214 19 l 1
 305 23 314 32 315 120 c 2
 315 294 l 1
 184 486 l 2
 84 627 70 641 22 643 c 1
 22 662 l 1
 302 662 l 1
 302 643 l 1
 291 642 281 642 277 642 c 0
 245 640 231 632 231 613 c 0
 231 602 237 585 248 569 c 2
 396 347 l 1
 539 573 l 2
 549 588 553 600 553 610 c 0
 553 634 536 642 484 643 c 1
 484 662 l 1
 703 662 l 1
386 719 m 1
 346 719 l 1
 493 867 l 2
 511 885 520 890 535 890 c 0
 557 890 570 878 570 858 c 0
 570 842 561 829 540 816 c 2
 386 719 l 1
EndSplineSet
Validated: 1
EndChar

StartChar: Thorn
Encoding: 157 222 158
Width: 556
GlyphClass: 2
Flags: MW
HStem: 0 20 158 40<258 310.5> 494 38<221 282 282 303> 642 20<16 293 293 293>
VStem: 100 102<120 161 109 201 201 461> 433 109<318 396.5>
LayerCount: 2
Fore
SplineSet
296 19 m 1
 296 0 l 1
 16 0 l 1
 16 19 l 1
 92 26 99 35 100 120 c 2
 100 553 l 2
 99 626 90 635 16 643 c 1
 16 662 l 1
 293 662 l 1
 293 643 l 1
 211 636 201 623 202 532 c 1
 282 532 l 2
 442 532 542 462 542 351 c 0
 542 285 505 224 446 192 c 0
 403 168 350 158 271 158 c 0
 245 158 228 159 202 161 c 1
 202 109 l 2
 203 35 217 21 296 19 c 1
202 461 m 2
 202 201 l 1
 224 199 238 198 259 198 c 0
 374 198 433 248 433 345 c 0
 433 448 372 494 234 494 c 0
 208 494 202 487 202 461 c 2
EndSplineSet
Validated: 33
EndChar

StartChar: germandbls
Encoding: 158 223 159
Width: 500
GlyphClass: 2
Flags: MW
HStem: -9 29<300.5 331 300.5 339.5> 0 20 656 27<217 271.5>
VStem: 73 84<84 454 454 489> 334 87<495 560.5> 374 94<131 214.5 131 217.5>
LayerCount: 2
Fore
SplineSet
12 0 m 1x78
 12 15 l 1
 62 18 71 29 73 84 c 2
 73 454 l 2
 73 524 82 569 103 606 c 0
 132 657 183 683 251 683 c 0
 355 683 421 624 421 531 c 0xb8
 421 459 391 426 284 377 c 1
 345 365 374 354 406 326 c 0
 446 292 468 243 468 186 c 0
 468 76 390 -9 289 -9 c 0
 232 -9 192 21 192 64 c 0
 192 91 211 112 237 112 c 0
 259 112 277 95 279 72 c 2
 281 50 l 2
 283 28 291 20 310 20 c 0
 352 20 374 65 374 150 c 0xa4
 374 285 330 354 242 357 c 0
 219 358 210 363 210 374 c 0
 210 383 218 387 239 389 c 0
 304 396 334 437 334 517 c 0
 334 604 300 656 243 656 c 0
 190 656 157 614 157 549 c 2
 157 0 l 1
 12 0 l 1x78
EndSplineSet
Validated: 1
EndChar

StartChar: agrave
Encoding: 159 224 160
Width: 444
GlyphClass: 2
Flags: MW
HStem: -10 57<331.5 405.5> -10 58<111.5 198.5> 436 24<191 235.5> 658 20<129.5 147.5>
VStem: 56 83<336.5 400.5> 287 81<123 268 268 268 292 300>
LayerCount: 2
Fore
SplineSet
442 66 m 1xac
 442 40 l 1
 407 2 386 -10 352 -10 c 0x8c
 311 -10 293 10 288 63 c 1
 227 11 186 -10 142 -10 c 0x4c
 81 -10 37 34 37 97 c 0
 37 130 51 164 73 184 c 0
 116 222 133 230 287 292 c 1
 287 353 l 2
 287 407 260 436 211 436 c 0
 171 436 139 414 139 387 c 0
 139 380 140 372 142 363 c 0
 143 356 144 351 144 347 c 0
 144 325 123 305 99 305 c 0
 75 305 56 325 56 348 c 0
 56 411 130 460 224 460 c 0
 283 460 326 441 348 405 c 0
 363 381 368 352 368 300 c 2
 368 105 l 2
 368 61 375 47 398 47 c 0
 413 47 425 52 442 66 c 1xac
287 123 m 2x5c
 287 268 l 1
 170 227 126 189 125 129 c 2
 125 125 l 2
 125 82 153 48 188 48 c 0
 209 48 236 56 261 70 c 0
 282 82 287 93 287 123 c 2x5c
329 507 m 1
 289 507 l 1
 135 604 l 2
 116 616 106 631 106 647 c 0
 106 666 119 678 140 678 c 0
 155 678 164 673 182 655 c 2
 329 507 l 1
EndSplineSet
Validated: 1
EndChar

StartChar: aacute
Encoding: 160 225 161
Width: 444
GlyphClass: 2
Flags: MW
HStem: -10 57<331.5 405.5> -10 58<111.5 198.5> 436 24<191 235.5> 658 20<304.5 323>
VStem: 56 83<336.5 400.5> 287 81<123 268 268 268 292 300>
LayerCount: 2
Fore
SplineSet
442 66 m 1xac
 442 40 l 1
 407 2 386 -10 352 -10 c 0x8c
 311 -10 293 10 288 63 c 1
 227 11 186 -10 142 -10 c 0x4c
 81 -10 37 34 37 97 c 0
 37 130 51 164 73 184 c 0
 116 222 133 230 287 292 c 1
 287 353 l 2
 287 407 260 436 211 436 c 0
 171 436 139 414 139 387 c 0
 139 380 140 372 142 363 c 0
 143 356 144 351 144 347 c 0
 144 325 123 305 99 305 c 0
 75 305 56 325 56 348 c 0
 56 411 130 460 224 460 c 0
 283 460 326 441 348 405 c 0
 363 381 368 352 368 300 c 2
 368 105 l 2
 368 61 375 47 398 47 c 0
 413 47 425 52 442 66 c 1xac
287 123 m 2x5c
 287 268 l 1
 170 227 126 189 125 129 c 2
 125 125 l 2
 125 82 153 48 188 48 c 0
 209 48 236 56 261 70 c 0
 282 82 287 93 287 123 c 2x5c
163 507 m 1
 123 507 l 1
 270 655 l 2
 288 673 297 678 312 678 c 0
 334 678 347 666 347 646 c 0
 347 630 338 617 317 604 c 2
 163 507 l 1
EndSplineSet
Validated: 1
EndChar

StartChar: acircumflex
Encoding: 161 226 162
Width: 444
GlyphClass: 2
Flags: MW
HStem: -10 57<331.5 405.5> -10 58<111.5 198.5> 436 24<191 235.5> 654 20<191 253 253 253>
VStem: 56 83<336.5 400.5> 287 81<123 268 268 268 292 300>
LayerCount: 2
Fore
SplineSet
442 66 m 1xac
 442 40 l 1
 407 2 386 -10 352 -10 c 0x8c
 311 -10 293 10 288 63 c 1
 227 11 186 -10 142 -10 c 0x4c
 81 -10 37 34 37 97 c 0
 37 130 51 164 73 184 c 0
 116 222 133 230 287 292 c 1
 287 353 l 2
 287 407 260 436 211 436 c 0
 171 436 139 414 139 387 c 0
 139 380 140 372 142 363 c 0
 143 356 144 351 144 347 c 0
 144 325 123 305 99 305 c 0
 75 305 56 325 56 348 c 0
 56 411 130 460 224 460 c 0
 283 460 326 441 348 405 c 0
 363 381 368 352 368 300 c 2
 368 105 l 2
 368 61 375 47 398 47 c 0
 413 47 425 52 442 66 c 1xac
287 123 m 2x5c
 287 268 l 1
 170 227 126 189 125 129 c 2
 125 125 l 2
 125 82 153 48 188 48 c 0
 209 48 236 56 261 70 c 0
 282 82 287 93 287 123 c 2x5c
378 507 m 1
 344 507 l 1
 222 610 l 1
 101 507 l 1
 67 507 l 1
 191 674 l 1
 253 674 l 1
 378 507 l 1
EndSplineSet
Validated: 1
EndChar

StartChar: atilde
Encoding: 162 227 163
Width: 444
GlyphClass: 2
Flags: MW
HStem: -10 57<331.5 405.5> -10 58<111.5 198.5> 436 24<191 235.5> 532 56<297 309> 578 55<133 142.5>
VStem: 56 83<336.5 400.5> 287 81<123 268 268 268 292 300>
LayerCount: 2
Fore
SplineSet
442 66 m 1xa6
 442 40 l 1
 407 2 386 -10 352 -10 c 0x86
 311 -10 293 10 288 63 c 1
 227 11 186 -10 142 -10 c 0x46
 81 -10 37 34 37 97 c 0
 37 130 51 164 73 184 c 0
 116 222 133 230 287 292 c 1
 287 353 l 2
 287 407 260 436 211 436 c 0
 171 436 139 414 139 387 c 0
 139 380 140 372 142 363 c 0
 143 356 144 351 144 347 c 0
 144 325 123 305 99 305 c 0
 75 305 56 325 56 348 c 0
 56 411 130 460 224 460 c 0
 283 460 326 441 348 405 c 0
 363 381 368 352 368 300 c 2
 368 105 l 2
 368 61 375 47 398 47 c 0
 413 47 425 52 442 66 c 1xa6
287 123 m 2x56
 287 268 l 1
 170 227 126 189 125 129 c 2
 125 125 l 2
 125 82 153 48 188 48 c 0
 209 48 236 56 261 70 c 0
 282 82 287 93 287 123 c 2x56
358 638 m 1
 387 638 l 1
 366 562 337 532 281 532 c 0x16
 256 532 242 536 201 556 c 2
 178 567 l 2
 163 574 148 578 137 578 c 0x0e
 113 578 97 563 86 532 c 1
 57 532 l 1x16
 72 597 108 633 158 633 c 0x0e
 180 633 204 627 228 615 c 2
 252 603 l 2
 270 594 290 588 304 588 c 0
 327 588 340 600 358 638 c 1
EndSplineSet
Validated: 1
EndChar

StartChar: adieresis
Encoding: 163 228 164
Width: 444
GlyphClass: 2
Flags: MW
HStem: -10 57<331.5 405.5> -10 58<111.5 198.5> 436 24<191 235.5> 523 100<109 135.5 109 135.5 308 334.5>
VStem: 56 83<336.5 400.5> 74 98<559.5 586.5 559 587> 273 98<559.5 586.5 559 587> 287 81<123 268 268 268 292 300>
LayerCount: 2
Fore
SplineSet
442 66 m 1xa9
 442 40 l 1
 407 2 386 -10 352 -10 c 0x89
 311 -10 293 10 288 63 c 1
 227 11 186 -10 142 -10 c 0x49
 81 -10 37 34 37 97 c 0
 37 130 51 164 73 184 c 0
 116 222 133 230 287 292 c 1
 287 353 l 2
 287 407 260 436 211 436 c 0
 171 436 139 414 139 387 c 0
 139 380 140 372 142 363 c 0
 143 356 144 351 144 347 c 0
 144 325 123 305 99 305 c 0
 75 305 56 325 56 348 c 0
 56 411 130 460 224 460 c 0
 283 460 326 441 348 405 c 0
 363 381 368 352 368 300 c 2
 368 105 l 2
 368 61 375 47 398 47 c 0
 413 47 425 52 442 66 c 1xa9
287 123 m 2
 287 268 l 1
 170 227 126 189 125 129 c 2
 125 125 l 2
 125 82 153 48 188 48 c 0x59
 209 48 236 56 261 70 c 0
 282 82 287 93 287 123 c 2
122 623 m 0
 149 623 172 600 172 573 c 0
 172 545 149 523 122 523 c 0
 95 523 74 545 74 574 c 0x56
 74 600 96 623 122 623 c 0
321 623 m 0
 348 623 371 600 371 573 c 0
 371 545 348 523 321 523 c 0
 294 523 273 545 273 574 c 0
 273 600 295 623 321 623 c 0
EndSplineSet
Validated: 1
EndChar

StartChar: aring
Encoding: 164 229 165
Width: 444
GlyphClass: 2
Flags: MW
HStem: -10 57<331.5 405.5> -10 58<111.5 198.5> 436 24<191 235.5> 523 34<203.5 240 203.5 249.5> 688 34<205 240.5>
VStem: 56 83<336.5 400.5> 123 34<604.5 641 604.5 650> 287 81<123 268 268 268 292 300> 288 34<604 640>
LayerCount: 2
Fore
SplineSet
442 66 m 1xa5
 442 40 l 1
 407 2 386 -10 352 -10 c 0x83
 311 -10 293 10 288 63 c 1
 227 11 186 -10 142 -10 c 0x4080
 81 -10 37 34 37 97 c 0
 37 130 51 164 73 184 c 0
 116 222 133 230 287 292 c 1
 287 353 l 2
 287 407 260 436 211 436 c 0
 171 436 139 414 139 387 c 0
 139 380 140 372 142 363 c 0
 143 356 144 351 144 347 c 0
 144 325 123 305 99 305 c 0
 75 305 56 325 56 348 c 0
 56 411 130 460 224 460 c 0
 283 460 326 441 348 405 c 0
 363 381 368 352 368 300 c 2
 368 105 l 2
 368 61 375 47 398 47 c 0
 413 47 425 52 442 66 c 1xa5
287 123 m 2
 287 268 l 1
 170 227 126 189 125 129 c 2
 125 125 l 2
 125 82 153 48 188 48 c 0x5b
 209 48 236 56 261 70 c 0
 282 82 287 93 287 123 c 2
222 722 m 0
 277 722 322 677 322 622 c 0x5a80
 322 567 277 523 222 523 c 0
 166 523 123 567 123 623 c 0
 123 677 168 722 222 722 c 0
223 688 m 0
 187 688 157 659 157 623 c 0
 157 586 186 557 221 557 c 0
 259 557 288 586 288 622 c 0
 288 658 258 688 223 688 c 0
EndSplineSet
Validated: 1
EndChar

StartChar: ae
Encoding: 165 230 166
Width: 667
GlyphClass: 2
Flags: MW
HStem: -10 48<173.5 179> -10 67<455.5 458> 277 30<355 521 355 616 354 521> 431 29<432.5 469> 436 24<191.5 225>
VStem: 38 87<101 130> 60 85<380 382.5>
LayerCount: 2
Fore
SplineSet
620 154 m 1x72
 632 149 l 1
 604 90 586 62 558 38 c 0xb4
 523 6 481 -10 435 -10 c 0x44
 377 -10 340 11 306 63 c 1
 238 6 204 -10 154 -10 c 0
 86 -10 38 35 38 100 c 0x8c
 38 160 80 201 187 245 c 2
 273 281 l 1
 275 344 l 2
 275 367 270 398 263 414 c 0
 256 428 237 436 213 436 c 0
 170 436 147 419 145 386 c 2
 145 380 l 1
 146 369 l 2
 147 363 147 356 147 352 c 0
 147 321 132 304 104 304 c 0
 77 304 60 322 60 352 c 0
 60 413 129 460 219 460 c 0x8a
 269 460 298 449 337 415 c 1
 382 450 409 460 456 460 c 0
 557 460 604 406 616 277 c 1
 354 277 l 1
 354 177 359 146 381 107 c 0
 397 77 435 57 476 57 c 0
 533 57 572 83 620 154 c 1x72
274 201 m 2
 273 253 l 1
 152 209 125 185 125 125 c 0
 125 77 155 38 192 38 c 0
 228 38 293 70 293 88 c 0
 293 89 293 90 292 91 c 0
 281 127 275 164 274 201 c 2
355 307 m 1
 521 307 l 1
 519 395 496 431 442 431 c 0
 385 431 360 395 355 307 c 1
EndSplineSet
Validated: 1
EndChar

StartChar: C3
Encoding: 166 231 167
Width: 444
GlyphClass: 2
Flags: HMW
HStem: -180 29<176.5 204 176.5 230.5> -84 31<183 258.5> 431 29<219.5 256>
VStem: 25 77<199.5 252> 242 75<-125.5 -103>
LayerCount: 2
Fore
SplineSet
195 303 m 4xe0
 224 303 247 281 247 252 c 4
 247 223 225 201 195 201 c 4
 167 201 145 223 145 252 c 4
 145 280 168 303 195 303 c 4xe0
EndSplineSet
Refer: 68 99 N 1 0 0 1 0 0 2
Validated: 5
EndChar

StartChar: egrave
Encoding: 167 232 168
Width: 444
GlyphClass: 2
Flags: MW
HStem: -10 69<231.5 267> 277 32<106 310 106 412 104 310> 424 36<216 242.5> 658 20<147.5 165.5>
LayerCount: 2
Fore
SplineSet
415 164 m 1
 431 157 l 1
 389 49 315 -10 219 -10 c 0
 104 -10 32 76 32 214 c 0
 32 296 59 367 106 408 c 0
 144 442 191 460 241 460 c 0
 293 460 339 439 369 403 c 0
 394 371 404 342 412 277 c 1
 104 277 l 1
 106 215 113 183 131 145 c 0
 160 88 203 59 260 59 c 0
 324 59 367 88 415 164 c 1
106 309 m 1
 310 309 l 1
 297 396 273 424 212 424 c 0
 151 424 117 388 106 309 c 1
347 507 m 1
 307 507 l 1
 153 604 l 2
 134 616 124 631 124 647 c 0
 124 666 137 678 158 678 c 0
 173 678 182 673 200 655 c 2
 347 507 l 1
EndSplineSet
Validated: 1
EndChar

StartChar: Y3
Encoding: 168 233 169
Width: 500
GlyphClass: 2
Flags: HMW
HStem: -10 69<230.5 266> 277 32<105 309 105 411 103 309> 424 36<215 241.5> 658 20<328.5 347>
LayerCount: 2
Fore
SplineSet
475 137 m 1
 420 0 l 1
 30 0 l 1
 30 12 l 1
 208 201 l 2
 292 290 338 382 338 461 c 0
 338 545 282 602 197 602 c 0
 127 602 92 570 52 472 c 1
 31 477 l 1
 48 548 63 580 95 614 c 0
 132 654 184 676 239 676 c 0
 343 676 424 599 424 500 c 0
 424 421 385 345 296 252 c 2
 128 76 l 1
 367 76 l 2
 414 77 425 84 462 142 c 1
 475 137 l 1
251 -233 m 4xe0
 280 -233 303 -211 303 -182 c 4
 303 -153 281 -131 251 -131 c 4
 223 -131 201 -153 201 -182 c 4
 201 -210 224 -233 251 -233 c 4xe0
EndSplineSet
Validated: 9
Ligature2: "Y3" Y2 COMB3
Ligature2: "Y3" Y1 COMB3
LCarets2: 1 0
EndChar

StartChar: ecircumflex
Encoding: 169 234 170
Width: 444
GlyphClass: 2
Flags: MW
HStem: -10 69<233.5 269> 277 32<108 312 108 414 106 312> 424 36<218 244.5> 654 20<207 269 269 269>
LayerCount: 2
Fore
SplineSet
417 164 m 1
 433 157 l 1
 391 49 317 -10 221 -10 c 0
 106 -10 34 76 34 214 c 0
 34 296 61 367 108 408 c 0
 146 442 193 460 243 460 c 0
 295 460 341 439 371 403 c 0
 396 371 406 342 414 277 c 1
 106 277 l 1
 108 215 115 183 133 145 c 0
 162 88 205 59 262 59 c 0
 326 59 369 88 417 164 c 1
108 309 m 1
 312 309 l 1
 299 396 275 424 214 424 c 0
 153 424 119 388 108 309 c 1
394 507 m 1
 360 507 l 1
 238 610 l 1
 117 507 l 1
 83 507 l 1
 207 674 l 1
 269 674 l 1
 394 507 l 1
EndSplineSet
Validated: 1
EndChar

StartChar: edieresis
Encoding: 170 235 171
Width: 444
GlyphClass: 2
Flags: MW
HStem: -10 69<233.5 269> 277 32<108 312 108 414 106 312> 424 36<218 244.5> 523 100<129 155.5 129 155.5 328 354.5>
VStem: 94 98<559.5 586.5 559 587> 293 98<559.5 586.5 559 587>
LayerCount: 2
Fore
SplineSet
417 164 m 1
 433 157 l 1
 391 49 317 -10 221 -10 c 0
 106 -10 34 76 34 214 c 0
 34 296 61 367 108 408 c 0
 146 442 193 460 243 460 c 0
 295 460 341 439 371 403 c 0
 396 371 406 342 414 277 c 1
 106 277 l 1
 108 215 115 183 133 145 c 0
 162 88 205 59 262 59 c 0
 326 59 369 88 417 164 c 1
108 309 m 1
 312 309 l 1
 299 396 275 424 214 424 c 0
 153 424 119 388 108 309 c 1
142 623 m 0
 169 623 192 600 192 573 c 0
 192 545 169 523 142 523 c 0
 115 523 94 545 94 574 c 0
 94 600 116 623 142 623 c 0
341 623 m 0
 368 623 391 600 391 573 c 0
 391 545 368 523 341 523 c 0
 314 523 293 545 293 574 c 0
 293 600 315 623 341 623 c 0
EndSplineSet
Validated: 1
EndChar

StartChar: igrave
Encoding: 171 236 172
Width: 278
GlyphClass: 2
Flags: MW
HStem: 0 20 658 20<15.5 33.5>
VStem: 95 84<102 334 334 356>
LayerCount: 2
Fore
SplineSet
16 0 m 1
 16 15 l 1
 84 18 93 28 95 102 c 2
 95 334 l 2
 95 378 86 394 62 394 c 0
 53 394 40 393 28 391 c 2
 20 390 l 1
 20 405 l 1
 175 460 l 1
 179 457 l 1
 179 102 l 2
 180 29 187 20 253 15 c 1
 253 0 l 1
 16 0 l 1
215 507 m 1
 175 507 l 1
 21 604 l 2
 2 616 -8 631 -8 647 c 0
 -8 666 5 678 26 678 c 0
 41 678 50 673 68 655 c 2
 215 507 l 1
EndSplineSet
Validated: 1
EndChar

StartChar: iacute
Encoding: 172 237 173
Width: 278
GlyphClass: 2
Flags: MW
HStem: 0 20 658 20<227.5 246>
VStem: 95 84<102 334 334 356>
LayerCount: 2
Fore
SplineSet
16 0 m 1
 16 15 l 1
 84 18 93 28 95 102 c 2
 95 334 l 2
 95 378 86 394 62 394 c 0
 53 394 40 393 28 391 c 2
 20 390 l 1
 20 405 l 1
 175 460 l 1
 179 457 l 1
 179 102 l 2
 180 29 187 20 253 15 c 1
 253 0 l 1
 16 0 l 1
86 507 m 1
 46 507 l 1
 193 655 l 2
 211 673 220 678 235 678 c 0
 257 678 270 666 270 646 c 0
 270 630 261 617 240 604 c 2
 86 507 l 1
EndSplineSet
Validated: 1
EndChar

StartChar: icircumflex
Encoding: 173 238 174
Width: 278
GlyphClass: 2
Flags: MW
HStem: 0 20 654 20<96 158 158 158>
VStem: 95 84<102 334 334 356>
LayerCount: 2
Fore
SplineSet
16 0 m 1
 16 15 l 1
 84 18 93 28 95 102 c 2
 95 334 l 2
 95 378 86 394 62 394 c 0
 53 394 40 393 28 391 c 2
 20 390 l 1
 20 405 l 1
 175 460 l 1
 179 457 l 1
 179 102 l 2
 180 29 187 20 253 15 c 1
 253 0 l 1
 16 0 l 1
283 507 m 1
 249 507 l 1
 127 610 l 1
 6 507 l 1
 -28 507 l 1
 96 674 l 1
 158 674 l 1
 283 507 l 1
EndSplineSet
Validated: 1
EndChar

StartChar: idieresis
Encoding: 174 239 175
Width: 278
GlyphClass: 2
Flags: MW
HStem: 0 20 523 100<46 72.5 46 72.5 205 231.5>
VStem: 11 98<559.5 586.5 559 587> 95 84<102 334 334 356> 170 98<559.5 586.5 559 587>
LayerCount: 2
Fore
SplineSet
59 623 m 0xe8
 86 623 109 600 109 573 c 0
 109 545 86 523 59 523 c 0
 32 523 11 545 11 574 c 0
 11 600 33 623 59 623 c 0xe8
218 623 m 0
 245 623 268 600 268 573 c 0
 268 545 245 523 218 523 c 0
 191 523 170 545 170 574 c 0
 170 600 192 623 218 623 c 0
16 0 m 1xd0
 16 15 l 1
 84 18 93 28 95 102 c 2
 95 334 l 2
 95 378 86 394 62 394 c 0
 53 394 40 393 28 391 c 2
 20 390 l 1
 20 405 l 1
 175 460 l 1
 179 457 l 1
 179 102 l 2
 180 29 187 20 253 15 c 1
 253 0 l 1
 16 0 l 1xd0
EndSplineSet
Validated: 1
EndChar

StartChar: D5
Encoding: 175 240 176
Width: 501
GlyphClass: 2
Flags: HMW
HStem: -10 28<241 273.5> 432 28<201.5 265 181 279.5>
VStem: 29 90<241.5 290> 381 90<237 269>
LayerCount: 2
Fore
SplineSet
276 552 m 4xe0
 305 552 328 530 328 501 c 4
 328 472 306 450 276 450 c 4
 248 450 226 472 226 501 c 4
 226 529 249 552 276 552 c 4xe0
EndSplineSet
Refer: 190 254 N 1 0 0 1 0 0 2
Validated: 5
EndChar

StartChar: ntilde
Encoding: 176 241 177
Width: 500
GlyphClass: 2
Flags: MW
HStem: 0 20 405 55<283 291.5> 532 56<325 337> 578 55<161 170.5>
VStem: 80 84<90 338 338 348> 340 84<99 308 308 310 81 341>
LayerCount: 2
Fore
SplineSet
18 0 m 1xec
 18 15 l 1
 68 18 79 31 80 90 c 2
 80 338 l 2
 80 387 71 402 43 402 c 0
 32 402 22 401 16 398 c 1
 16 415 l 1
 71 431 105 442 154 460 c 1
 161 458 l 1
 161 379 l 1
 229 443 260 460 306 460 c 0
 380 460 424 404 424 310 c 2
 424 81 l 2
 425 32 436 20 485 15 c 1
 485 0 l 1
 277 0 l 1
 277 15 l 1
 326 18 338 34 340 99 c 2
 340 308 l 2
 340 374 316 405 267 405 c 0
 234 405 211 393 164 348 c 1
 164 67 l 2
 164 31 180 18 230 15 c 1
 230 0 l 1
 18 0 l 1xec
386 638 m 1
 415 638 l 1
 394 562 365 532 309 532 c 0x2c
 284 532 270 536 229 556 c 2
 206 567 l 2
 191 574 176 578 165 578 c 0x1c
 141 578 125 563 114 532 c 1
 85 532 l 1x2c
 100 597 136 633 186 633 c 0x1c
 208 633 232 627 256 615 c 2
 280 603 l 2
 298 594 318 588 332 588 c 0
 355 588 368 600 386 638 c 1
EndSplineSet
Validated: 1
EndChar

StartChar: ograve
Encoding: 177 242 178
Width: 500
GlyphClass: 2
Flags: MW
HStem: -10 28<240.5 297.5 240.5 311> 432 28<201 279> 658 20<151.5 170>
VStem: 29 90<239.5 295> 380 90<164.5 267.5>
LayerCount: 2
Fore
SplineSet
250 460 m 0
 378 460 470 366 470 234 c 0
 470 95 374 -10 248 -10 c 0
 122 -10 29 90 29 226 c 0
 29 364 119 460 250 460 c 0
237 432 m 0
 165 432 119 370 119 275 c 0
 119 204 135 134 163 82 c 0
 184 42 221 18 260 18 c 0
 335 18 380 85 380 199 c 0
 380 336 321 432 237 432 c 0
351 507 m 1
 311 507 l 1
 157 604 l 2
 138 616 128 631 128 647 c 0
 128 666 141 678 162 678 c 0
 178 678 186 673 204 655 c 2
 351 507 l 1
EndSplineSet
Validated: 1
EndChar

StartChar: oacute
Encoding: 178 243 179
Width: 500
GlyphClass: 2
Flags: MW
HStem: -10 28<240.5 297.5 240.5 311> 432 28<201 279> 658 20<336 354.5>
VStem: 29 90<239.5 295> 380 90<164.5 267.5>
LayerCount: 2
Fore
SplineSet
250 460 m 0
 378 460 470 366 470 234 c 0
 470 95 374 -10 248 -10 c 0
 122 -10 29 90 29 226 c 0
 29 364 119 460 250 460 c 0
237 432 m 0
 165 432 119 370 119 275 c 0
 119 204 135 134 163 82 c 0
 184 42 221 18 260 18 c 0
 335 18 380 85 380 199 c 0
 380 336 321 432 237 432 c 0
194 507 m 1
 154 507 l 1
 301 655 l 2
 319 673 328 678 344 678 c 0
 365 678 378 666 378 646 c 0
 378 630 369 617 348 604 c 2
 194 507 l 1
EndSplineSet
Validated: 1
EndChar

StartChar: ocircumflex
Encoding: 179 244 180
Width: 500
GlyphClass: 2
Flags: MW
HStem: -10 28<240.5 297.5 240.5 311> 432 28<201 279> 654 20<219 281 281 281>
VStem: 29 90<239.5 295> 380 90<164.5 267.5>
LayerCount: 2
Fore
SplineSet
250 460 m 0
 378 460 470 366 470 234 c 0
 470 95 374 -10 248 -10 c 0
 122 -10 29 90 29 226 c 0
 29 364 119 460 250 460 c 0
237 432 m 0
 165 432 119 370 119 275 c 0
 119 204 135 134 163 82 c 0
 184 42 221 18 260 18 c 0
 335 18 380 85 380 199 c 0
 380 336 321 432 237 432 c 0
406 507 m 1
 372 507 l 1
 250 610 l 1
 129 507 l 1
 95 507 l 1
 219 674 l 1
 281 674 l 1
 406 507 l 1
EndSplineSet
Validated: 1
EndChar

StartChar: otilde
Encoding: 180 245 181
Width: 500
GlyphClass: 2
Flags: MW
HStem: -10 28<240.5 297.5 240.5 311> 432 28<201 279> 532 56<325 337> 578 55<161 170.5>
VStem: 29 90<239.5 295> 380 90<164.5 267.5>
LayerCount: 2
Fore
SplineSet
250 460 m 0xec
 378 460 470 366 470 234 c 0
 470 95 374 -10 248 -10 c 0
 122 -10 29 90 29 226 c 0
 29 364 119 460 250 460 c 0xec
237 432 m 0
 165 432 119 370 119 275 c 0
 119 204 135 134 163 82 c 0
 184 42 221 18 260 18 c 0
 335 18 380 85 380 199 c 0
 380 336 321 432 237 432 c 0
386 638 m 1
 415 638 l 1
 394 562 365 532 309 532 c 0x2c
 284 532 270 536 229 556 c 2
 206 567 l 2
 191 574 176 578 165 578 c 0x1c
 141 578 125 563 114 532 c 1
 85 532 l 1x2c
 100 597 136 633 186 633 c 0x1c
 208 633 232 627 256 615 c 2
 280 603 l 2
 298 594 318 588 332 588 c 0
 355 588 368 600 386 638 c 1
EndSplineSet
Validated: 1
EndChar

StartChar: odieresis
Encoding: 181 246 182
Width: 500
GlyphClass: 2
Flags: MW
HStem: -10 28<240.5 297.5 240.5 311> 432 28<201 279> 523 100<137 163.5 137 163.5 336 362.5>
VStem: 29 90<239.5 295> 102 98<559.5 586.5 559 587> 301 98<559.5 586.5 559 587> 380 90<164.5 267.5>
LayerCount: 2
Fore
SplineSet
250 460 m 0xf2
 378 460 470 366 470 234 c 0
 470 95 374 -10 248 -10 c 0
 122 -10 29 90 29 226 c 0
 29 364 119 460 250 460 c 0xf2
237 432 m 0
 165 432 119 370 119 275 c 0
 119 204 135 134 163 82 c 0
 184 42 221 18 260 18 c 0
 335 18 380 85 380 199 c 0
 380 336 321 432 237 432 c 0
150 623 m 0xec
 177 623 200 600 200 573 c 0
 200 545 177 523 150 523 c 0
 123 523 102 545 102 574 c 0
 102 600 124 623 150 623 c 0xec
349 623 m 0
 376 623 399 600 399 573 c 0
 399 545 376 523 349 523 c 0
 322 523 301 545 301 574 c 0
 301 600 323 623 349 623 c 0
EndSplineSet
Validated: 1
EndChar

StartChar: divide
Encoding: 182 247 183
Width: 564
GlyphClass: 2
Flags: MW
HStem: 50 98<269 295.5> 280 53<37 528 37 528> 465 98<269 295.5>
VStem: 234 98<85 111 84 111.5 500 526>
CounterMasks: 1 e0
LayerCount: 2
Fore
SplineSet
528 280 m 1
 37 280 l 1
 37 333 l 1
 528 333 l 1
 528 280 l 1
282 563 m 0
 309 563 332 540 332 512 c 0
 332 487 309 465 282 465 c 0
 256 465 234 487 234 513 c 0
 234 540 256 563 282 563 c 0
282 148 m 0
 309 148 332 125 332 97 c 0
 332 71 309 50 282 50 c 0
 256 50 234 72 234 98 c 0
 234 125 256 148 282 148 c 0
EndSplineSet
Validated: 1
EndChar

StartChar: E1
Encoding: 183 248 184
Width: 556
GlyphClass: 2
Flags: HMW
HStem: -10 28<244 298.5 244 310.5> 432 28<201.5 252.5>
VStem: 29 90<241.5 295> 380 90<164.5 235>
LayerCount: 2
Back
SplineSet
556 199 m 29
 514 199 l 1053
EndSplineSet
Fore
SplineSet
109 676 m 5x2c
 87 463 l 5
 112 463 l 5
 128 522 142 548 173 580 c 4
 208 616 250 635 295 635 c 4
 357 635 399 598 399 543 c 4
 399 488 357 444 252 387 c 4
 120 315 65 250 65 168 c 4
 65 65 153 -14 269 -14 c 4xac
 308 -14 349 -6 387 9 c 4
 406 16 423 20 434 20 c 4x4c
 449 20 461 6 462 -13 c 5
 484 -13 l 5
 514 199 l 5
 491 199 l 5
 441 77 379 22 289 22 c 4
 216 22 166 68 166 134 c 4
 166 159 171 180 180 193 c 4
 205 231 257 271 329 310 c 4
 441 369 485 425 485 505 c 4
 485 557 467 599 432 630 c 4
 399 659 355 676 313 676 c 4xac
 280 676 243 668 206 654 c 4
 189 646 172 642 162 642 c 4x1c
 145 642 134 653 130 676 c 5
 109 676 l 5x2c
EndSplineSet
EndChar

StartChar: ugrave
Encoding: 184 249 185
Width: 500
GlyphClass: 2
Flags: MW
HStem: -10 58<206.5 210.5> 430 20<9 155 155 155 259 417 417 417> 658 20<127.5 145.5>
VStem: 71 84<120 124 124 372 372 372> 333 84<135 370 370 395>
LayerCount: 2
Fore
SplineSet
479 50 m 1
 479 36 l 1
 428 22 392 11 342 -9 c 1
 338 -7 l 1
 338 76 l 1
 295 33 l 2
 268 6 229 -10 192 -10 c 0
 119 -10 71 41 71 120 c 2
 71 372 l 2
 70 420 56 434 9 436 c 1
 9 450 l 1
 155 450 l 1
 155 124 l 2
 155 82 187 48 226 48 c 0
 256 48 287 60 314 82 c 0
 328 93 333 107 333 135 c 2
 333 370 l 2
 333 420 321 430 259 433 c 1
 259 450 l 1
 417 450 l 1
 417 107 l 2
 418 60 425 52 474 50 c 2
 479 50 l 1
327 507 m 1
 287 507 l 1
 133 604 l 2
 114 616 104 631 104 647 c 0
 104 666 117 678 138 678 c 0
 153 678 162 673 180 655 c 2
 327 507 l 1
EndSplineSet
Validated: 1
EndChar

StartChar: uacute
Encoding: 185 250 186
Width: 500
GlyphClass: 2
Flags: MW
HStem: -10 58<206.5 210.5> 430 20<9 155 155 155 259 417 417 417> 658 20<367.5 386>
VStem: 71 84<120 124 124 372 372 372> 333 84<135 370 370 395>
LayerCount: 2
Fore
SplineSet
479 50 m 1
 479 36 l 1
 428 22 392 11 342 -9 c 1
 338 -7 l 1
 338 76 l 1
 295 33 l 2
 268 6 229 -10 192 -10 c 0
 119 -10 71 41 71 120 c 2
 71 372 l 2
 70 420 56 434 9 436 c 1
 9 450 l 1
 155 450 l 1
 155 124 l 2
 155 82 187 48 226 48 c 0
 256 48 287 60 314 82 c 0
 328 93 333 107 333 135 c 2
 333 370 l 2
 333 420 321 430 259 433 c 1
 259 450 l 1
 417 450 l 1
 417 107 l 2
 418 60 425 52 474 50 c 2
 479 50 l 1
226 507 m 1
 186 507 l 1
 333 655 l 2
 351 673 360 678 375 678 c 0
 397 678 410 666 410 646 c 0
 410 630 401 617 380 604 c 2
 226 507 l 1
EndSplineSet
Validated: 1
EndChar

StartChar: ucircumflex
Encoding: 186 251 187
Width: 500
GlyphClass: 2
Flags: MW
HStem: -10 58<206.5 210.5> 430 20<9 155 155 155 259 417 417 417> 654 20<197 259 259 259>
VStem: 71 84<120 124 124 372 372 372> 333 84<135 370 370 395>
LayerCount: 2
Fore
SplineSet
479 50 m 1
 479 36 l 1
 428 22 392 11 342 -9 c 1
 338 -7 l 1
 338 76 l 1
 295 33 l 2
 268 6 229 -10 192 -10 c 0
 119 -10 71 41 71 120 c 2
 71 372 l 2
 70 420 56 434 9 436 c 1
 9 450 l 1
 155 450 l 1
 155 124 l 2
 155 82 187 48 226 48 c 0
 256 48 287 60 314 82 c 0
 328 93 333 107 333 135 c 2
 333 370 l 2
 333 420 321 430 259 433 c 1
 259 450 l 1
 417 450 l 1
 417 107 l 2
 418 60 425 52 474 50 c 2
 479 50 l 1
384 507 m 1
 350 507 l 1
 228 610 l 1
 107 507 l 1
 73 507 l 1
 197 674 l 1
 259 674 l 1
 384 507 l 1
EndSplineSet
Validated: 1
EndChar

StartChar: udieresis
Encoding: 187 252 188
Width: 500
GlyphClass: 2
Flags: MW
HStem: -10 58<206.5 210.5> 430 20<9 155 155 155 259 417 417 417> 523 100<117 143.5 117 143.5 316 342.5>
VStem: 71 84<120 124 124 372 372 372> 82 98<559.5 586.5 559 587> 281 98<559.5 586.5 559 587> 333 84<135 370 370 395>
LayerCount: 2
Fore
SplineSet
479 50 m 1xf2
 479 36 l 1
 428 22 392 11 342 -9 c 1
 338 -7 l 1
 338 76 l 1
 295 33 l 2
 268 6 229 -10 192 -10 c 0
 119 -10 71 41 71 120 c 2
 71 372 l 2
 70 420 56 434 9 436 c 1
 9 450 l 1
 155 450 l 1
 155 124 l 2
 155 82 187 48 226 48 c 0
 256 48 287 60 314 82 c 0
 328 93 333 107 333 135 c 2
 333 370 l 2
 333 420 321 430 259 433 c 1
 259 450 l 1
 417 450 l 1
 417 107 l 2
 418 60 425 52 474 50 c 2
 479 50 l 1xf2
130 623 m 0xec
 157 623 180 600 180 573 c 0
 180 545 157 523 130 523 c 0
 103 523 82 545 82 574 c 0
 82 600 104 623 130 623 c 0xec
329 623 m 0
 356 623 379 600 379 573 c 0
 379 545 356 523 329 523 c 0
 302 523 281 545 281 574 c 0
 281 600 303 623 329 623 c 0
EndSplineSet
Validated: 1
EndChar

StartChar: yacute
Encoding: 188 253 189
Width: 500
GlyphClass: 2
Flags: MW
HStem: -218 84<82.5 158> 430 20<14 220 220 220 340 475 475 475> 658 20<384.5 403>
LayerCount: 2
Fore
SplineSet
475 450 m 1
 475 435 l 1
 451 432 440 422 427 390 c 2
 273 -18 l 2
 218 -163 172 -218 104 -218 c 0
 61 -218 30 -193 30 -160 c 0
 30 -135 49 -116 73 -116 c 0
 89 -116 107 -120 125 -127 c 0
 136 -132 145 -134 151 -134 c 0
 165 -134 186 -115 201 -90 c 0
 218 -59 241 2 241 18 c 0
 241 33 225 70 197 120 c 0
 192 130 191 131 179 158 c 2
 65 404 l 2
 57 421 40 432 14 436 c 1
 14 450 l 1
 220 450 l 1
 220 435 l 1
 177 433 162 426 162 408 c 0
 162 398 166 384 172 370 c 2
 287 117 l 1
 384 393 l 2
 387 400 388 406 388 410 c 0
 388 426 372 435 340 435 c 1
 340 450 l 1
 475 450 l 1
243 507 m 1
 203 507 l 1
 350 655 l 2
 368 673 377 678 392 678 c 0
 414 678 427 666 427 646 c 0
 427 630 418 617 397 604 c 2
 243 507 l 1
EndSplineSet
Validated: 1
EndChar

StartChar: D4
Encoding: 189 254 190
Width: 501
GlyphClass: 2
Flags: HMW
HStem: -9 45<198.5 243.5 163.5 299.5> 332 44<145 224 145 224> 625 46<231.5 244.5>
VStem: 328 110<497 544.5> 345 118<140.5 208.5 125.5 212.5>
LayerCount: 2
Fore
SplineSet
205 159 m 2xe0
 205 42 l 1
 151 42 l 2
 36 44 75 61 52 170 c 1
 28 170 l 1
 34 0 l 1
 478 0 l 1
 484 170 l 1
 460 170 l 1
 438 61 477 44 361 42 c 2
 307 42 l 1
 307 146 l 2
 307 242 l 2
 307 317 322 329 405 332 c 1
 405 351 l 1
 192 379 l 1
 150 375 l 1
 179.888671875 373.2421875 158.627929688 365.865234375 173 360.26171875 c 0
 199.499988592 349.929658239 205 329 205 280 c 2
 205 159 l 2xe0
308 332 m 0
 423 332 l 1
 423 377 l 1
 411 376 299 376 295 376 c 0
 193 376 140 421 140 508 c 0
 140 581 186 625 261 625 c 0
 344 625 393 578 404 487 c 1
 423 487 l 1
 418 666 l 1
 402 666 l 1
 399 647 389 638 368 638 c 0
 357 638 347 641 324 649 c 0
 283 665 255 671 218 671 c 0
 106 671 30 610 30 521 c 0
 30 473 52 428 89 398 c 0
 112 380 133 371 181 358 c 1
 181 358 307 332 308 332 c 0
EndSplineSet
Validated: 5
EndChar

StartChar: ydieresis
Encoding: 190 255 191
Width: 500
GlyphClass: 2
Flags: MW
HStem: -218 84<82.5 158> 430 20<14 220 220 220 340 475 475 475> 523 100<152 178.5 152 178.5 351 377.5>
VStem: 117 98<559.5 586.5 559 587> 316 98<559.5 586.5 559 587>
LayerCount: 2
Fore
SplineSet
475 450 m 1
 475 435 l 1
 451 432 440 422 427 390 c 2
 273 -18 l 2
 218 -163 172 -218 104 -218 c 0
 61 -218 30 -193 30 -160 c 0
 30 -135 49 -116 73 -116 c 0
 89 -116 107 -120 125 -127 c 0
 136 -132 145 -134 151 -134 c 0
 165 -134 186 -115 201 -90 c 0
 218 -59 241 2 241 18 c 0
 241 33 225 70 197 120 c 0
 192 130 191 131 179 158 c 2
 65 404 l 2
 57 421 40 432 14 436 c 1
 14 450 l 1
 220 450 l 1
 220 435 l 1
 177 433 162 426 162 408 c 0
 162 398 166 384 172 370 c 2
 287 117 l 1
 384 393 l 2
 387 400 388 406 388 410 c 0
 388 426 372 435 340 435 c 1
 340 450 l 1
 475 450 l 1
165 623 m 0
 192 623 215 600 215 573 c 0
 215 545 192 523 165 523 c 0
 138 523 117 545 117 574 c 0
 117 600 139 623 165 623 c 0
364 623 m 0
 391 623 414 600 414 573 c 0
 414 545 391 523 364 523 c 0
 337 523 316 545 316 574 c 0
 316 600 338 623 364 623 c 0
EndSplineSet
Validated: 1
EndChar

StartChar: Amacron
Encoding: 191 256 192
Width: 722
GlyphClass: 2
Flags: MW
HStem: 0 20 216 41<216 447 216 461 199 447> 759 54<206 517 206 517>
LayerCount: 2
Fore
SplineSet
706 19 m 1
 706 0 l 1
 451 0 l 1
 451 19 l 1
 504 20 521 28 521 53 c 0
 521 67 514 93 502 120 c 2
 461 216 l 1
 199 216 l 1
 153 99 l 2
 148 86 145 72 145 60 c 0
 145 31 165 19 213 19 c 1
 213 0 l 1
 15 0 l 1
 15 19 l 1
 63 21 75 37 139 183 c 2
 347 674 l 1
 367 674 l 1
 616 106 l 2
 651 32 661 22 706 19 c 1
216 257 m 1
 447 257 l 1
 331 532 l 1
 216 257 l 1
206 813 m 1
 517 813 l 1
 517 759 l 1
 206 759 l 1
 206 813 l 1
EndSplineSet
Validated: 1
EndChar

StartChar: amacron
Encoding: 192 257 193
Width: 444
GlyphClass: 2
Flags: MW
HStem: -10 57<331.5 405.5> -10 58<111.5 198.5> 436 24<191 235.5> 547 54<67 378 67 378>
VStem: 56 83<336.5 400.5> 287 81<123 268 268 268 292 300>
LayerCount: 2
Fore
SplineSet
442 66 m 1xac
 442 40 l 1
 407 2 386 -10 352 -10 c 0x8c
 311 -10 293 10 288 63 c 1
 227 11 186 -10 142 -10 c 0x4c
 81 -10 37 34 37 97 c 0
 37 130 51 164 73 184 c 0
 116 222 133 230 287 292 c 1
 287 353 l 2
 287 407 260 436 211 436 c 0
 171 436 139 414 139 387 c 0
 139 380 140 372 142 363 c 0
 143 356 144 351 144 347 c 0
 144 325 123 305 99 305 c 0
 75 305 56 325 56 348 c 0
 56 411 130 460 224 460 c 0
 283 460 326 441 348 405 c 0
 363 381 368 352 368 300 c 2
 368 105 l 2
 368 61 375 47 398 47 c 0
 413 47 425 52 442 66 c 1xac
287 123 m 2x5c
 287 268 l 1
 170 227 126 189 125 129 c 2
 125 125 l 2
 125 82 153 48 188 48 c 0
 209 48 236 56 261 70 c 0
 282 82 287 93 287 123 c 2x5c
67 601 m 1
 378 601 l 1
 378 547 l 1
 67 547 l 1
 67 601 l 1
EndSplineSet
Validated: 1
EndChar

StartChar: Abreve
Encoding: 193 258 194
Width: 722
GlyphClass: 2
Flags: MW
HStem: 0 20 216 41<216 447 216 461 199 447> 719 60<336 391 329.5 401.5>
LayerCount: 2
Fore
SplineSet
706 19 m 1
 706 0 l 1
 451 0 l 1
 451 19 l 1
 504 20 521 28 521 53 c 0
 521 67 514 93 502 120 c 2
 461 216 l 1
 199 216 l 1
 153 99 l 2
 148 86 145 72 145 60 c 0
 145 31 165 19 213 19 c 1
 213 0 l 1
 15 0 l 1
 15 19 l 1
 63 21 75 37 139 183 c 2
 347 674 l 1
 367 674 l 1
 616 106 l 2
 651 32 661 22 706 19 c 1
216 257 m 1
 447 257 l 1
 331 532 l 1
 216 257 l 1
473 876 m 1
 502 876 l 1
 489 770 443 719 360 719 c 0
 312 719 273 738 248 773 c 0
 228 801 222 825 221 876 c 1
 250 876 l 1
 263 809 297 779 362 779 c 0
 420 779 444 800 473 876 c 1
EndSplineSet
Validated: 1
EndChar

StartChar: abreve
Encoding: 194 259 195
Width: 444
GlyphClass: 2
Flags: MW
HStem: -10 57<331.5 405.5> -10 58<111.5 198.5> 436 24<191 235.5> 507 60<197 252 190.5 262.5> 644 20<82 111 111 111 334 363 363 363>
VStem: 56 83<336.5 400.5> 287 81<123 268 268 268 292 300>
LayerCount: 2
Fore
SplineSet
442 66 m 1xa6
 442 40 l 1
 407 2 386 -10 352 -10 c 0x86
 311 -10 293 10 288 63 c 1
 227 11 186 -10 142 -10 c 0x46
 81 -10 37 34 37 97 c 0
 37 130 51 164 73 184 c 0
 116 222 133 230 287 292 c 1
 287 353 l 2
 287 407 260 436 211 436 c 0
 171 436 139 414 139 387 c 0
 139 380 140 372 142 363 c 0
 143 356 144 351 144 347 c 0
 144 325 123 305 99 305 c 0
 75 305 56 325 56 348 c 0
 56 411 130 460 224 460 c 0
 283 460 326 441 348 405 c 0
 363 381 368 352 368 300 c 2
 368 105 l 2
 368 61 375 47 398 47 c 0
 413 47 425 52 442 66 c 1xa6
287 123 m 2x5e
 287 268 l 1
 170 227 126 189 125 129 c 2
 125 125 l 2
 125 82 153 48 188 48 c 0
 209 48 236 56 261 70 c 0
 282 82 287 93 287 123 c 2x5e
334 664 m 1
 363 664 l 1
 350 558 304 507 221 507 c 0
 173 507 134 526 109 561 c 0
 89 589 83 613 82 664 c 1
 111 664 l 1
 124 597 158 567 223 567 c 0
 281 567 305 588 334 664 c 1
EndSplineSet
Validated: 1
EndChar

StartChar: Aogonek
Encoding: 195 260 196
Width: 722
GlyphClass: 2
Flags: MW
HStem: -165 56<684 694.5> 0 20 216 41<216 447 216 461 199 447> 654 20<347 367 367 367>
VStem: 601 56<-81 -73>
LayerCount: 2
Fore
SplineSet
706 19 m 1
 706 0 l 1
 684 -5 657 -43 657 -69 c 0
 657 -93 673 -109 695 -109 c 0
 716 -109 735 -100 766 -73 c 1
 786 -89 l 1
 749 -142 715 -165 674 -165 c 0
 632 -165 601 -132 601 -90 c 0
 601 -56 615 -32 655 0 c 1
 451 0 l 1
 451 19 l 1
 504 20 521 28 521 53 c 0
 521 67 514 93 502 120 c 2
 461 216 l 1
 199 216 l 1
 153 99 l 2
 148 86 145 72 145 60 c 0
 145 31 165 19 213 19 c 1
 213 0 l 1
 15 0 l 1
 15 19 l 1
 63 21 75 37 139 183 c 2
 347 674 l 1
 367 674 l 1
 616 106 l 2
 651 32 661 22 706 19 c 1
216 257 m 1
 447 257 l 1
 331 532 l 1
 216 257 l 1
EndSplineSet
Validated: 1
EndChar

StartChar: A3
Encoding: 196 261 197
Width: 501
GlyphClass: 2
Flags: HMW
LayerCount: 2
Fore
SplineSet
309 232 m 4xe0
 338 232 361 210 361 181 c 4
 361 152 339 130 309 130 c 4
 281 130 259 152 259 181 c 4
 259 209 282 232 309 232 c 4xe0
EndSplineSet
Refer: 804 593 N 1 0 0 1 0 0 2
EndChar

StartChar: Cacute
Encoding: 197 262 198
Width: 667
GlyphClass: 2
Flags: MW
HStem: -14 44<360.5 416.5> 636 40<322 386.5 322 410.5>
VStem: 28 116<282.5 381>
LayerCount: 2
Fore
SplineSet
620 451 m 1
 597 451 l 1
 578 516 563 544 531 576 c 0
 491 615 439 636 382 636 c 0
 237 636 144 520 144 338 c 0
 144 227 175 137 230 88 c 0
 273 50 329 30 392 30 c 0
 475 30 541 60 615 131 c 1
 633 113 l 1
 573 32 473 -14 360 -14 c 0
 161 -14 28 122 28 326 c 0
 28 436 66 528 136 590 c 0
 199 645 281 676 363 676 c 0
 410 676 460 668 509 651 c 0
 524 646 539 643 548 643 c 0
 568 643 584 655 590 676 c 1
 611 676 l 1
 620 451 l 1
360 719 m 1
 320 719 l 1
 467 867 l 2
 485 885 494 890 509 890 c 0
 531 890 544 878 544 858 c 0
 544 842 535 829 514 816 c 2
 360 719 l 1
EndSplineSet
Validated: 1
EndChar

StartChar: cacute
Encoding: 198 263 199
Width: 444
GlyphClass: 2
Flags: MW
HStem: -10 72<211 237.5> 431 29<219.5 256> 658 20<320.5 339>
VStem: 25 77<199.5 252>
LayerCount: 2
Fore
SplineSet
398 156 m 1
 412 147 l 1
 382 88 363 60 336 37 c 0
 300 6 260 -10 215 -10 c 0
 104 -10 25 83 25 212 c 0
 25 292 53 360 103 404 c 0
 144 440 195 460 244 460 c 0
 328 460 398 413 398 357 c 0
 398 334 377 315 351 315 c 0
 329 315 311 332 303 361 c 2
 297 383 l 2
 287 420 274 431 238 431 c 0
 157 431 102 361 102 257 c 0
 102 142 165 62 257 62 c 0
 314 62 350 86 398 156 c 1
179 507 m 1
 139 507 l 1
 286 655 l 2
 304 673 313 678 328 678 c 0
 350 678 363 666 363 646 c 0
 363 630 354 617 333 604 c 2
 179 507 l 1
EndSplineSet
Validated: 1
EndChar

StartChar: Ccircumflex
Encoding: 199 264 200
Width: 667
GlyphClass: 2
Flags: MW
HStem: -7 44<320.5 419.5> 632 37<319 404.5 282.5 420>
VStem: 34 121<239 420 239 425.5>
LayerCount: 2
Fore
SplineSet
617 155 m 1
 634 144 l 1
 570 49 472 -7 367 -7 c 0
 183 -7 34 145 34 331 c 0
 34 520 186 669 379 669 c 0
 430 669 480 659 519 641 c 0
 559 622 560 622 570 622 c 0
 587 622 596 634 600 662 c 1
 621 662 l 1
 627 439 l 1
 609 437 l 1
 602 494 584 531 549 566 c 0
 506 609 450 632 390 632 c 0
 248 632 155 512 155 328 c 0
 155 150 248 37 393 37 c 0
 484 37 557 76 617 155 c 1
542 719 m 1
 508 719 l 1
 386 822 l 1
 265 719 l 1
 231 719 l 1
 355 886 l 1
 417 886 l 1
 542 719 l 1
EndSplineSet
Validated: 1
EndChar

StartChar: ccircumflex
Encoding: 200 265 201
Width: 444
GlyphClass: 2
Flags: MW
HStem: -10 72<211 237.5> 431 29<219.5 256> 654 20<202 264 264 264>
VStem: 25 77<199.5 252>
LayerCount: 2
Fore
SplineSet
398 156 m 1
 412 147 l 1
 382 88 363 60 336 37 c 0
 300 6 260 -10 215 -10 c 0
 104 -10 25 83 25 212 c 0
 25 292 53 360 103 404 c 0
 144 440 195 460 244 460 c 0
 328 460 398 413 398 357 c 0
 398 334 377 315 351 315 c 0
 329 315 311 332 303 361 c 2
 297 383 l 2
 287 420 274 431 238 431 c 0
 157 431 102 361 102 257 c 0
 102 142 165 62 257 62 c 0
 314 62 350 86 398 156 c 1
389 507 m 1
 355 507 l 1
 233 610 l 1
 112 507 l 1
 78 507 l 1
 202 674 l 1
 264 674 l 1
 389 507 l 1
EndSplineSet
Validated: 1
EndChar

StartChar: Cdotaccent
Encoding: 201 266 202
Width: 667
GlyphClass: 2
Flags: MW
HStem: -7 44<320.5 419.5> 632 37<319 404.5 282.5 420> 716 107<369 398.5>
VStem: 34 121<239 420 239 425.5> 330 107<755 784.5>
LayerCount: 2
Fore
SplineSet
617 155 m 1
 634 144 l 1
 570 49 472 -7 367 -7 c 0
 183 -7 34 145 34 331 c 0
 34 520 186 669 379 669 c 0
 430 669 480 659 519 641 c 0
 559 622 560 622 570 622 c 0
 587 622 596 634 600 662 c 1
 621 662 l 1
 627 439 l 1
 609 437 l 1
 602 494 584 531 549 566 c 0
 506 609 450 632 390 632 c 0
 248 632 155 512 155 328 c 0
 155 150 248 37 393 37 c 0
 484 37 557 76 617 155 c 1
384 823 m 0
 413 823 437 799 437 770 c 0
 437 740 413 716 384 716 c 0
 354 716 330 740 330 770 c 0
 330 799 354 823 384 823 c 0
EndSplineSet
Validated: 1
EndChar

StartChar: cdotaccent
Encoding: 202 267 203
Width: 444
GlyphClass: 2
Flags: MW
HStem: -10 72<211 237.5> 431 29<219.5 256> 523 100<217 243.5 217 243.5>
VStem: 25 77<199.5 252> 182 98<559.5 586.5 559 587>
LayerCount: 2
Fore
SplineSet
398 156 m 1
 412 147 l 1
 382 88 363 60 336 37 c 0
 300 6 260 -10 215 -10 c 0
 104 -10 25 83 25 212 c 0
 25 292 53 360 103 404 c 0
 144 440 195 460 244 460 c 0
 328 460 398 413 398 357 c 0
 398 334 377 315 351 315 c 0
 329 315 311 332 303 361 c 2
 297 383 l 2
 287 420 274 431 238 431 c 0
 157 431 102 361 102 257 c 0
 102 142 165 62 257 62 c 0
 314 62 350 86 398 156 c 1
230 623 m 0
 257 623 280 600 280 573 c 0
 280 545 257 523 230 523 c 0
 203 523 182 545 182 574 c 0
 182 600 204 623 230 623 c 0
EndSplineSet
Validated: 1
EndChar

StartChar: Ccaron
Encoding: 203 268 204
Width: 667
GlyphClass: 2
Flags: MW
HStem: -14 44<360.5 416.5> 636 40<322 386.5 322 410.5>
VStem: 28 116<282.5 381>
LayerCount: 2
Fore
SplineSet
620 451 m 1
 597 451 l 1
 578 516 563 544 531 576 c 0
 491 615 439 636 382 636 c 0
 237 636 144 520 144 338 c 0
 144 227 175 137 230 88 c 0
 273 50 329 30 392 30 c 0
 475 30 541 60 615 131 c 1
 633 113 l 1
 573 32 473 -14 360 -14 c 0
 161 -14 28 122 28 326 c 0
 28 436 66 528 136 590 c 0
 199 645 281 676 363 676 c 0
 410 676 460 668 509 651 c 0
 524 646 539 643 548 643 c 0
 568 643 584 655 590 676 c 1
 611 676 l 1
 620 451 l 1
528 886 m 1
 403 719 l 1
 341 719 l 1
 217 886 l 1
 251 886 l 1
 372 783 l 1
 494 886 l 1
 528 886 l 1
EndSplineSet
Validated: 1
EndChar

StartChar: ccaron
Encoding: 204 269 205
Width: 444
GlyphClass: 2
Flags: MW
HStem: -10 72<211 237.5> 431 29<219.5 256> 654 20<87 121 121 121 364 398 398 398>
VStem: 25 77<199.5 252>
LayerCount: 2
Fore
SplineSet
398 156 m 1
 412 147 l 1
 382 88 363 60 336 37 c 0
 300 6 260 -10 215 -10 c 0
 104 -10 25 83 25 212 c 0
 25 292 53 360 103 404 c 0
 144 440 195 460 244 460 c 0
 328 460 398 413 398 357 c 0
 398 334 377 315 351 315 c 0
 329 315 311 332 303 361 c 2
 297 383 l 2
 287 420 274 431 238 431 c 0
 157 431 102 361 102 257 c 0
 102 142 165 62 257 62 c 0
 314 62 350 86 398 156 c 1
398 674 m 1
 273 507 l 1
 211 507 l 1
 87 674 l 1
 121 674 l 1
 242 571 l 1
 364 674 l 1
 398 674 l 1
EndSplineSet
Validated: 1
EndChar

StartChar: Dcaron
Encoding: 205 270 206
Width: 722
GlyphClass: 2
Flags: MW
HStem: 0 37<238 300> 625 37<237 286 286 301.5>
VStem: 104 102<109 553 553 553> 576 109<285.5 379 285.5 381>
LayerCount: 2
Fore
SplineSet
16 0 m 1
 16 19 l 1
 91 24 103 36 104 109 c 2
 104 553 l 2
 103 628 95 636 16 643 c 1
 16 662 l 1
 286 662 l 2
 423 662 532 626 600 557 c 0
 656 502 685 424 685 334 c 0
 685 237 648 148 583 89 c 0
 521 33 416 0 300 0 c 2
 16 0 l 1
206 586 m 2
 206 78 l 2
 206 46 218 37 258 37 c 0
 345 37 403 49 454 78 c 0
 535 125 576 209 576 327 c 0
 576 435 535 521 457 575 c 0
 409 609 345 625 258 625 c 0
 216 625 206 617 206 586 c 2
478 886 m 1
 353 719 l 1
 291 719 l 1
 167 886 l 1
 201 886 l 1
 322 783 l 1
 444 886 l 1
 478 886 l 1
EndSplineSet
Validated: 1
EndChar

StartChar: dcaron
Encoding: 206 271 207
Width: 588
GlyphClass: 2
Flags: MW
HStem: -10 52<208.5 239> 432 28<199 254 176.5 264> 572 104<524.5 573>
VStem: 26 86<183.5 276> 339 84<-7 114 57 114 102 114 114 332 332 358.5 417 573 573 593.5> 583 39<557 562>
LayerCount: 2
Fore
SplineSet
510 433 m 1
 501 452 l 1
 555 489 583 525 583 558 c 0
 583 566 577 572 569 572 c 0
 568 572 567 572 562 570 c 0
 556 569 549 568 542 568 c 0
 505 568 483 587 483 619 c 0
 483 653 507 676 542 676 c 0
 587 676 622 637 622 587 c 0
 622 527 577 466 510 433 c 1
490 58 m 1
 490 42 l 1
 343 -10 l 1
 339 -7 l 1
 339 57 l 1
 305 10 267 -10 211 -10 c 0
 100 -10 26 77 26 205 c 0
 26 347 119 460 234 460 c 0
 274 460 301 449 339 417 c 1
 339 573 l 2
 339 614 330 624 293 624 c 0
 285 624 279 624 271 623 c 1
 271 639 l 1
 335 656 370 666 418 683 c 1
 423 681 l 1
 423 114 l 2
 423 68 431 57 467 57 c 0
 471 57 477 57 490 58 c 1
339 102 m 2
 339 332 l 2
 339 385 291 432 237 432 c 0
 161 432 112 358 112 245 c 0
 112 122 167 42 250 42 c 0
 279 42 305 52 322 72 c 0
 332 83 339 95 339 102 c 2
EndSplineSet
Validated: 1
EndChar

StartChar: Dcroat
Encoding: 207 272 208
Width: 722
GlyphClass: 2
Flags: MW
HStem: 0 37<238 300> 315 44<21 104 21 104 206 352> 625 37<236 286 286 300.5>
VStem: 104 102<109 315 359 553 553 553> 576 109<285.5 379 285.5 381>
LayerCount: 2
Fore
SplineSet
16 643 m 1
 16 662 l 1
 286 662 l 2
 423 662 532 626 600 557 c 0
 656 502 685 424 685 334 c 0
 685 237 648 148 583 89 c 0
 521 33 416 0 300 0 c 2
 16 0 l 1
 16 19 l 1
 91 24 103 36 104 109 c 2
 104 315 l 1
 21 315 l 1
 21 359 l 1
 104 359 l 1
 104 553 l 2
 103 628 95 636 16 643 c 1
352 359 m 1
 352 315 l 1
 206 315 l 1
 206 78 l 2
 206 46 218 37 258 37 c 0
 345 37 403 49 454 78 c 0
 535 125 576 209 576 327 c 0
 576 435 535 521 457 575 c 0
 409 609 345 625 256 625 c 0
 216 625 206 617 206 586 c 2
 206 359 l 1
 352 359 l 1
EndSplineSet
Validated: 1
EndChar

StartChar: dcroat
Encoding: 208 273 209
Width: 500
GlyphClass: 2
Flags: MW
HStem: -10 52<209.5 240> 432 28<200 255 177.5 265> 527 34<219 340 219 340 424 500>
VStem: 27 86<183.5 276> 340 84<-7 114 57 114 102 114 114 332 332 358.5 417 527 561 573 573 593.5>
LayerCount: 2
Fore
SplineSet
340 527 m 1
 219 527 l 1
 219 561 l 1
 340 561 l 1
 340 573 l 2
 340 614 331 624 294 624 c 0
 286 624 280 624 272 623 c 1
 272 639 l 1
 336 656 371 666 419 683 c 1
 424 681 l 1
 424 561 l 1
 500 561 l 1
 500 527 l 1
 424 527 l 1
 424 114 l 2
 424 68 432 57 468 57 c 0
 472 57 478 57 491 58 c 1
 491 42 l 1
 344 -10 l 1
 340 -7 l 1
 340 57 l 1
 306 10 268 -10 212 -10 c 0
 101 -10 27 77 27 205 c 0
 27 347 120 460 235 460 c 0
 275 460 302 449 340 417 c 1
 340 527 l 1
340 102 m 2
 340 332 l 2
 340 385 292 432 238 432 c 0
 162 432 113 358 113 245 c 0
 113 122 168 42 251 42 c 0
 280 42 306 52 323 72 c 0
 333 83 340 95 340 102 c 2
EndSplineSet
Validated: 1
EndChar

StartChar: Emacron
Encoding: 209 274 210
Width: 611
GlyphClass: 2
Flags: MW
HStem: 0 20 327 41<201 355 201 355> 624 38<220 234 234 369> 759 54<150 461 150 461>
VStem: 99 102<109 327 368 553 553 553>
LayerCount: 2
Fore
SplineSet
597 169 m 1
 552 0 l 1
 12 0 l 1
 12 19 l 1
 84 23 97 37 99 109 c 2
 99 553 l 2
 97 625 85 638 12 643 c 1
 12 662 l 1
 543 662 l 1
 546 519 l 1
 521 519 l 1
 505 608 485 622 369 624 c 2
 234 624 l 2
 206 624 202 620 201 590 c 2
 201 368 l 1
 355 368 l 2
 439 370 453 382 465 463 c 1
 488 463 l 1
 488 231 l 1
 465 231 l 1
 452 313 439 325 355 327 c 2
 201 327 l 1
 201 80 l 2
 201 41 202 40 306 37 c 2
 333 37 l 2
 476 38 521 63 569 169 c 1
 597 169 l 1
150 813 m 1
 461 813 l 1
 461 759 l 1
 150 759 l 1
 150 813 l 1
EndSplineSet
Validated: 1
EndChar

StartChar: emacron
Encoding: 210 275 211
Width: 444
GlyphClass: 2
Flags: MW
HStem: -10 69<224.5 260> 277 32<99 303 99 405 97 303> 424 36<209 235.5> 547 54<67 378 67 378>
LayerCount: 2
Fore
SplineSet
408 164 m 1
 424 157 l 1
 382 49 308 -10 212 -10 c 0
 97 -10 25 76 25 214 c 0
 25 296 52 367 99 408 c 0
 137 442 184 460 234 460 c 0
 286 460 332 439 362 403 c 0
 387 371 397 342 405 277 c 1
 97 277 l 1
 99 215 106 183 124 145 c 0
 153 88 196 59 253 59 c 0
 317 59 360 88 408 164 c 1
99 309 m 1
 303 309 l 1
 290 396 266 424 205 424 c 0
 144 424 110 388 99 309 c 1
67 601 m 1
 378 601 l 1
 378 547 l 1
 67 547 l 1
 67 601 l 1
EndSplineSet
Validated: 1
EndChar

StartChar: Ebreve
Encoding: 211 276 212
Width: 611
GlyphClass: 2
Flags: MW
HStem: 0 20 327 41<201 355 201 355> 624 38<220 234 234 369> 719 60<280 335 274 346>
VStem: 99 102<109 327 368 553 553 553>
LayerCount: 2
Fore
SplineSet
597 169 m 1
 552 0 l 1
 12 0 l 1
 12 19 l 1
 84 23 97 37 99 109 c 2
 99 553 l 2
 97 625 85 638 12 643 c 1
 12 662 l 1
 543 662 l 1
 546 519 l 1
 521 519 l 1
 505 608 485 622 369 624 c 2
 234 624 l 2
 206 624 202 620 201 590 c 2
 201 368 l 1
 355 368 l 2
 439 370 453 382 465 463 c 1
 488 463 l 1
 488 231 l 1
 465 231 l 1
 452 313 439 325 355 327 c 2
 201 327 l 1
 201 80 l 2
 201 41 202 40 306 37 c 2
 333 37 l 2
 476 38 521 63 569 169 c 1
 597 169 l 1
417 876 m 1
 446 876 l 1
 434 770 388 719 304 719 c 0
 256 719 217 738 192 773 c 0
 173 801 166 825 165 876 c 1
 194 876 l 1
 208 809 242 779 306 779 c 0
 364 779 388 800 417 876 c 1
EndSplineSet
Validated: 1
EndChar

StartChar: ebreve
Encoding: 212 277 213
Width: 444
GlyphClass: 2
Flags: MW
HStem: -10 69<230.5 266> 277 32<105 309 105 411 103 309> 424 36<215 241.5> 507 60<215 269 208 280.5> 644 20<99 128 128 128 351 380 380 380>
LayerCount: 2
Fore
SplineSet
414 164 m 1
 430 157 l 1
 388 49 314 -10 218 -10 c 0
 103 -10 31 76 31 214 c 0
 31 296 58 367 105 408 c 0
 143 442 190 460 240 460 c 0
 292 460 338 439 368 403 c 0
 393 371 403 342 411 277 c 1
 103 277 l 1
 105 215 112 183 130 145 c 0
 159 88 202 59 259 59 c 0
 323 59 366 88 414 164 c 1
105 309 m 1
 309 309 l 1
 296 396 272 424 211 424 c 0
 150 424 116 388 105 309 c 1
351 664 m 1
 380 664 l 1
 368 558 322 507 239 507 c 0
 191 507 152 526 127 561 c 0
 107 589 101 613 99 664 c 1
 128 664 l 1
 142 597 176 567 240 567 c 0
 298 567 323 588 351 664 c 1
EndSplineSet
Validated: 1
EndChar

StartChar: Edotaccent
Encoding: 213 278 214
Width: 611
GlyphClass: 2
Flags: MW
HStem: 0 20 327 41<201 355 201 355> 624 38<220 234 234 369> 735 100<292 318.5 292 318.5>
VStem: 99 102<109 327 368 553 553 553> 257 98<771.5 798.5>
LayerCount: 2
Fore
SplineSet
597 169 m 1
 552 0 l 1
 12 0 l 1
 12 19 l 1
 84 23 97 37 99 109 c 2
 99 553 l 2
 97 625 85 638 12 643 c 1
 12 662 l 1
 543 662 l 1
 546 519 l 1
 521 519 l 1
 505 608 485 622 369 624 c 2
 234 624 l 2
 206 624 202 620 201 590 c 2
 201 368 l 1
 355 368 l 2
 439 370 453 382 465 463 c 1
 488 463 l 1
 488 231 l 1
 465 231 l 1
 452 313 439 325 355 327 c 2
 201 327 l 1
 201 80 l 2
 201 41 202 40 306 37 c 2
 333 37 l 2
 476 38 521 63 569 169 c 1
 597 169 l 1
305 835 m 0
 332 835 355 812 355 785 c 0
 355 757 332 735 305 735 c 0
 278 735 257 757 257 786 c 0
 257 812 279 835 305 835 c 0
EndSplineSet
Validated: 1
EndChar

StartChar: edotaccent
Encoding: 214 279 215
Width: 444
GlyphClass: 2
Flags: MW
HStem: -10 69<230.5 266> 277 32<105 309 105 411 103 309> 424 36<215 241.5> 523 100<215 241.5 215 241.5>
VStem: 180 98<559.5 586.5 559 587>
LayerCount: 2
Fore
SplineSet
414 164 m 1
 430 157 l 1
 388 49 314 -10 218 -10 c 0
 103 -10 31 76 31 214 c 0
 31 296 58 367 105 408 c 0
 143 442 190 460 240 460 c 0
 292 460 338 439 368 403 c 0
 393 371 403 342 411 277 c 1
 103 277 l 1
 105 215 112 183 130 145 c 0
 159 88 202 59 259 59 c 0
 323 59 366 88 414 164 c 1
105 309 m 1
 309 309 l 1
 296 396 272 424 211 424 c 0
 150 424 116 388 105 309 c 1
228 623 m 0
 255 623 278 600 278 573 c 0
 278 545 255 523 228 523 c 0
 201 523 180 545 180 574 c 0
 180 600 202 623 228 623 c 0
EndSplineSet
Validated: 1
EndChar

StartChar: Eogonek
Encoding: 215 280 216
Width: 611
GlyphClass: 2
Flags: MW
HStem: -165 56<509 519.5> 0 20 327 41<201 355 201 355> 624 38<220 234 234 369>
VStem: 99 102<109 327 368 553 553 553> 426 56<-81 -73>
LayerCount: 2
Fore
SplineSet
552 0 m 1
 546 0 l 2
 516 0 482 -36 482 -69 c 0
 482 -93 498 -109 520 -109 c 0
 541 -109 560 -100 591 -73 c 1
 611 -89 l 1
 574 -142 540 -165 499 -165 c 0
 457 -165 426 -132 426 -90 c 0
 426 -56 441 -31 480 0 c 1
 12 0 l 1
 12 19 l 1
 84 23 97 37 99 109 c 2
 99 553 l 2
 97 625 85 638 12 643 c 1
 12 662 l 1
 543 662 l 1
 546 519 l 1
 521 519 l 1
 505 608 485 622 369 624 c 2
 234 624 l 2
 206 624 202 620 201 590 c 2
 201 368 l 1
 355 368 l 2
 439 370 453 382 465 463 c 1
 488 463 l 1
 488 231 l 1
 465 231 l 1
 452 313 439 325 355 327 c 2
 201 327 l 1
 201 80 l 2
 201 41 202 40 306 37 c 2
 333 37 l 2
 476 38 521 63 569 169 c 1
 597 169 l 1
 552 0 l 1
EndSplineSet
Validated: 1
EndChar

StartChar: E3
Encoding: 216 281 217
Width: 556
GlyphClass: 2
Flags: HMW
HStem: -14 36<267.5 303.5 222 345> 0 20<114.5 127.5> 635 41<230 259.5 222 283.5> 642 20
VStem: 71 86<515.5 531> 390 101<116.5 146.5>
LayerCount: 2
Fore
SplineSet
298 193 m 4xe0
 327 193 350 171 350 142 c 4
 350 113 328 91 298 91 c 4
 270 91 248 113 248 142 c 4
 248 170 271 193 298 193 c 4xe0
EndSplineSet
Refer: 184 248 N 1 0 0 1 0 0 2
EndChar

StartChar: Ecaron
Encoding: 217 282 218
Width: 611
GlyphClass: 2
Flags: MW
HStem: 0 20 327 41<201 355 201 355> 624 38<220 234 234 369>
VStem: 99 102<109 327 368 553 553 553>
LayerCount: 2
Fore
SplineSet
597 169 m 1
 552 0 l 1
 12 0 l 1
 12 19 l 1
 84 23 97 37 99 109 c 2
 99 553 l 2
 97 625 85 638 12 643 c 1
 12 662 l 1
 543 662 l 1
 546 519 l 1
 521 519 l 1
 505 608 485 622 369 624 c 2
 234 624 l 2
 206 624 202 620 201 590 c 2
 201 368 l 1
 355 368 l 2
 439 370 453 382 465 463 c 1
 488 463 l 1
 488 231 l 1
 465 231 l 1
 452 313 439 325 355 327 c 2
 201 327 l 1
 201 80 l 2
 201 41 202 40 306 37 c 2
 333 37 l 2
 476 38 521 63 569 169 c 1
 597 169 l 1
461 886 m 1
 336 719 l 1
 274 719 l 1
 150 886 l 1
 184 886 l 1
 305 783 l 1
 427 886 l 1
 461 886 l 1
EndSplineSet
Validated: 1
EndChar

StartChar: ecaron
Encoding: 218 283 219
Width: 444
GlyphClass: 2
Flags: MW
HStem: -10 69<233.5 269> 277 32<108 312 108 414 106 312> 424 36<218 244.5> 654 20<83 117 117 117 360 394 394 394>
LayerCount: 2
Fore
SplineSet
417 164 m 1
 433 157 l 1
 391 49 317 -10 221 -10 c 0
 106 -10 34 76 34 214 c 0
 34 296 61 367 108 408 c 0
 146 442 193 460 243 460 c 0
 295 460 341 439 371 403 c 0
 396 371 406 342 414 277 c 1
 106 277 l 1
 108 215 115 183 133 145 c 0
 162 88 205 59 262 59 c 0
 326 59 369 88 417 164 c 1
108 309 m 1
 312 309 l 1
 299 396 275 424 214 424 c 0
 153 424 119 388 108 309 c 1
394 674 m 1
 269 507 l 1
 207 507 l 1
 83 674 l 1
 117 674 l 1
 238 571 l 1
 360 674 l 1
 394 674 l 1
EndSplineSet
Validated: 1
EndChar

StartChar: Gcircumflex
Encoding: 219 284 220
Width: 722
GlyphClass: 2
Flags: MW
HStem: -7 41<364.5 431 364.5 433.5> 627 42<352 409.5 335 424>
VStem: 28 117<290 361> 535 105<78 254 60 285>
LayerCount: 2
Fore
SplineSet
640 254 m 2
 640 60 l 1
 557 14 479 -7 388 -7 c 0
 272 -7 189 23 120 90 c 0
 58 151 28 223 28 314 c 0
 28 408 61 496 120 558 c 0
 185 627 286 669 384 669 c 0
 435 669 481 658 534 634 c 0
 549 627 563 623 572 623 c 0
 590 623 601 637 605 662 c 1
 625 662 l 1
 638 457 l 1
 618 455 l 1
 601 511 587 536 555 564 c 0
 510 605 453 627 395 627 c 0
 309 627 234 585 189 512 c 0
 159 464 145 410 145 338 c 0
 145 242 166 175 213 120 c 0
 261 64 326 34 403 34 c 0
 459 34 496 46 535 78 c 1
 535 254 l 2
 535 316 519 336 466 339 c 2
 451 339 l 1
 451 357 l 1
 726 357 l 1
 726 339 l 1
 709 339 l 2
 656 336 640 316 640 254 c 2
541 719 m 1
 507 719 l 1
 385 822 l 1
 264 719 l 1
 230 719 l 1
 354 886 l 1
 416 886 l 1
 541 719 l 1
EndSplineSet
Validated: 1
EndChar

StartChar: gcircumflex
Encoding: 220 285 221
Width: 500
GlyphClass: 2
Flags: MW
HStem: -218 57<199.5 238.5> 149 25<249 268.5> 388 39<393 470 393 470 387 470> 432 28<203 241.5> 654 20<218 280 280 280>
VStem: 28 70<-110 -102.5> 329 77<279 285> 433 28<-68 -46>
LayerCount: 2
Fore
SplineSet
470 388 m 1
 387 388 l 1
 401 356 406 333 406 304 c 0
 406 254 391 219 358 191 c 0
 327 164 287 149 250 149 c 0
 248 149 229 151 193 154 c 1
 166 146 133 111 133 91 c 0
 133 75 157 66 211 64 c 2
 340 58 l 2
 414 55 461 13 461 -49 c 0
 461 -87 444 -119 406 -150 c 0
 354 -192 276 -218 201 -218 c 0
 105 -218 28 -174 28 -121 c 0
 28 -84 54 -51 126 1 c 1
 84 21 73 32 73 54 c 0
 73 71 79 82 100 104 c 0
 103 108 115 119 136 139 c 2
 162 163 l 1
 95 196 69 234 69 297 c 0
 69 389 143 460 236 460 c 0
 262 460 289 455 316 445 c 2
 338 437 l 2
 358 430 372 427 393 427 c 2
 470 427 l 1
 470 388 l 1
152 338 m 2
 152 335 l 2
 152 239 193 174 255 174 c 0
 301 174 329 209 329 265 c 0
 329 305 318 350 299 385 c 0
 283 415 257 432 226 432 c 0
 180 432 152 397 152 338 c 2
147 -2 m 1
 107 -50 98 -65 98 -88 c 0
 98 -132 155 -161 244 -161 c 0
 357 -161 433 -122 433 -64 c 0
 433 -28 400 -15 309 -15 c 0
 260 -15 181 -9 147 -2 c 1
405 507 m 1
 371 507 l 1
 249 610 l 1
 128 507 l 1
 94 507 l 1
 218 674 l 1
 280 674 l 1
 405 507 l 1
EndSplineSet
Validated: 1
EndChar

StartChar: Gbreve
Encoding: 221 286 222
Width: 722
GlyphClass: 2
Flags: MW
HStem: -14 40<333 431.5> 636 40<358 397.5 275 420> 719 60<356 411 350 422>
VStem: 32 114<276 373 233 427> 542 97<85 247 247 247>
LayerCount: 2
Fore
SplineSet
709 354 m 1
 709 336 l 1
 652 332 641 320 639 259 c 2
 639 56 l 1
 599 21 475 -14 388 -14 c 0
 278 -14 181 24 115 93 c 0
 59 152 32 227 32 325 c 0
 32 529 175 676 375 676 c 0
 420 676 466 668 511 653 c 0
 529 647 545 643 555 643 c 0
 576 643 594 656 600 676 c 1
 622 676 l 1
 630 465 l 1
 607 465 l 1
 582 526 566 552 536 581 c 0
 498 617 448 636 392 636 c 0
 324 636 262 609 218 560 c 0
 174 511 146 420 146 326 c 0
 146 140 246 26 409 26 c 0
 482 26 542 53 542 85 c 2
 542 247 l 2
 540 323 532 331 454 336 c 1
 454 354 l 1
 709 354 l 1
493 876 m 1
 522 876 l 1
 510 770 464 719 380 719 c 0
 332 719 293 738 268 773 c 0
 249 801 242 825 241 876 c 1
 270 876 l 1
 284 809 318 779 382 779 c 0
 440 779 464 800 493 876 c 1
EndSplineSet
Validated: 1
EndChar

StartChar: gbreve
Encoding: 222 287 223
Width: 500
GlyphClass: 2
Flags: MW
HStem: -218 57<199.5 238.5> 149 25<249 268.5> 388 39<393 470 393 470 387 470> 432 28<203 241.5> 507 60<225 280 218.5 290.5> 644 20<110 139 139 139 362 391 391 391>
VStem: 28 70<-110 -102.5> 329 77<279 285> 433 28<-68 -46>
LayerCount: 2
Fore
SplineSet
470 388 m 1
 387 388 l 1
 401 356 406 333 406 304 c 0
 406 254 391 219 358 191 c 0
 327 164 287 149 250 149 c 0
 248 149 229 151 193 154 c 1
 166 146 133 111 133 91 c 0
 133 75 157 66 211 64 c 2
 340 58 l 2
 414 55 461 13 461 -49 c 0
 461 -87 444 -119 406 -150 c 0
 354 -192 276 -218 201 -218 c 0
 105 -218 28 -174 28 -121 c 0
 28 -84 54 -51 126 1 c 1
 84 21 73 32 73 54 c 0
 73 71 79 82 100 104 c 0
 103 108 115 119 136 139 c 2
 162 163 l 1
 95 196 69 234 69 297 c 0
 69 389 143 460 236 460 c 0
 262 460 289 455 316 445 c 2
 338 437 l 2
 358 430 372 427 393 427 c 2
 470 427 l 1
 470 388 l 1
147 -2 m 1
 107 -50 98 -65 98 -88 c 0
 98 -132 155 -161 244 -161 c 0
 357 -161 433 -122 433 -64 c 0
 433 -28 400 -15 309 -15 c 0
 260 -15 181 -9 147 -2 c 1
152 338 m 2
 152 335 l 2
 152 239 193 174 255 174 c 0
 301 174 329 209 329 265 c 0
 329 305 318 350 299 385 c 0
 283 415 257 432 226 432 c 0
 180 432 152 397 152 338 c 2
362 664 m 1
 391 664 l 1
 378 558 332 507 249 507 c 0
 201 507 162 526 137 561 c 0
 117 589 111 613 110 664 c 1
 139 664 l 1
 152 597 186 567 251 567 c 0
 309 567 333 588 362 664 c 1
EndSplineSet
Validated: 1
EndChar

StartChar: Gdotaccent
Encoding: 223 288 224
Width: 722
GlyphClass: 2
Flags: MW
HStem: -7 41<364.5 431 364.5 433.5> 627 42<352 409.5 335 424> 716 107<375 404.5>
VStem: 28 117<290 361> 336 107<755 784.5> 535 105<78 254 60 285>
LayerCount: 2
Fore
SplineSet
640 254 m 2
 640 60 l 1
 557 14 479 -7 388 -7 c 0
 272 -7 189 23 120 90 c 0
 58 151 28 223 28 314 c 0
 28 408 61 496 120 558 c 0
 185 627 286 669 384 669 c 0
 435 669 481 658 534 634 c 0
 549 627 563 623 572 623 c 0
 590 623 601 637 605 662 c 1
 625 662 l 1
 638 457 l 1
 618 455 l 1
 601 511 587 536 555 564 c 0
 510 605 453 627 395 627 c 0
 309 627 234 585 189 512 c 0
 159 464 145 410 145 338 c 0
 145 242 166 175 213 120 c 0
 261 64 326 34 403 34 c 0
 459 34 496 46 535 78 c 1
 535 254 l 2
 535 316 519 336 466 339 c 2
 451 339 l 1
 451 357 l 1
 726 357 l 1
 726 339 l 1
 709 339 l 2
 656 336 640 316 640 254 c 2
390 823 m 0
 419 823 443 799 443 770 c 0
 443 740 419 716 390 716 c 0
 360 716 336 740 336 770 c 0
 336 799 360 823 390 823 c 0
EndSplineSet
Validated: 1
EndChar

StartChar: gdotaccent
Encoding: 224 289 225
Width: 500
GlyphClass: 2
Flags: MW
HStem: -218 57<199.5 238.5> 149 25<249 268.5> 388 39<393 470 393 470 387 470> 432 28<203 241.5> 533 103<232.5 260.5>
VStem: 28 70<-110 -102.5> 195 103<570.5 599> 329 77<279 285> 433 28<-68 -46>
LayerCount: 2
Fore
SplineSet
247 636 m 0
 275 636 298 613 298 585 c 0
 298 556 275 533 246 533 c 0
 218 533 195 556 195 585 c 0
 195 613 218 636 247 636 c 0
470 388 m 1
 387 388 l 1
 401 356 406 333 406 304 c 0
 406 254 391 219 358 191 c 0
 327 164 287 149 250 149 c 0
 248 149 229 151 193 154 c 1
 166 146 133 111 133 91 c 0
 133 75 157 66 211 64 c 2
 340 58 l 2
 414 55 461 13 461 -49 c 0
 461 -87 444 -119 406 -150 c 0
 354 -192 276 -218 201 -218 c 0
 105 -218 28 -174 28 -121 c 0
 28 -84 54 -51 126 1 c 1
 84 21 73 32 73 54 c 0
 73 71 79 82 100 104 c 0
 103 108 115 119 136 139 c 2
 162 163 l 1
 95 196 69 234 69 297 c 0
 69 389 143 460 236 460 c 0
 262 460 289 455 316 445 c 2
 338 437 l 2
 358 430 372 427 393 427 c 2
 470 427 l 1
 470 388 l 1
152 338 m 2
 152 335 l 2
 152 239 193 174 255 174 c 0
 301 174 329 209 329 265 c 0
 329 305 318 350 299 385 c 0
 283 415 257 432 226 432 c 0
 180 432 152 397 152 338 c 2
147 -2 m 1
 107 -50 98 -65 98 -88 c 0
 98 -132 155 -161 244 -161 c 0
 357 -161 433 -122 433 -64 c 0
 433 -28 400 -15 309 -15 c 0
 260 -15 181 -9 147 -2 c 1
EndSplineSet
Validated: 1
EndChar

StartChar: Gcommaaccent
Encoding: 225 290 226
Width: 722
GlyphClass: 2
Flags: MW
HStem: -142 104<333.5 382> -14 40<333 431.5> 636 40<358 397.5 275 420>
VStem: 32 114<276 373 233 427> 392 39<-157 -152> 542 97<85 247 247 247>
LayerCount: 2
Fore
SplineSet
709 354 m 1
 709 336 l 1
 652 332 641 320 639 259 c 2
 639 56 l 1
 599 21 475 -14 388 -14 c 0
 278 -14 181 24 115 93 c 0
 59 152 32 227 32 325 c 0
 32 529 175 676 375 676 c 0
 420 676 466 668 511 653 c 0
 529 647 545 643 555 643 c 0
 576 643 594 656 600 676 c 1
 622 676 l 1
 630 465 l 1
 607 465 l 1
 582 526 566 552 536 581 c 0
 498 617 448 636 392 636 c 0
 324 636 262 609 218 560 c 0
 174 511 146 420 146 326 c 0
 146 140 246 26 409 26 c 0
 482 26 542 53 542 85 c 2
 542 247 l 2
 540 323 532 331 454 336 c 1
 454 354 l 1
 709 354 l 1
319 -281 m 1
 310 -262 l 1
 364 -225 392 -188 392 -156 c 0
 392 -148 386 -142 378 -142 c 0
 377 -142 376 -142 371 -144 c 0
 365 -145 358 -146 351 -146 c 0
 314 -146 292 -127 292 -95 c 0
 292 -61 316 -38 351 -38 c 0
 396 -38 431 -77 431 -127 c 0
 431 -187 386 -248 319 -281 c 1
EndSplineSet
Validated: 1
EndChar

StartChar: gcommaaccent
Encoding: 226 291 227
Width: 500
GlyphClass: 2
Flags: MW
HStem: -218 57<199.5 238.5> 149 25<249 268.5> 388 39<393 470 393 470 387 470> 432 28<203 241.5> 493 104<230 278.5>
VStem: 28 70<-110 -102.5> 181 39<607 612> 329 77<279 285> 433 28<-68 -46>
LayerCount: 2
Fore
SplineSet
470 388 m 1
 387 388 l 1
 401 356 406 333 406 304 c 0
 406 254 391 219 358 191 c 0
 327 164 287 149 250 149 c 0
 248 149 229 151 193 154 c 1
 166 146 133 111 133 91 c 0
 133 75 157 66 211 64 c 2
 340 58 l 2
 414 55 461 13 461 -49 c 0
 461 -87 444 -119 406 -150 c 0
 354 -192 276 -218 201 -218 c 0
 105 -218 28 -174 28 -121 c 0
 28 -84 54 -51 126 1 c 1
 84 21 73 32 73 54 c 0
 73 71 79 82 100 104 c 0
 103 108 115 119 136 139 c 2
 162 163 l 1
 95 196 69 234 69 297 c 0
 69 389 143 460 236 460 c 0
 262 460 289 455 316 445 c 2
 338 437 l 2
 358 430 372 427 393 427 c 2
 470 427 l 1
 470 388 l 1
147 -2 m 1
 107 -50 98 -65 98 -88 c 0
 98 -132 155 -161 244 -161 c 0
 357 -161 433 -122 433 -64 c 0
 433 -28 400 -15 309 -15 c 0
 260 -15 181 -9 147 -2 c 1
152 338 m 2
 152 335 l 2
 152 239 193 174 255 174 c 0
 301 174 329 209 329 265 c 0
 329 305 318 350 299 385 c 0
 283 415 257 432 226 432 c 0
 180 432 152 397 152 338 c 2
293 736 m 1
 302 717 l 1
 248 680 220 644 220 611 c 0
 220 603 226 597 234 597 c 0
 235 597 236 597 241 599 c 0
 247 600 254 601 261 601 c 0
 298 601 320 582 320 550 c 0
 320 516 296 493 261 493 c 0
 216 493 181 532 181 582 c 0
 181 642 226 703 293 736 c 1
EndSplineSet
Validated: 1
EndChar

StartChar: Hcircumflex
Encoding: 227 292 228
Width: 722
GlyphClass: 2
Flags: MW
HStem: 0 20 315 45<214 509 214 509> 642 20<18 304 304 304 418 704 704 704>
VStem: 109 105<104 315 360 559> 509 105<104 315 315 315 360 559>
LayerCount: 2
Fore
SplineSet
214 315 m 1
 214 104 l 2
 214 40 229 21 282 19 c 2
 304 18 l 1
 304 0 l 1
 18 0 l 1
 18 18 l 1
 41 19 l 2
 93 21 109 40 109 104 c 2
 109 559 l 2
 109 622 93 641 41 643 c 2
 18 644 l 1
 18 662 l 1
 304 662 l 1
 304 644 l 1
 282 643 l 2
 229 641 214 622 214 559 c 2
 214 360 l 1
 509 360 l 1
 509 559 l 2
 509 622 493 641 441 643 c 2
 418 644 l 1
 418 662 l 1
 704 662 l 1
 704 644 l 1
 682 643 l 2
 629 641 614 622 614 559 c 2
 614 104 l 2
 614 40 629 21 682 19 c 2
 704 18 l 1
 704 0 l 1
 418 0 l 1
 418 18 l 1
 441 19 l 2
 493 21 509 40 509 104 c 2
 509 315 l 1
 214 315 l 1
517 719 m 1
 483 719 l 1
 361 822 l 1
 240 719 l 1
 206 719 l 1
 330 886 l 1
 392 886 l 1
 517 719 l 1
EndSplineSet
Validated: 1
EndChar

StartChar: hcircumflex
Encoding: 228 293 229
Width: 500
GlyphClass: 2
Flags: MW
HStem: 0 20 406 54<274.5 293>
VStem: 73 84<102 343 102 376 376 573 573 594.5> 343 84<102 300 300 301 102 335>
LayerCount: 2
Fore
SplineSet
487 15 m 1
 487 0 l 1
 275 0 l 1
 275 15 l 1
 332 20 341 31 343 102 c 2
 343 300 l 2
 343 370 318 406 268 406 c 0
 229 406 199 389 157 343 c 1
 157 102 l 2
 159 31 167 20 225 15 c 1
 225 0 l 1
 9 0 l 1
 9 15 l 1
 66 22 71 30 73 102 c 2
 73 573 l 2
 73 616 65 624 22 624 c 0
 17 624 14 624 10 623 c 1
 10 639 l 1
 37 647 l 2
 93 663 118 671 152 683 c 1
 157 680 l 1
 157 376 l 1
 203 436 245 460 304 460 c 0
 386 460 427 406 427 301 c 2
 427 102 l 2
 428 31 433 24 487 15 c 1
310 726 m 1
 276 726 l 1
 154 829 l 1
 33 726 l 1
 -1 726 l 1
 123 893 l 1
 185 893 l 1
 310 726 l 1
EndSplineSet
Validated: 1
EndChar

StartChar: Hbar
Encoding: 229 294 230
Width: 722
GlyphClass: 2
Flags: MW
HStem: 0 20 315 45<214 509 214 509> 465 40<18 109 18 109 214 509 614 705> 642 20<18 304 304 304 419 705 705 705>
VStem: 109 105<104 315 360 465 505 558> 509 105<104 315 315 315 360 465 505 558>
LayerCount: 2
Fore
SplineSet
109 465 m 1
 18 465 l 1
 18 505 l 1
 109 505 l 1
 109 558 l 2
 109 622 93 641 40 643 c 2
 18 644 l 1
 18 662 l 1
 304 662 l 1
 304 644 l 1
 283 643 l 2
 230 641 214 622 214 558 c 2
 214 505 l 1
 509 505 l 1
 509 558 l 2
 509 622 493 641 441 643 c 2
 419 644 l 1
 419 662 l 1
 705 662 l 1
 705 644 l 1
 683 643 l 2
 630 641 614 622 614 558 c 2
 614 505 l 1
 705 505 l 1
 705 465 l 1
 614 465 l 1
 614 104 l 2
 614 40 630 21 683 19 c 2
 705 18 l 1
 705 0 l 1
 419 0 l 1
 419 18 l 1
 441 19 l 2
 493 21 509 40 509 104 c 2
 509 315 l 1
 214 315 l 1
 214 104 l 2
 214 40 230 21 283 19 c 2
 304 18 l 1
 304 0 l 1
 18 0 l 1
 18 18 l 1
 40 19 l 2
 93 21 109 40 109 104 c 2
 109 465 l 1
214 465 m 1
 214 360 l 1
 509 360 l 1
 509 465 l 1
 214 465 l 1
EndSplineSet
Validated: 1
EndChar

StartChar: hbar
Encoding: 230 295 231
Width: 500
GlyphClass: 2
Flags: MW
HStem: 0 20 406 58<287 288.5> 510 36<18 82 18 82 161 278> 658 20<161 161>
VStem: 82 79<122 342 378 510 546 566> 346 79<122 286>
LayerCount: 2
Fore
SplineSet
161 678 m 1
 161 546 l 1
 278 546 l 1
 278 510 l 1
 161 510 l 1
 161 378 l 1
 225 444 261 464 313 464 c 0
 352 464 389 441 405 407 c 0
 420 376 425 345 425 286 c 2
 425 122 l 2
 425 33 432 19 481 17 c 2
 491 17 l 1
 491 0 l 1
 279 0 l 1
 279 17 l 1
 290 17 l 2
 339 19 346 33 346 122 c 2
 346 286 l 2
 346 316 343 344 337 360 c 0
 329 387 302 406 275 406 c 0
 240 406 212 390 161 342 c 1
 161 122 l 2
 161 33 169 18 218 17 c 2
 231 17 l 1
 231 0 l 1
 8 0 l 1
 8 17 l 1
 25 17 l 2
 74 19 82 33 82 122 c 2
 82 510 l 1
 18 510 l 1
 18 546 l 1
 82 546 l 1
 82 586 72 601 45 601 c 0
 38 601 31 600 25 598 c 2
 15 594 l 1
 8 608 l 1
 82 639 92 644 161 678 c 1
EndSplineSet
Validated: 1
EndChar

StartChar: Itilde
Encoding: 231 296 232
Width: 333
GlyphClass: 2
Flags: MW
HStem: 0 20 642 20<18 315 315 315> 738 56<241.5 253.5> 784 55<77 86.5>
VStem: 115 102<109 553 109 553>
LayerCount: 2
Fore
SplineSet
18 0 m 1xe8
 18 19 l 1
 102 22 114 33 115 109 c 2
 115 553 l 2
 114 628 103 638 18 643 c 1
 18 662 l 1
 315 662 l 1
 315 643 l 1
 232 640 219 628 217 553 c 2
 217 109 l 2
 219 35 233 21 315 19 c 1
 315 0 l 1
 18 0 l 1xe8
302 844 m 1
 331 844 l 1
 310 768 281 738 226 738 c 0x28
 201 738 186 742 145 762 c 2
 122 773 l 2
 107 780 92 784 81 784 c 0x18
 58 784 41 769 30 738 c 1
 1 738 l 1x28
 16 803 52 839 102 839 c 0x18
 124 839 149 833 172 821 c 2
 196 809 l 2
 215 799 234 794 249 794 c 0
 272 794 285 806 302 844 c 1
EndSplineSet
Validated: 1
EndChar

StartChar: itilde
Encoding: 232 297 233
Width: 278
GlyphClass: 2
Flags: MW
HStem: 0 20 532 56<216.5 228.5> 578 55<52 62>
VStem: 102 84<102 334 334 356>
LayerCount: 2
Fore
SplineSet
23 0 m 1xd0
 23 15 l 1
 91 18 100 28 102 102 c 2
 102 334 l 2
 102 378 93 394 69 394 c 0
 60 394 47 393 35 391 c 2
 27 390 l 1
 27 405 l 1
 182 460 l 1
 186 457 l 1
 186 102 l 2
 187 29 194 20 260 15 c 1
 260 0 l 1
 23 0 l 1xd0
277 638 m 1
 306 638 l 1
 285 562 256 532 201 532 c 0x50
 176 532 161 536 120 556 c 2
 97 567 l 2
 82 574 68 578 56 578 c 0x30
 33 578 16 563 5 532 c 1
 -24 532 l 1x50
 -9 597 27 633 77 633 c 0x30
 99 633 124 627 147 615 c 2
 171 603 l 2
 190 594 209 588 224 588 c 0
 247 588 260 600 277 638 c 1
EndSplineSet
Validated: 1
EndChar

StartChar: Imacron
Encoding: 233 298 234
Width: 333
GlyphClass: 2
Flags: MW
HStem: 0 20 642 20<18 315 315 315> 759 54<11 322 11 322>
VStem: 115 102<109 553 109 553>
LayerCount: 2
Fore
SplineSet
18 0 m 1
 18 19 l 1
 102 22 114 33 115 109 c 2
 115 553 l 2
 114 628 103 638 18 643 c 1
 18 662 l 1
 315 662 l 1
 315 643 l 1
 232 640 219 628 217 553 c 2
 217 109 l 2
 219 35 233 21 315 19 c 1
 315 0 l 1
 18 0 l 1
11 813 m 1
 322 813 l 1
 322 759 l 1
 11 759 l 1
 11 813 l 1
EndSplineSet
Validated: 1
EndChar

StartChar: imacron
Encoding: 234 299 235
Width: 278
GlyphClass: 2
Flags: MW
HStem: 0 20 547 54<-25 283 -25 283>
VStem: 95 84<102 334 334 356>
LayerCount: 2
Fore
SplineSet
16 0 m 1
 16 15 l 1
 84 18 93 28 95 102 c 2
 95 334 l 2
 95 378 86 394 62 394 c 0
 53 394 40 393 28 391 c 2
 20 390 l 1
 20 405 l 1
 175 460 l 1
 179 457 l 1
 179 102 l 2
 180 29 187 20 253 15 c 1
 253 0 l 1
 16 0 l 1
-25 601 m 1
 283 601 l 1
 283 547 l 1
 -25 547 l 1
 -25 601 l 1
EndSplineSet
Validated: 1
EndChar

StartChar: Ibreve
Encoding: 235 300 236
Width: 333
GlyphClass: 2
Flags: MW
HStem: 0 20 642 20<18 315 315 315> 713 60<141.5 196 135 207>
VStem: 115 102<109 553 109 553>
LayerCount: 2
Fore
SplineSet
18 0 m 1
 18 19 l 1
 102 22 114 33 115 109 c 2
 115 553 l 2
 114 628 103 638 18 643 c 1
 18 662 l 1
 315 662 l 1
 315 643 l 1
 232 640 219 628 217 553 c 2
 217 109 l 2
 219 35 233 21 315 19 c 1
 315 0 l 1
 18 0 l 1
278 870 m 1
 307 870 l 1
 295 764 249 713 165 713 c 0
 118 713 78 732 53 767 c 0
 34 795 27 819 26 870 c 1
 55 870 l 1
 69 803 103 773 167 773 c 0
 225 773 249 794 278 870 c 1
EndSplineSet
Validated: 1
EndChar

StartChar: ibreve
Encoding: 236 301 237
Width: 278
GlyphClass: 2
Flags: MW
HStem: 0 20 523 60<116.5 155.5 116.5 165>
VStem: 103 79<122 324 324 352>
LayerCount: 2
Fore
SplineSet
182 470 m 1
 182 122 l 2
 182 33 190 19 239 17 c 2
 255 17 l 1
 255 0 l 1
 29 0 l 1
 29 17 l 1
 46 17 l 2
 97 20 102 29 103 122 c 2
 103 324 l 2
 103 380 96 393 67 393 c 0
 59 393 54 392 47 390 c 2
 36 386 l 1
 29 401 l 1
 103 431 114 436 182 470 c 1
226 640 m 1
 249 640 l 1
 228 558 194 523 136 523 c 0
 79 523 45 558 23 640 c 1
 47 640 l 1
 64 605 97 583 136 583 c 0
 175 583 209 605 226 640 c 1
EndSplineSet
Validated: 1
EndChar

StartChar: Iogonek
Encoding: 237 302 238
Width: 333
GlyphClass: 2
Flags: MW
HStem: -165 56<295 305.5> 0 20 642 20<18 315 315 315>
VStem: 115 102<109 553 109 553> 212 56<-81.5 -73>
LayerCount: 2
Fore
SplineSet
18 662 m 1xf0
 315 662 l 1
 315 643 l 1
 232 640 219 628 217 553 c 2
 217 109 l 2xf0
 219 35 233 21 315 19 c 1
 315 0 l 1
 311 -1 307 -4 296 -13 c 0
 277 -32 268 -50 268 -70 c 0
 268 -93 284 -109 306 -109 c 0
 327 -109 346 -100 377 -73 c 1
 397 -89 l 1
 360 -142 326 -165 285 -165 c 0
 243 -165 212 -132 212 -90 c 0xe8
 212 -56 227 -31 266 0 c 1
 18 0 l 1
 18 19 l 1
 102 22 114 33 115 109 c 2
 115 553 l 2
 114 628 103 638 18 643 c 1
 18 662 l 1xf0
EndSplineSet
Validated: 1
EndChar

StartChar: I3
Encoding: 238 303 239
Width: 611
GlyphClass: 2
Flags: HMW
HStem: -165 56<182 192.5> 0 20 581 102<120.5 148.5 120.5 149>
VStem: 84 102<617.5 646> 99 56<-81.5 -73> 101 84<102 334 334 356>
LayerCount: 2
Fore
SplineSet
447 128 m 0xe0
 418 128 395 150 395 179 c 0
 395 208 417 230 447 230 c 0
 475 230 497 208 497 179 c 0
 497 151 474 128 447 128 c 0xe0
163 128 m 4xe0
 192 128 215 150 215 179 c 4
 215 208 193 230 163 230 c 4
 135 230 113 208 113 179 c 4
 113 151 136 128 163 128 c 4xe0
EndSplineSet
Refer: 90 121 N 1 0 0 1 0 0 2
EndChar

StartChar: Idotaccent
Encoding: 239 304 240
Width: 333
GlyphClass: 2
Flags: MW
HStem: 0 20 642 20<18 315 315 315> 735 100<153 179.5 153 179.5>
VStem: 115 102<109 553 109 553> 118 98<771.5 798.5 771 799>
LayerCount: 2
Fore
SplineSet
18 0 m 1xf0
 18 19 l 1
 102 22 114 33 115 109 c 2
 115 553 l 2
 114 628 103 638 18 643 c 1
 18 662 l 1
 315 662 l 1
 315 643 l 1
 232 640 219 628 217 553 c 2
 217 109 l 2
 219 35 233 21 315 19 c 1
 315 0 l 1
 18 0 l 1xf0
166 835 m 0xe8
 193 835 216 812 216 785 c 0
 216 757 193 735 166 735 c 0
 139 735 118 757 118 786 c 0
 118 812 140 835 166 835 c 0xe8
EndSplineSet
Validated: 1
EndChar

StartChar: dotlessi
Encoding: 240 305 241
Width: 278
GlyphClass: 2
Flags: MW
HStem: 0 20 440 20<175 175>
VStem: 95 84<102 334 334 356>
LayerCount: 2
Fore
SplineSet
16 0 m 1
 16 15 l 1
 84 18 93 28 95 102 c 2
 95 334 l 2
 95 378 86 394 62 394 c 0
 53 394 40 393 28 391 c 2
 20 390 l 1
 20 405 l 1
 175 460 l 1
 179 457 l 1
 179 102 l 2
 180 29 187 20 253 15 c 1
 253 0 l 1
 16 0 l 1
EndSplineSet
Validated: 1
EndChar

StartChar: IJ
Encoding: 241 306 242
Width: 708
GlyphClass: 2
Flags: MW
HStem: -7 41<476.5 493 476.5 496> 0 20 642 20<18 304 304 304 415 702 702 702>
VStem: 109 105<103 559> 511 103<144 193 193 559>
LayerCount: 2
Fore
SplineSet
304 18 m 1x78
 304 0 l 1
 18 0 l 1
 18 18 l 1
 40 19 l 2
 93 21 109 40 109 103 c 2
 109 559 l 2
 109 622 93 641 40 643 c 2
 18 644 l 1
 18 662 l 1
 304 662 l 1
 304 644 l 1
 282 643 l 2
 229 641 214 622 214 559 c 2
 214 103 l 2
 214 40 229 21 282 19 c 2
 304 18 l 1x78
415 644 m 1xb8
 415 662 l 1
 702 662 l 1
 702 644 l 1
 682 643 l 2
 629 641 613 622 614 559 c 2
 614 193 l 2
 614 71 548 -7 444 -7 c 0
 382 -7 340 23 340 67 c 0
 340 94 360 113 390 113 c 0
 419 113 432 102 454 58 c 0
 461 43 471 34 482 34 c 0
 504 34 511 60 511 144 c 2
 511 559 l 2
 509 617 487 643 437 643 c 2
 415 644 l 1xb8
EndSplineSet
Validated: 33
EndChar

StartChar: ij
Encoding: 242 307 243
Width: 552
GlyphClass: 2
Flags: MW
HStem: -159 43<268 352> 0 20 559 103<136.5 165 392.5 421>
VStem: 99 103<596.5 625> 117 79<122 324 324 352> 355 103<596.5 625> 374 79<23.5 67 67 324 324 352>
LayerCount: 2
Fore
SplineSet
196 470 m 1xe8
 196 122 l 2
 196 33 204 19 253 17 c 2
 269 17 l 1
 269 0 l 1
 43 0 l 1
 43 17 l 1
 60 17 l 2
 111 20 116 29 117 122 c 2
 117 324 l 2
 117 380 110 393 81 393 c 0
 73 393 68 392 61 390 c 2
 50 386 l 1
 43 401 l 1
 117 431 128 436 196 470 c 1xe8
151 662 m 0xf2
 179 662 202 639 202 611 c 0
 202 582 179 559 151 559 c 0
 122 559 99 582 99 611 c 0
 99 639 122 662 151 662 c 0xf2
453 470 m 1
 453 67 l 2
 453 -20 449 -45 432 -79 c 0
 405 -129 352 -159 291 -159 c 0
 245 -159 211 -137 211 -108 c 0
 211 -87 229 -69 252 -69 c 0
 268 -69 283 -77 305 -97 c 0
 319 -111 329 -116 339 -116 c 0
 365 -116 374 -88 374 0 c 2
 374 324 l 2
 374 380 367 393 338 393 c 0
 329 393 324 392 318 390 c 2
 307 386 l 1
 300 401 l 1
 374 431 384 436 453 470 c 1
407 662 m 0xe4
 435 662 458 639 458 611 c 0
 458 582 435 559 407 559 c 0
 378 559 355 582 355 611 c 0
 355 639 378 662 407 662 c 0xe4
EndSplineSet
Validated: 1
EndChar

StartChar: Jcircumflex
Encoding: 243 308 244
Width: 389
GlyphClass: 2
Flags: MW
HStem: -14 38<137 157 137 169> 642 20<89 376 376 376>
VStem: 182 102<120.5 183 183 553>
LayerCount: 2
Fore
SplineSet
376 662 m 1
 376 643 l 1
 295 637 286 628 284 553 c 2
 284 183 l 2
 284 58 223 -14 115 -14 c 0
 57 -14 16 16 16 58 c 0
 16 85 38 108 65 108 c 0
 91 108 107 92 117 57 c 0
 124 32 130 24 144 24 c 0
 170 24 182 45 182 90 c 2
 182 553 l 2
 181 627 170 637 89 643 c 1
 89 662 l 1
 376 662 l 1
394 728 m 1
 360 728 l 1
 238 831 l 1
 117 728 l 1
 83 728 l 1
 207 895 l 1
 269 895 l 1
 394 728 l 1
EndSplineSet
Validated: 1
EndChar

StartChar: jcircumflex
Encoding: 244 309 245
Width: 278
GlyphClass: 2
Flags: MW
HStem: -218 34<-3.5 68> 0 20 654 20<105 167 167 167>
VStem: 109 84<-39.5 0 0 334 334 355.5>
LayerCount: 2
Fore
SplineSet
193 457 m 1
 193 0 l 2
 193 -79 171 -147 135 -179 c 0
 108 -204 68 -218 24 -218 c 0
 -31 -218 -70 -195 -70 -163 c 0
 -70 -141 -52 -124 -29 -124 c 0
 -13 -124 1 -133 19 -156 c 0
 36 -177 46 -184 61 -184 c 0
 75 -184 89 -176 95 -166 c 0
 106 -146 109 -121 109 -45 c 2
 109 334 l 2
 109 377 100 394 77 394 c 0
 67 394 52 393 37 391 c 2
 32 390 l 1
 32 406 l 1
 91 424 129 437 188 460 c 1
 193 457 l 1
292 507 m 1
 258 507 l 1
 136 610 l 1
 15 507 l 1
 -19 507 l 1
 105 674 l 1
 167 674 l 1
 292 507 l 1
EndSplineSet
Validated: 1
EndChar

StartChar: Kcommaaccent
Encoding: 245 310 246
Width: 722
GlyphClass: 2
Flags: MW
HStem: -142 104<333.5 382> 0 20<443.5 446 443.5 723> 642 20<34 318 318 318 413 675 675 675>
VStem: 124 102<120 296 109 348 348 553> 392 39<-157 -152>
LayerCount: 2
Fore
SplineSet
413 643 m 1
 413 662 l 1
 675 662 l 1
 675 643 l 1
 607 638 591 630 523 565 c 2
 333 377 l 1
 566 127 l 2
 657 30 671 20 723 19 c 1
 723 0 l 1
 418 0 l 1
 418 19 l 1
 430 20 441 20 446 20 c 0
 475 21 488 28 488 42 c 0
 488 66 434 136 358 212 c 2
 252 317 l 1
 226 296 l 1
 226 109 l 2
 227 35 239 24 316 19 c 1
 316 0 l 1
 34 0 l 1
 34 19 l 1
 112 24 123 35 124 120 c 2
 124 553 l 2
 122 626 111 638 34 643 c 1
 34 662 l 1
 318 662 l 1
 318 643 l 1
 237 637 227 628 226 553 c 2
 226 348 l 1
 403 509 l 2
 458 560 481 590 481 612 c 0
 481 636 473 640 413 643 c 1
319 -281 m 1
 310 -262 l 1
 364 -225 392 -188 392 -156 c 0
 392 -148 386 -142 378 -142 c 0
 377 -142 376 -142 371 -144 c 0
 365 -145 358 -146 351 -146 c 0
 314 -146 292 -127 292 -95 c 0
 292 -61 316 -38 351 -38 c 0
 396 -38 431 -77 431 -127 c 0
 431 -187 386 -248 319 -281 c 1
EndSplineSet
Validated: 1
EndChar

StartChar: kcommaaccent
Encoding: 246 311 247
Width: 500
GlyphClass: 2
Flags: MW
HStem: -142 104<222.5 271> 0 20 430 20<276 480 480 480>
VStem: 82 84<82 251 261 564 564 588> 281 39<-157 -152>
LayerCount: 2
Fore
SplineSet
7 0 m 1
 7 15 l 1
 78 26 81 29 82 82 c 2
 82 564 l 2
 82 612 73 625 39 625 c 0
 29 625 20 624 7 623 c 1
 7 639 l 1
 37 647 l 2
 95 663 124 671 162 683 c 1
 166 681 l 1
 166 261 l 1
 303 383 l 2
 317 396 326 409 326 418 c 0
 326 431 315 435 276 436 c 1
 276 450 l 1
 480 450 l 1
 480 435 l 1
 416 437 389 421 264 309 c 2
 235 282 l 1
 388 88 l 2
 430 37 461 18 505 15 c 1
 505 0 l 1
 287 0 l 1
 287 15 l 1
 306 15 l 2
 318 15 327 21 327 30 c 0
 327 35 324 41 316 51 c 0
 313 54 310 59 306 64 c 2
 166 251 l 1
 166 67 l 2
 167 30 179 19 221 16 c 2
 241 15 l 1
 241 0 l 1
 7 0 l 1
208 -281 m 1
 199 -262 l 1
 253 -225 281 -188 281 -156 c 0
 281 -148 275 -142 267 -142 c 0
 266 -142 265 -142 260 -144 c 0
 254 -145 247 -146 240 -146 c 0
 203 -146 181 -127 181 -95 c 0
 181 -61 205 -38 240 -38 c 0
 285 -38 320 -77 320 -127 c 0
 320 -187 275 -248 208 -281 c 1
EndSplineSet
Validated: 33
EndChar

StartChar: kgreenlandic
Encoding: 247 312 248
Width: 500
GlyphClass: 2
Flags: MW
HStem: 0 20
VStem: 102 79<122 230 122 262 262 324 324 344>
LayerCount: 2
Fore
SplineSet
181 230 m 1
 181 122 l 2
 180 33 188 18 238 17 c 2
 251 17 l 1
 251 0 l 1
 31 0 l 1
 31 17 l 1
 45 17 l 2
 94 19 102 33 102 122 c 2
 102 324 l 2
 102 364 101 372 93 382 c 0
 88 390 77 394 65 394 c 0
 60 394 52 392 45 390 c 2
 34 387 l 1
 28 401 l 1
 101 431 112 436 181 470 c 1
 181 262 l 1
 298 392 l 2
 308 403 314 414 314 422 c 0
 314 433 305 439 289 440 c 2
 284 440 l 1
 284 457 l 1
 461 457 l 1
 461 440 l 1
 448 439 l 2
 400 435 380 423 335 374 c 2
 245 277 l 1
 362 116 l 2
 419 34 442 17 493 17 c 1
 493 0 l 1
 284 0 l 1
 284 17 l 1
 294 17 l 2
 307 17 314 22 314 32 c 0
 314 38 307 52 297 65 c 2
 181 230 l 1
EndSplineSet
Validated: 33
EndChar

StartChar: Lacute
Encoding: 248 313 249
Width: 611
GlyphClass: 2
Flags: MW
HStem: 0 39<287 354 287 550> 642 20<12 294 294 294>
VStem: 99 102<109 553 80 553>
LayerCount: 2
Fore
SplineSet
294 662 m 1
 294 643 l 1
 216 639 203 626 201 553 c 2
 201 80 l 2
 202 44 210 41 287 39 c 2
 354 39 l 1
 483 43 526 69 573 174 c 1
 598 174 l 1
 550 0 l 1
 12 0 l 1
 12 19 l 1
 84 23 97 37 99 109 c 2
 99 553 l 2
 97 625 85 638 12 643 c 1
 12 662 l 1
 294 662 l 1
151 719 m 1
 111 719 l 1
 258 867 l 2
 277 885 285 890 301 890 c 0
 322 890 335 878 335 858 c 0
 335 842 326 829 305 816 c 2
 151 719 l 1
EndSplineSet
Validated: 1
EndChar

StartChar: lacute
Encoding: 249 314 250
Width: 278
GlyphClass: 2
Flags: MW
HStem: 0 20
VStem: 98 84<87 564 564 587.5>
LayerCount: 2
Fore
SplineSet
21 0 m 1
 21 15 l 1
 83 19 97 33 98 87 c 2
 98 564 l 2
 98 611 88 625 56 625 c 0
 48 625 36 624 25 623 c 2
 19 623 l 1
 19 639 l 1
 88 656 126 666 178 683 c 1
 182 681 l 1
 182 84 l 2
 183 28 194 18 257 15 c 1
 257 0 l 1
 21 0 l 1
99 719 m 1
 59 719 l 1
 206 867 l 2
 224 885 233 890 248 890 c 0
 270 890 283 878 283 858 c 0
 283 842 274 829 253 816 c 2
 99 719 l 1
EndSplineSet
Validated: 1
EndChar

StartChar: Lcommaaccent
Encoding: 250 315 251
Width: 611
GlyphClass: 2
Flags: MW
HStem: -142 104<277.5 326> 0 39<287 354 287 550> 642 20<12 294 294 294>
VStem: 99 102<109 553 80 553> 336 39<-157 -152>
LayerCount: 2
Fore
SplineSet
294 662 m 1
 294 643 l 1
 216 639 203 626 201 553 c 2
 201 80 l 2
 202 44 210 41 287 39 c 2
 354 39 l 1
 483 43 526 69 573 174 c 1
 598 174 l 1
 550 0 l 1
 12 0 l 1
 12 19 l 1
 84 23 97 37 99 109 c 2
 99 553 l 2
 97 625 85 638 12 643 c 1
 12 662 l 1
 294 662 l 1
263 -281 m 1
 254 -262 l 1
 308 -225 336 -188 336 -156 c 0
 336 -148 330 -142 322 -142 c 0
 321 -142 320 -142 315 -144 c 0
 309 -145 302 -146 295 -146 c 0
 258 -146 236 -127 236 -95 c 0
 236 -61 260 -38 295 -38 c 0
 340 -38 375 -77 375 -127 c 0
 375 -187 330 -248 263 -281 c 1
EndSplineSet
Validated: 1
EndChar

StartChar: L3
Encoding: 251 316 252
Width: 556
GlyphClass: 2
Flags: HMW
HStem: -142 104<111.5 160> 0 20
VStem: 98 84<87 564 564 587.5> 170 39<-157 -152>
LayerCount: 2
Fore
SplineSet
316 232 m 4xe0
 345 232 368 210 368 181 c 4
 368 152 346 130 316 130 c 4
 288 130 266 152 266 181 c 4
 266 209 289 232 316 232 c 4xe0
EndSplineSet
Refer: 77 108 N 1 0 0 1 0 0 2
Validated: 9
EndChar

StartChar: Lcaron
Encoding: 252 317 253
Width: 611
GlyphClass: 2
Flags: MW
HStem: 0 39<287 354 287 550> 572 104<396.5 445> 642 20<12 294 294 294>
VStem: 99 102<109 553 80 553> 455 39<557 562>
LayerCount: 2
Fore
SplineSet
294 662 m 1xb8
 294 643 l 1
 216 639 203 626 201 553 c 2
 201 80 l 2
 202 44 210 41 287 39 c 2
 354 39 l 1
 483 43 526 69 573 174 c 1
 598 174 l 1
 550 0 l 1
 12 0 l 1
 12 19 l 1
 84 23 97 37 99 109 c 2
 99 553 l 2
 97 625 85 638 12 643 c 1
 12 662 l 1
 294 662 l 1xb8
382 433 m 1x58
 373 452 l 1
 427 489 455 525 455 558 c 0
 455 566 449 572 441 572 c 0
 440 572 439 572 434 570 c 0
 428 569 421 568 414 568 c 0
 377 568 355 587 355 619 c 0
 355 653 379 676 414 676 c 0
 459 676 494 637 494 587 c 0
 494 527 449 466 382 433 c 1x58
EndSplineSet
Validated: 1
EndChar

StartChar: lcaron
Encoding: 253 318 254
Width: 344
GlyphClass: 2
Flags: MW
HStem: 0 20 572 104<285.5 334>
VStem: 96 84<87 564 564 587.5> 344 39<557 562>
LayerCount: 2
Fore
SplineSet
271 433 m 1
 262 452 l 1
 316 489 344 525 344 558 c 0
 344 566 338 572 330 572 c 0
 329 572 328 572 323 570 c 0
 317 569 310 568 303 568 c 0
 266 568 244 587 244 619 c 0
 244 653 268 676 303 676 c 0
 348 676 383 637 383 587 c 0
 383 527 338 466 271 433 c 1
19 0 m 1
 19 15 l 1
 81 19 95 33 96 87 c 2
 96 564 l 2
 96 611 86 625 54 625 c 0
 46 625 34 624 23 623 c 2
 17 623 l 1
 17 639 l 1
 86 656 124 666 176 683 c 1
 180 681 l 1
 180 84 l 2
 181 28 192 18 255 15 c 1
 255 0 l 1
 19 0 l 1
EndSplineSet
Validated: 1
EndChar

StartChar: Ldot
Encoding: 254 319 255
Width: 611
GlyphClass: 2
Flags: MW
HStem: 0 39<287 354 287 550> 279 111<390 419.5> 642 20<12 294 294 294>
VStem: 99 102<109 553 80 553> 350 111<318.5 348.5 318 349>
LayerCount: 2
Fore
SplineSet
294 662 m 1
 294 643 l 1
 216 639 203 626 201 553 c 2
 201 80 l 2
 202 44 210 41 287 39 c 2
 354 39 l 1
 483 43 526 69 573 174 c 1
 598 174 l 1
 550 0 l 1
 12 0 l 1
 12 19 l 1
 84 23 97 37 99 109 c 2
 99 553 l 2
 97 625 85 638 12 643 c 1
 12 662 l 1
 294 662 l 1
405 390 m 0
 435 390 461 364 461 333 c 0
 461 303 435 279 404 279 c 0
 375 279 350 304 350 333 c 0
 350 365 375 390 405 390 c 0
EndSplineSet
Validated: 1
EndChar

StartChar: ldot
Encoding: 255 320 256
Width: 344
GlyphClass: 2
Flags: MW
HStem: 0 20 279 111<294 323.5>
VStem: 98 84<87 564 564 587.5> 254 111<318.5 348.5 318 349>
LayerCount: 2
Fore
SplineSet
309 390 m 0
 339 390 365 364 365 333 c 0
 365 303 339 279 308 279 c 0
 279 279 254 304 254 333 c 0
 254 365 279 390 309 390 c 0
21 0 m 1
 21 15 l 1
 83 19 97 33 98 87 c 2
 98 564 l 2
 98 611 88 625 56 625 c 0
 48 625 36 624 25 623 c 2
 19 623 l 1
 19 639 l 1
 88 656 126 666 178 683 c 1
 182 681 l 1
 182 84 l 2
 183 28 194 18 257 15 c 1
 257 0 l 1
 21 0 l 1
EndSplineSet
Validated: 1
EndChar

StartChar: Lslash
Encoding: 256 321 257
Width: 611
GlyphClass: 2
Flags: MW
HStem: 0 39<287 354 287 550> 642 20<12 294 294 294>
VStem: 99 102<109 276 276 276 325 335 384 553>
LayerCount: 2
Fore
SplineSet
99 325 m 1
 99 553 l 2
 97 625 85 638 12 643 c 1
 12 662 l 1
 294 662 l 1
 294 643 l 1
 216 639 203 626 201 553 c 2
 201 384 l 1
 356 473 l 1
 356 424 l 1
 201 335 l 1
 201 80 l 2
 202 44 210 41 287 39 c 2
 354 39 l 1
 483 43 526 69 573 174 c 1
 598 174 l 1
 550 0 l 1
 12 0 l 1
 12 19 l 1
 84 23 97 37 99 109 c 2
 99 276 l 1
 12 226 l 1
 12 275 l 1
 99 325 l 1
EndSplineSet
Validated: 1
EndChar

StartChar: L2
Encoding: 257 322 258
Width: 556
GlyphClass: 2
Flags: HMW
HStem: 0 20
VStem: 98 84<87 318 318 318 362 375 419 564 564 587.5>
LayerCount: 2
Fore
SplineSet
336 552 m 4xe0
 365 552 388 530 388 501 c 4
 388 472 366 450 336 450 c 4
 308 450 286 472 286 501 c 4
 286 529 309 552 336 552 c 4xe0
EndSplineSet
Refer: 77 108 N 1 0 0 1 0 0 2
Validated: 9
EndChar

StartChar: Nacute
Encoding: 258 323 259
Width: 722
GlyphClass: 2
Flags: MW
HStem: -11 20 0 20 642 20<12 183 183 183 472 707 707 707>
VStem: 109 44<147 539 147 588> 568 44<178 515 -11 515>
LayerCount: 2
Fore
SplineSet
707 662 m 1x78
 707 643 l 1
 628 636 615 619 612 515 c 2
 612 -11 l 1
 595 -11 l 1xb8
 153 539 l 1
 153 147 l 2
 155 44 170 23 247 19 c 1
 247 0 l 1
 12 0 l 1
 12 19 l 1
 94 24 107 41 109 147 c 2
 109 588 l 1
 69 635 55 643 12 643 c 1
 12 662 l 1
 183 662 l 1
 568 178 l 1
 568 515 l 2
 565 621 552 638 472 643 c 1
 472 662 l 1
 707 662 l 1x78
328 719 m 1
 288 719 l 1
 435 867 l 2
 453 885 462 890 477 890 c 0
 499 890 512 878 512 858 c 0
 512 842 503 829 482 816 c 2
 328 719 l 1
EndSplineSet
Validated: 1
EndChar

StartChar: nacute
Encoding: 259 324 260
Width: 500
GlyphClass: 2
Flags: MW
HStem: 0 20 405 55<283 291.5> 658 20<344 362.5>
VStem: 80 84<90 338 338 348> 340 84<99 308 308 310 81 341>
LayerCount: 2
Fore
SplineSet
18 0 m 1
 18 15 l 1
 68 18 79 31 80 90 c 2
 80 338 l 2
 80 387 71 402 43 402 c 0
 32 402 22 401 16 398 c 1
 16 415 l 1
 71 431 105 442 154 460 c 1
 161 458 l 1
 161 379 l 1
 229 443 260 460 306 460 c 0
 380 460 424 404 424 310 c 2
 424 81 l 2
 425 32 436 20 485 15 c 1
 485 0 l 1
 277 0 l 1
 277 15 l 1
 326 18 338 34 340 99 c 2
 340 308 l 2
 340 374 316 405 267 405 c 0
 234 405 211 393 164 348 c 1
 164 67 l 2
 164 31 180 18 230 15 c 1
 230 0 l 1
 18 0 l 1
202 507 m 1
 162 507 l 1
 309 655 l 2
 328 673 336 678 352 678 c 0
 373 678 386 666 386 646 c 0
 386 630 377 617 356 604 c 2
 202 507 l 1
EndSplineSet
Validated: 1
EndChar

StartChar: Ncommaaccent
Encoding: 260 325 261
Width: 722
GlyphClass: 2
Flags: MW
HStem: -142 104<353.5 402> 0 20 642 20<12 183 183 183 472 707 707 707>
VStem: 109 44<147 539 147 588> 412 39<-157 -152> 568 44<178 515 -11 515>
LayerCount: 2
Fore
SplineSet
707 662 m 1
 707 643 l 1
 628 636 615 619 612 515 c 2
 612 -11 l 1
 595 -11 l 1
 153 539 l 1
 153 147 l 2
 155 44 170 23 247 19 c 1
 247 0 l 1
 12 0 l 1
 12 19 l 1
 94 24 107 41 109 147 c 2
 109 588 l 1
 69 635 55 643 12 643 c 1
 12 662 l 1
 183 662 l 1
 568 178 l 1
 568 515 l 2
 565 621 552 638 472 643 c 1
 472 662 l 1
 707 662 l 1
339 -281 m 1
 330 -262 l 1
 384 -225 412 -188 412 -156 c 0
 412 -148 406 -142 398 -142 c 0
 397 -142 396 -142 391 -144 c 0
 385 -145 378 -146 371 -146 c 0
 334 -146 312 -127 312 -95 c 0
 312 -61 336 -38 371 -38 c 0
 416 -38 451 -77 451 -127 c 0
 451 -187 407 -248 339 -281 c 1
EndSplineSet
Validated: 1
EndChar

StartChar: ncommaaccent
Encoding: 261 326 262
Width: 500
GlyphClass: 2
Flags: MW
HStem: -142 104<222.5 271> 0 20 405 55<283 291.5>
VStem: 80 84<90 338 338 348> 281 39<-157 -152> 340 84<99 308 308 310 81 341>
LayerCount: 2
Fore
SplineSet
18 0 m 1
 18 15 l 1
 68 18 79 31 80 90 c 2
 80 338 l 2
 80 387 71 402 43 402 c 0
 32 402 22 401 16 398 c 1
 16 415 l 1
 71 431 105 442 154 460 c 1
 161 458 l 1
 161 379 l 1
 229 443 260 460 306 460 c 0
 380 460 424 404 424 310 c 2
 424 81 l 2
 425 32 436 20 485 15 c 1
 485 0 l 1
 277 0 l 1
 277 15 l 1
 326 18 338 34 340 99 c 2
 340 308 l 2
 340 374 316 405 267 405 c 0
 234 405 211 393 164 348 c 1
 164 67 l 2
 164 31 180 18 230 15 c 1
 230 0 l 1
 18 0 l 1
208 -281 m 1
 199 -262 l 1
 253 -225 281 -188 281 -156 c 0
 281 -148 275 -142 267 -142 c 0
 266 -142 265 -142 260 -144 c 0
 254 -145 247 -146 240 -146 c 0
 203 -146 181 -127 181 -95 c 0
 181 -61 205 -38 240 -38 c 0
 285 -38 320 -77 320 -127 c 0
 320 -187 275 -248 208 -281 c 1
EndSplineSet
Validated: 1
EndChar

StartChar: Ncaron
Encoding: 262 327 263
Width: 722
GlyphClass: 2
Flags: MW
HStem: -11 20 0 20 642 20<12 183 183 183 472 707 707 707>
VStem: 109 44<147 539 147 588> 568 44<178 515 -11 515>
LayerCount: 2
Fore
SplineSet
707 662 m 1x78
 707 643 l 1
 628 636 615 619 612 515 c 2
 612 -11 l 1
 595 -11 l 1xb8
 153 539 l 1
 153 147 l 2
 155 44 170 23 247 19 c 1
 247 0 l 1
 12 0 l 1
 12 19 l 1
 94 24 107 41 109 147 c 2
 109 588 l 1
 69 635 55 643 12 643 c 1
 12 662 l 1
 183 662 l 1
 568 178 l 1
 568 515 l 2
 565 621 552 638 472 643 c 1
 472 662 l 1
 707 662 l 1x78
517 886 m 1
 392 719 l 1
 330 719 l 1
 206 886 l 1
 240 886 l 1
 361 783 l 1
 483 886 l 1
 517 886 l 1
EndSplineSet
Validated: 1
EndChar

StartChar: ncaron
Encoding: 263 328 264
Width: 500
GlyphClass: 2
Flags: MW
HStem: 0 20 405 55<283 291.5> 654 20<95 129 129 129 372 406 406 406>
VStem: 80 84<90 338 338 348> 340 84<99 308 308 310 81 341>
LayerCount: 2
Fore
SplineSet
18 0 m 1
 18 15 l 1
 68 18 79 31 80 90 c 2
 80 338 l 2
 80 387 71 402 43 402 c 0
 32 402 22 401 16 398 c 1
 16 415 l 1
 71 431 105 442 154 460 c 1
 161 458 l 1
 161 379 l 1
 229 443 260 460 306 460 c 0
 380 460 424 404 424 310 c 2
 424 81 l 2
 425 32 436 20 485 15 c 1
 485 0 l 1
 277 0 l 1
 277 15 l 1
 326 18 338 34 340 99 c 2
 340 308 l 2
 340 374 316 405 267 405 c 0
 234 405 211 393 164 348 c 1
 164 67 l 2
 164 31 180 18 230 15 c 1
 230 0 l 1
 18 0 l 1
406 674 m 1
 281 507 l 1
 219 507 l 1
 95 674 l 1
 129 674 l 1
 250 571 l 1
 372 674 l 1
 406 674 l 1
EndSplineSet
Validated: 1
EndChar

StartChar: napostrophe
Encoding: 264 329 265
Width: 604
GlyphClass: 2
Flags: MW
HStem: 0 20 405 55<387 395.5> 652 20<48.5 84>
VStem: 184 84<90 338 338 348> 444 84<99 308 308 310 81 341>
LayerCount: 2
Fore
SplineSet
6 453 m 1
 6 469 l 1
 59 486 89 521 91 570 c 1
 76 566 69 565 61 565 c 0
 33 565 9 590 9 619 c 0
 9 649 33 672 64 672 c 0
 104 672 133 635 133 585 c 0
 133 517 84 465 6 453 c 1
122 0 m 1
 122 15 l 1
 172 18 183 31 184 90 c 2
 184 338 l 2
 184 387 175 402 147 402 c 0
 136 402 126 401 120 398 c 1
 120 415 l 1
 175 431 209 442 258 460 c 1
 265 458 l 1
 265 379 l 1
 333 443 364 460 410 460 c 0
 484 460 528 404 528 310 c 2
 528 81 l 2
 529 32 540 20 589 15 c 1
 589 0 l 1
 381 0 l 1
 381 15 l 1
 430 18 442 34 444 99 c 2
 444 308 l 2
 444 374 420 405 371 405 c 0
 338 405 315 393 268 348 c 1
 268 67 l 2
 268 31 284 18 334 15 c 1
 334 0 l 1
 122 0 l 1
EndSplineSet
Validated: 1
EndChar

StartChar: Eng
Encoding: 265 330 266
Width: 702
GlyphClass: 2
Flags: MW
HStem: -218 34<453.5 456.5> 0 20 622 54<382 414.5>
VStem: 104 102<90 554 554 564> 509 102<-39 0 0 491 491 493>
LayerCount: 2
Fore
SplineSet
206 564 m 1
 206 67 l 2
 206 31 222 18 272 15 c 1
 272 0 l 1
 42 0 l 1
 42 15 l 1
 92 18 103 31 104 90 c 2
 104 554 l 2
 104 603 95 618 67 618 c 0
 56 618 46 617 40 614 c 1
 40 631 l 1
 103 647 141 658 196 676 c 1
 203 674 l 1
 203 595 l 1
 280 656 335 676 429 676 c 0
 485 676 533 664 559 643 c 0
 591 618 611 560 611 493 c 2
 611 0 l 2
 611 -78 589 -147 553 -180 c 0
 527 -204 482 -218 431 -218 c 0
 370 -218 330 -196 330 -163 c 0
 330 -141 348 -124 371 -124 c 0
 387 -124 401 -133 419 -156 c 0
 436 -177 446 -184 461 -184 c 0
 475 -184 489 -176 495 -166 c 0
 506 -146 509 -121 509 -45 c 2
 509 491 l 2
 509 580 463 622 366 622 c 0
 303 622 257 605 206 564 c 1
EndSplineSet
Validated: 1
EndChar

StartChar: N3
Encoding: 266 331 267
Width: 810
GlyphClass: 2
Flags: HMW
HStem: -218 34<225.5 297> 0 20 405 55<281 289.5>
VStem: 78 84<90 338 338 348> 338 84<-39.5 0 0 308 308 310>
LayerCount: 2
Back
SplineSet
798 45 m 25
 810 44 l 1049
EndSplineSet
Fore
SplineSet
474 172 m 21
 474 172 403 -10 287 -10 c 4xac
 248 -10 207 -2 169 13 c 4
 150 20 133 24 122 24 c 4x4c
 107 24 95 10 94 -9 c 5
 72 -9 l 5
 42 203 l 5
 65 203 l 5
 115 81 177 26 267 26 c 4
 340 26 390 72 390 138 c 5
 390 496 l 21
 390 551 346 628 284 628 c 4
 239 628 197 609 162 573 c 4
 131 541 117 515 101 456 c 5
 76 456 l 5
 98 669 l 5x2c
 119 669 l 5
 123 646 134 635 151 635 c 4x1c
 161 635 178 639 195 647 c 4
 232 661 269 669 302 669 c 4xac
 344 669 388.10546875 652.119140625 421 623 c 4
 475 575.198242188 474 498 474 498 c 13
 474 172 l 21
390 105 m 6
 390 214 l 6
 390 262 466 257 419 259 c 5
 429 290 l 5
 467 288 l 5
 474 124 l 6
 475.790039062 82.052734375 506 48 545 48 c 4
 575 48 606 60 633 82 c 4
 647 93 652 107 652 135 c 6
 652 212 l 6
 652 262 640 272 578 275 c 5
 578 292 l 5
 736 292 l 5
 736 107 l 6
 737 60 744 52 793 50 c 6
 798 50 l 5
 798 36 l 5
 747 22 711 11 661 -9 c 5
 657 -7 l 5
 657 76 l 5
 614 33 l 6
 587 6 548 -10 511 -10 c 4
 452.65234375 -10 395 76 395 76 c 5
 390 105 l 6
EndSplineSet
Validated: 37
EndChar

StartChar: Omacron
Encoding: 267 332 268
Width: 722
GlyphClass: 2
Flags: MW
HStem: -14 36<336 385.5 336 453.5> 640 36<333.5 384> 759 54<206 517 206 517>
VStem: 34 114<284 380 273.5 432> 574 114<298.5 376.5 226 387.5>
LayerCount: 2
Fore
SplineSet
361 676 m 0
 457 676 541 640 604 571 c 0
 659 512 688 426 688 327 c 0
 688 125 552 -14 355 -14 c 0
 267 -14 178 25 120 88 c 0
 66 145 34 237 34 331 c 0
 34 533 170 676 361 676 c 0
361 640 m 0
 306 640 257 618 218 575 c 0
 176 528 148 431 148 329 c 0
 148 218 181 117 232 71 c 0
 268 40 313 22 359 22 c 0
 412 22 457 40 492 75 c 0
 515 98 532 123 541 148 c 0
 561 200 574 269 574 328 c 0
 574 447 543 541 489 590 c 0
 453 622 407 640 361 640 c 0
206 813 m 1
 517 813 l 1
 517 759 l 1
 206 759 l 1
 206 813 l 1
EndSplineSet
Validated: 1
EndChar

StartChar: omacron
Encoding: 268 333 269
Width: 500
GlyphClass: 2
Flags: MW
HStem: -10 28<240.5 297.5 240.5 311> 432 28<201 279> 547 54<95 406 95 406>
VStem: 29 90<239.5 295> 380 90<164.5 267.5>
LayerCount: 2
Fore
SplineSet
250 460 m 0
 378 460 470 366 470 234 c 0
 470 95 374 -10 248 -10 c 0
 122 -10 29 90 29 226 c 0
 29 364 119 460 250 460 c 0
237 432 m 0
 165 432 119 370 119 275 c 0
 119 204 135 134 163 82 c 0
 184 42 221 18 260 18 c 0
 335 18 380 85 380 199 c 0
 380 336 321 432 237 432 c 0
95 601 m 1
 406 601 l 1
 406 547 l 1
 95 547 l 1
 95 601 l 1
EndSplineSet
Validated: 1
EndChar

StartChar: Obreve
Encoding: 269 334 270
Width: 722
GlyphClass: 2
Flags: MW
HStem: -14 36<336 385.5 336 453.5> 640 36<333.5 384> 713 60<336 390.5 329 401.5>
VStem: 34 114<284 380 273.5 432> 574 114<298.5 376.5 226 387.5>
LayerCount: 2
Fore
SplineSet
361 676 m 0
 457 676 541 640 604 571 c 0
 659 512 688 426 688 327 c 0
 688 125 552 -14 355 -14 c 0
 267 -14 178 25 120 88 c 0
 66 145 34 237 34 331 c 0
 34 533 170 676 361 676 c 0
361 640 m 0
 306 640 257 618 218 575 c 0
 176 528 148 431 148 329 c 0
 148 218 181 117 232 71 c 0
 268 40 313 22 359 22 c 0
 412 22 457 40 492 75 c 0
 515 98 532 123 541 148 c 0
 561 200 574 269 574 328 c 0
 574 447 543 541 489 590 c 0
 453 622 407 640 361 640 c 0
472 870 m 1
 501 870 l 1
 489 764 443 713 360 713 c 0
 312 713 273 732 248 767 c 0
 228 795 222 819 220 870 c 1
 249 870 l 1
 263 803 297 773 361 773 c 0
 420 773 444 794 472 870 c 1
EndSplineSet
Validated: 1
EndChar

StartChar: obreve
Encoding: 270 335 271
Width: 500
GlyphClass: 2
Flags: MW
HStem: -10 28<240.5 297.5 240.5 311> 432 28<201 279> 507 60<234 288 227 299.5> 644 20<118 147 147 147 370 399 399 399>
VStem: 29 90<239.5 295> 380 90<164.5 267.5>
LayerCount: 2
Fore
SplineSet
250 460 m 0
 378 460 470 366 470 234 c 0
 470 95 374 -10 248 -10 c 0
 122 -10 29 90 29 226 c 0
 29 364 119 460 250 460 c 0
237 432 m 0
 165 432 119 370 119 275 c 0
 119 204 135 134 163 82 c 0
 184 42 221 18 260 18 c 0
 335 18 380 85 380 199 c 0
 380 336 321 432 237 432 c 0
370 664 m 1
 399 664 l 1
 387 558 341 507 258 507 c 0
 210 507 171 526 146 561 c 0
 126 589 120 613 118 664 c 1
 147 664 l 1
 161 597 195 567 259 567 c 0
 317 567 342 588 370 664 c 1
EndSplineSet
Validated: 1
EndChar

